<mxfile host="65bd71144e">
    <diagram id="bN_U6degjw-OrJGEizuG" name="Page-1">
        <mxGraphModel dx="163" dy="173" grid="1" gridSize="10" guides="1" tooltips="1" connect="1" arrows="1" fold="1" page="1" pageScale="1" pageWidth="850" pageHeight="1100" math="0" shadow="0">
            <root>
                <mxCell id="0"/>
                <mxCell id="1" parent="0"/>
                <mxCell id="63" value="" style="rounded=0;whiteSpace=wrap;html=1;strokeColor=#000000;strokeWidth=1;fontSize=15;fillColor=default;" parent="1" vertex="1">
                    <mxGeometry x="20" y="680" width="1470" height="650" as="geometry"/>
                </mxCell>
                <mxCell id="60" value="" style="rounded=0;whiteSpace=wrap;html=1;strokeColor=default;strokeWidth=1;fontSize=15;fillColor=default;" parent="1" vertex="1">
                    <mxGeometry x="20" y="97.5" width="1040" height="485" as="geometry"/>
                </mxCell>
                <mxCell id="2" value="Patient" style="swimlane;fontStyle=0;childLayout=stackLayout;horizontal=1;startSize=30;horizontalStack=0;resizeParent=1;resizeParentMax=0;resizeLast=0;collapsible=1;marginBottom=0;whiteSpace=wrap;html=1;" parent="1" vertex="1">
                    <mxGeometry x="30" y="250" width="160" height="180" as="geometry"/>
                </mxCell>
                <mxCell id="3" value="id&amp;nbsp; PK" style="text;strokeColor=default;fillColor=none;align=left;verticalAlign=middle;spacingLeft=4;spacingRight=4;overflow=hidden;points=[[0,0.5],[1,0.5]];portConstraint=eastwest;rotatable=0;whiteSpace=wrap;html=1;" parent="2" vertex="1">
                    <mxGeometry y="30" width="160" height="30" as="geometry"/>
                </mxCell>
                <mxCell id="4" value="nom" style="text;strokeColor=none;fillColor=none;align=left;verticalAlign=middle;spacingLeft=4;spacingRight=4;overflow=hidden;points=[[0,0.5],[1,0.5]];portConstraint=eastwest;rotatable=0;whiteSpace=wrap;html=1;" parent="2" vertex="1">
                    <mxGeometry y="60" width="160" height="30" as="geometry"/>
                </mxCell>
                <mxCell id="5" value="prenom" style="text;strokeColor=none;fillColor=none;align=left;verticalAlign=middle;spacingLeft=4;spacingRight=4;overflow=hidden;points=[[0,0.5],[1,0.5]];portConstraint=eastwest;rotatable=0;whiteSpace=wrap;html=1;" parent="2" vertex="1">
                    <mxGeometry y="90" width="160" height="30" as="geometry"/>
                </mxCell>
                <mxCell id="18" value="adresse" style="text;strokeColor=none;fillColor=none;align=left;verticalAlign=middle;spacingLeft=4;spacingRight=4;overflow=hidden;points=[[0,0.5],[1,0.5]];portConstraint=eastwest;rotatable=0;whiteSpace=wrap;html=1;" parent="2" vertex="1">
                    <mxGeometry y="120" width="160" height="30" as="geometry"/>
                </mxCell>
                <mxCell id="19" value="caisse_assurance_maladie" style="text;strokeColor=none;fillColor=none;align=left;verticalAlign=middle;spacingLeft=4;spacingRight=4;overflow=hidden;points=[[0,0.5],[1,0.5]];portConstraint=eastwest;rotatable=0;whiteSpace=wrap;html=1;" parent="2" vertex="1">
                    <mxGeometry y="150" width="160" height="30" as="geometry"/>
                </mxCell>
                <mxCell id="6" value="chambre" style="swimlane;fontStyle=0;childLayout=stackLayout;horizontal=1;startSize=30;horizontalStack=0;resizeParent=1;resizeParentMax=0;resizeLast=0;collapsible=1;marginBottom=0;whiteSpace=wrap;html=1;" parent="1" vertex="1">
                    <mxGeometry x="620" y="420" width="110" height="120" as="geometry"/>
                </mxCell>
                <mxCell id="7" value="id PK(n° chambre)" style="text;strokeColor=default;fillColor=default;align=left;verticalAlign=middle;spacingLeft=4;spacingRight=4;overflow=hidden;points=[[0,0.5],[1,0.5]];portConstraint=eastwest;rotatable=0;whiteSpace=wrap;html=1;strokeWidth=1;" parent="6" vertex="1">
                    <mxGeometry y="30" width="110" height="30" as="geometry"/>
                </mxCell>
                <mxCell id="8" value="etage" style="text;strokeColor=none;fillColor=none;align=left;verticalAlign=middle;spacingLeft=4;spacingRight=4;overflow=hidden;points=[[0,0.5],[1,0.5]];portConstraint=eastwest;rotatable=0;whiteSpace=wrap;html=1;" parent="6" vertex="1">
                    <mxGeometry y="60" width="110" height="30" as="geometry"/>
                </mxCell>
                <mxCell id="9" value="nom_service" style="text;strokeColor=none;fillColor=none;align=left;verticalAlign=middle;spacingLeft=4;spacingRight=4;overflow=hidden;points=[[0,0.5],[1,0.5]];portConstraint=eastwest;rotatable=0;whiteSpace=wrap;html=1;" parent="6" vertex="1">
                    <mxGeometry y="90" width="110" height="30" as="geometry"/>
                </mxCell>
                <mxCell id="10" value="médecin" style="swimlane;fontStyle=0;childLayout=stackLayout;horizontal=1;startSize=30;horizontalStack=0;resizeParent=1;resizeParentMax=0;resizeLast=0;collapsible=1;marginBottom=0;whiteSpace=wrap;html=1;" parent="1" vertex="1">
                    <mxGeometry x="910" y="240" width="140" height="150" as="geometry"/>
                </mxCell>
                <mxCell id="11" value="id PK" style="text;strokeColor=default;fillColor=none;align=left;verticalAlign=middle;spacingLeft=4;spacingRight=4;overflow=hidden;points=[[0,0.5],[1,0.5]];portConstraint=eastwest;rotatable=0;whiteSpace=wrap;html=1;" parent="10" vertex="1">
                    <mxGeometry y="30" width="140" height="30" as="geometry"/>
                </mxCell>
                <mxCell id="12" value="nom" style="text;strokeColor=none;fillColor=none;align=left;verticalAlign=middle;spacingLeft=4;spacingRight=4;overflow=hidden;points=[[0,0.5],[1,0.5]];portConstraint=eastwest;rotatable=0;whiteSpace=wrap;html=1;" parent="10" vertex="1">
                    <mxGeometry y="60" width="140" height="30" as="geometry"/>
                </mxCell>
                <mxCell id="13" value="prenom" style="text;strokeColor=none;fillColor=none;align=left;verticalAlign=middle;spacingLeft=4;spacingRight=4;overflow=hidden;points=[[0,0.5],[1,0.5]];portConstraint=eastwest;rotatable=0;whiteSpace=wrap;html=1;" parent="10" vertex="1">
                    <mxGeometry y="90" width="140" height="30" as="geometry"/>
                </mxCell>
                <mxCell id="36" value="specialite" style="text;strokeColor=none;fillColor=none;align=left;verticalAlign=middle;spacingLeft=4;spacingRight=4;overflow=hidden;points=[[0,0.5],[1,0.5]];portConstraint=eastwest;rotatable=0;whiteSpace=wrap;html=1;" parent="10" vertex="1">
                    <mxGeometry y="120" width="140" height="30" as="geometry"/>
                </mxCell>
                <mxCell id="34" style="edgeStyle=none;html=1;exitX=0;exitY=0.5;exitDx=0;exitDy=0;endArrow=none;endFill=0;startArrow=none;" parent="1" source="43" edge="1">
                    <mxGeometry relative="1" as="geometry">
                        <mxPoint x="430" y="270" as="targetPoint"/>
                    </mxGeometry>
                </mxCell>
                <mxCell id="14" value="intervention" style="swimlane;fontStyle=0;childLayout=stackLayout;horizontal=1;startSize=30;horizontalStack=0;resizeParent=1;resizeParentMax=0;resizeLast=0;collapsible=1;marginBottom=0;whiteSpace=wrap;html=1;" parent="1" vertex="1">
                    <mxGeometry x="560" y="150" width="140" height="150" as="geometry"/>
                </mxCell>
                <mxCell id="15" value="id PK" style="text;strokeColor=default;fillColor=none;align=left;verticalAlign=middle;spacingLeft=4;spacingRight=4;overflow=hidden;points=[[0,0.5],[1,0.5]];portConstraint=eastwest;rotatable=0;whiteSpace=wrap;html=1;" parent="14" vertex="1">
                    <mxGeometry y="30" width="140" height="30" as="geometry"/>
                </mxCell>
                <mxCell id="16" value="date" style="text;strokeColor=none;fillColor=none;align=left;verticalAlign=middle;spacingLeft=4;spacingRight=4;overflow=hidden;points=[[0,0.5],[1,0.5]];portConstraint=eastwest;rotatable=0;whiteSpace=wrap;html=1;" parent="14" vertex="1">
                    <mxGeometry y="60" width="140" height="30" as="geometry"/>
                </mxCell>
                <mxCell id="17" value="nom" style="text;strokeColor=none;fillColor=none;align=left;verticalAlign=middle;spacingLeft=4;spacingRight=4;overflow=hidden;points=[[0,0.5],[1,0.5]];portConstraint=eastwest;rotatable=0;whiteSpace=wrap;html=1;" parent="14" vertex="1">
                    <mxGeometry y="90" width="140" height="30" as="geometry"/>
                </mxCell>
                <mxCell id="33" value="medecin" style="text;strokeColor=none;fillColor=none;align=left;verticalAlign=middle;spacingLeft=4;spacingRight=4;overflow=hidden;points=[[0,0.5],[1,0.5]];portConstraint=eastwest;rotatable=0;whiteSpace=wrap;html=1;" parent="14" vertex="1">
                    <mxGeometry y="120" width="140" height="30" as="geometry"/>
                </mxCell>
                <mxCell id="24" value="séjour" style="swimlane;fontStyle=0;childLayout=stackLayout;horizontal=1;startSize=30;horizontalStack=0;resizeParent=1;resizeParentMax=0;resizeLast=0;collapsible=1;marginBottom=0;whiteSpace=wrap;html=1;" parent="1" vertex="1">
                    <mxGeometry x="340" y="250" width="100" height="120" as="geometry"/>
                </mxCell>
                <mxCell id="25" value="id PK (n° séjour)" style="text;strokeColor=default;fillColor=none;align=left;verticalAlign=middle;spacingLeft=4;spacingRight=4;overflow=hidden;points=[[0,0.5],[1,0.5]];portConstraint=eastwest;rotatable=0;whiteSpace=wrap;html=1;" parent="24" vertex="1">
                    <mxGeometry y="30" width="100" height="30" as="geometry"/>
                </mxCell>
                <mxCell id="26" value="date_arrivée" style="text;strokeColor=none;fillColor=none;align=left;verticalAlign=middle;spacingLeft=4;spacingRight=4;overflow=hidden;points=[[0,0.5],[1,0.5]];portConstraint=eastwest;rotatable=0;whiteSpace=wrap;html=1;" parent="24" vertex="1">
                    <mxGeometry y="60" width="100" height="30" as="geometry"/>
                </mxCell>
                <mxCell id="27" value="date_depart" style="text;strokeColor=none;fillColor=none;align=left;verticalAlign=middle;spacingLeft=4;spacingRight=4;overflow=hidden;points=[[0,0.5],[1,0.5]];portConstraint=eastwest;rotatable=0;whiteSpace=wrap;html=1;" parent="24" vertex="1">
                    <mxGeometry y="90" width="100" height="30" as="geometry"/>
                </mxCell>
                <mxCell id="30" style="edgeStyle=none;html=1;exitX=0.5;exitY=1;exitDx=0;exitDy=0;endArrow=none;endFill=0;startArrow=none;" parent="1" source="42" target="6" edge="1">
                    <mxGeometry relative="1" as="geometry">
                        <Array as="points">
                            <mxPoint x="550" y="400"/>
                        </Array>
                    </mxGeometry>
                </mxCell>
                <mxCell id="32" style="edgeStyle=none;html=1;exitX=1;exitY=0.5;exitDx=0;exitDy=0;entryX=0;entryY=0.5;entryDx=0;entryDy=0;endArrow=none;endFill=0;startArrow=none;" parent="1" source="41" target="25" edge="1">
                    <mxGeometry relative="1" as="geometry"/>
                </mxCell>
                <mxCell id="35" style="edgeStyle=none;html=1;exitX=1;exitY=0.5;exitDx=0;exitDy=0;entryX=0;entryY=0.5;entryDx=0;entryDy=0;endArrow=none;endFill=0;" parent="1" source="33" target="11" edge="1">
                    <mxGeometry relative="1" as="geometry"/>
                </mxCell>
                <mxCell id="39" value="&lt;font size=&quot;1&quot; style=&quot;&quot;&gt;&lt;b style=&quot;font-size: 23px;&quot;&gt;Question 1&lt;/b&gt;&lt;/font&gt;" style="text;html=1;strokeColor=none;fillColor=none;align=center;verticalAlign=middle;whiteSpace=wrap;rounded=0;strokeWidth=1;" parent="1" vertex="1">
                    <mxGeometry x="60" y="40" width="170" height="30" as="geometry"/>
                </mxCell>
                <mxCell id="40" value="&lt;font style=&quot;font-size: 17px;&quot;&gt;MCD&lt;/font&gt;" style="text;html=1;strokeColor=#36393d;fillColor=#f9f7ed;align=center;verticalAlign=middle;whiteSpace=wrap;rounded=0;strokeWidth=1;" parent="1" vertex="1">
                    <mxGeometry x="50" y="90" width="260" height="30" as="geometry"/>
                </mxCell>
                <mxCell id="44" value="" style="edgeStyle=none;html=1;exitX=0;exitY=0.5;exitDx=0;exitDy=0;endArrow=none;endFill=0;" parent="1" source="15" target="43" edge="1">
                    <mxGeometry relative="1" as="geometry">
                        <mxPoint x="560" y="195" as="sourcePoint"/>
                        <mxPoint x="430" y="270" as="targetPoint"/>
                    </mxGeometry>
                </mxCell>
                <mxCell id="43" value="pratiquée" style="rounded=1;whiteSpace=wrap;html=1;strokeColor=default;strokeWidth=1;fontSize=17;fillColor=default;" parent="1" vertex="1">
                    <mxGeometry x="460" y="220" width="80" height="30" as="geometry"/>
                </mxCell>
                <mxCell id="45" value="dirigée" style="rounded=1;whiteSpace=wrap;html=1;strokeColor=default;strokeWidth=1;fontSize=17;fillColor=default;" parent="1" vertex="1">
                    <mxGeometry x="770" y="270" width="80" height="30" as="geometry"/>
                </mxCell>
                <mxCell id="46" value="&lt;font style=&quot;font-size: 17px;&quot;&gt;MLD&lt;/font&gt;" style="text;html=1;strokeColor=#36393d;fillColor=#f9f7ed;align=center;verticalAlign=middle;whiteSpace=wrap;rounded=0;strokeWidth=1;" parent="1" vertex="1">
                    <mxGeometry x="50" y="680" width="260" height="30" as="geometry"/>
                </mxCell>
                <mxCell id="48" value="&lt;font style=&quot;font-size: 15px;&quot;&gt;1..N&lt;/font&gt;" style="text;html=1;strokeColor=none;fillColor=none;align=center;verticalAlign=middle;whiteSpace=wrap;rounded=0;strokeWidth=1;fontSize=23;" parent="1" vertex="1">
                    <mxGeometry x="150" y="220" width="60" height="30" as="geometry"/>
                </mxCell>
                <mxCell id="49" value="&lt;font style=&quot;font-size: 15px;&quot;&gt;1..1&lt;/font&gt;" style="text;html=1;strokeColor=none;fillColor=none;align=center;verticalAlign=middle;whiteSpace=wrap;rounded=0;strokeWidth=1;fontSize=23;" parent="1" vertex="1">
                    <mxGeometry x="310" y="220" width="60" height="30" as="geometry"/>
                </mxCell>
                <mxCell id="50" value="&lt;font style=&quot;font-size: 15px;&quot;&gt;1..N&lt;/font&gt;" style="text;html=1;strokeColor=none;fillColor=none;align=center;verticalAlign=middle;whiteSpace=wrap;rounded=0;strokeWidth=1;fontSize=23;" parent="1" vertex="1">
                    <mxGeometry x="390" y="220" width="60" height="30" as="geometry"/>
                </mxCell>
                <mxCell id="51" value="&lt;font style=&quot;font-size: 15px;&quot;&gt;1..1&lt;/font&gt;" style="text;html=1;strokeColor=none;fillColor=none;align=center;verticalAlign=middle;whiteSpace=wrap;rounded=0;strokeWidth=1;fontSize=23;" parent="1" vertex="1">
                    <mxGeometry x="500" y="140" width="60" height="30" as="geometry"/>
                </mxCell>
                <mxCell id="52" value="" style="edgeStyle=none;html=1;exitX=1;exitY=0.5;exitDx=0;exitDy=0;endArrow=none;endFill=0;" parent="1" source="25" target="42" edge="1">
                    <mxGeometry relative="1" as="geometry">
                        <mxPoint x="430" y="295" as="sourcePoint"/>
                        <mxPoint x="620" y="448.6956521739129" as="targetPoint"/>
                        <Array as="points"/>
                    </mxGeometry>
                </mxCell>
                <mxCell id="42" value="attribué" style="rounded=1;whiteSpace=wrap;html=1;strokeColor=default;strokeWidth=1;fontSize=17;fillColor=default;" parent="1" vertex="1">
                    <mxGeometry x="490" y="360" width="80" height="30" as="geometry"/>
                </mxCell>
                <mxCell id="53" value="&lt;font style=&quot;font-size: 15px;&quot;&gt;1..1&lt;/font&gt;" style="text;html=1;strokeColor=none;fillColor=none;align=center;verticalAlign=middle;whiteSpace=wrap;rounded=0;strokeWidth=1;fontSize=23;" parent="1" vertex="1">
                    <mxGeometry x="430" y="310" width="60" height="30" as="geometry"/>
                </mxCell>
                <mxCell id="54" value="&lt;font style=&quot;font-size: 15px;&quot;&gt;1..N&lt;/font&gt;" style="text;html=1;strokeColor=none;fillColor=none;align=center;verticalAlign=middle;whiteSpace=wrap;rounded=0;strokeWidth=1;fontSize=23;" parent="1" vertex="1">
                    <mxGeometry x="570" y="400" width="60" height="30" as="geometry"/>
                </mxCell>
                <mxCell id="55" value="&lt;font style=&quot;font-size: 15px;&quot;&gt;1..1&lt;/font&gt;" style="text;html=1;strokeColor=none;fillColor=none;align=center;verticalAlign=middle;whiteSpace=wrap;rounded=0;strokeWidth=1;fontSize=23;" parent="1" vertex="1">
                    <mxGeometry x="700" y="250" width="60" height="30" as="geometry"/>
                </mxCell>
                <mxCell id="56" value="&lt;font style=&quot;font-size: 15px;&quot;&gt;1..N&lt;/font&gt;" style="text;html=1;strokeColor=none;fillColor=none;align=center;verticalAlign=middle;whiteSpace=wrap;rounded=0;strokeWidth=1;fontSize=23;" parent="1" vertex="1">
                    <mxGeometry x="850" y="250" width="60" height="30" as="geometry"/>
                </mxCell>
                <mxCell id="58" value="" style="edgeStyle=none;html=1;exitX=1;exitY=0.5;exitDx=0;exitDy=0;entryX=0;entryY=0.5;entryDx=0;entryDy=0;endArrow=none;endFill=0;" parent="1" source="3" target="41" edge="1">
                    <mxGeometry relative="1" as="geometry">
                        <mxPoint x="190" y="295" as="sourcePoint"/>
                        <mxPoint x="340" y="295" as="targetPoint"/>
                    </mxGeometry>
                </mxCell>
                <mxCell id="41" value="effectuer" style="rounded=1;whiteSpace=wrap;html=1;strokeColor=default;strokeWidth=1;fontSize=17;fillColor=default;" parent="1" vertex="1">
                    <mxGeometry x="220" y="280" width="80" height="30" as="geometry"/>
                </mxCell>
                <mxCell id="64" value="&lt;b&gt;Patient&lt;/b&gt;" style="swimlane;fontStyle=0;childLayout=stackLayout;horizontal=1;startSize=30;horizontalStack=0;resizeParent=1;resizeParentMax=0;resizeLast=0;collapsible=1;marginBottom=0;whiteSpace=wrap;html=1;fillColor=#fff2cc;strokeColor=#d6b656;" parent="1" vertex="1">
                    <mxGeometry x="110" y="1150" width="230" height="180" as="geometry"/>
                </mxCell>
                <mxCell id="65" value="id&amp;nbsp; PK" style="text;strokeColor=default;fillColor=none;align=left;verticalAlign=middle;spacingLeft=4;spacingRight=4;overflow=hidden;points=[[0,0.5],[1,0.5]];portConstraint=eastwest;rotatable=0;whiteSpace=wrap;html=1;" parent="64" vertex="1">
                    <mxGeometry y="30" width="230" height="30" as="geometry"/>
                </mxCell>
                <mxCell id="66" value="nom VARCHAR(255) NOT NULL&amp;nbsp;" style="text;strokeColor=none;fillColor=none;align=left;verticalAlign=middle;spacingLeft=4;spacingRight=4;overflow=hidden;points=[[0,0.5],[1,0.5]];portConstraint=eastwest;rotatable=0;whiteSpace=wrap;html=1;" parent="64" vertex="1">
                    <mxGeometry y="60" width="230" height="30" as="geometry"/>
                </mxCell>
                <mxCell id="67" value="prenom VARCHAR(255) NOT NULL" style="text;strokeColor=none;fillColor=none;align=left;verticalAlign=middle;spacingLeft=4;spacingRight=4;overflow=hidden;points=[[0,0.5],[1,0.5]];portConstraint=eastwest;rotatable=0;whiteSpace=wrap;html=1;" parent="64" vertex="1">
                    <mxGeometry y="90" width="230" height="30" as="geometry"/>
                </mxCell>
                <mxCell id="68" value="adresse VARCHAR(255) NOT NULL" style="text;strokeColor=none;fillColor=none;align=left;verticalAlign=middle;spacingLeft=4;spacingRight=4;overflow=hidden;points=[[0,0.5],[1,0.5]];portConstraint=eastwest;rotatable=0;whiteSpace=wrap;html=1;" parent="64" vertex="1">
                    <mxGeometry y="120" width="230" height="30" as="geometry"/>
                </mxCell>
                <mxCell id="69" value="caisse VARCHAR(255) NOT NULL" style="text;strokeColor=none;fillColor=none;align=left;verticalAlign=middle;spacingLeft=4;spacingRight=4;overflow=hidden;points=[[0,0.5],[1,0.5]];portConstraint=eastwest;rotatable=0;whiteSpace=wrap;html=1;" parent="64" vertex="1">
                    <mxGeometry y="150" width="230" height="30" as="geometry"/>
                </mxCell>
                <mxCell id="80" value="&lt;b&gt;intervention&lt;/b&gt;" style="swimlane;fontStyle=0;childLayout=stackLayout;horizontal=1;startSize=30;horizontalStack=0;resizeParent=1;resizeParentMax=0;resizeLast=0;collapsible=1;marginBottom=0;whiteSpace=wrap;html=1;fillColor=#fff2cc;strokeColor=#d6b656;" parent="1" vertex="1">
                    <mxGeometry x="830" y="730" width="200" height="210" as="geometry"/>
                </mxCell>
                <mxCell id="81" value="id PK" style="text;strokeColor=default;fillColor=none;align=left;verticalAlign=middle;spacingLeft=4;spacingRight=4;overflow=hidden;points=[[0,0.5],[1,0.5]];portConstraint=eastwest;rotatable=0;whiteSpace=wrap;html=1;" parent="80" vertex="1">
                    <mxGeometry y="30" width="200" height="30" as="geometry"/>
                </mxCell>
                <mxCell id="82" value="date DATE" style="text;strokeColor=none;fillColor=none;align=left;verticalAlign=middle;spacingLeft=4;spacingRight=4;overflow=hidden;points=[[0,0.5],[1,0.5]];portConstraint=eastwest;rotatable=0;whiteSpace=wrap;html=1;" parent="80" vertex="1">
                    <mxGeometry y="60" width="200" height="30" as="geometry"/>
                </mxCell>
                <mxCell id="83" value="nom_intervention TEXT" style="text;strokeColor=none;fillColor=none;align=left;verticalAlign=middle;spacingLeft=4;spacingRight=4;overflow=hidden;points=[[0,0.5],[1,0.5]];portConstraint=eastwest;rotatable=0;whiteSpace=wrap;html=1;" parent="80" vertex="1">
                    <mxGeometry y="90" width="200" height="30" as="geometry"/>
                </mxCell>
                <mxCell id="84" value="medecin VARCHAR(255)&amp;nbsp;" style="text;strokeColor=none;fillColor=none;align=left;verticalAlign=middle;spacingLeft=4;spacingRight=4;overflow=hidden;points=[[0,0.5],[1,0.5]];portConstraint=eastwest;rotatable=0;whiteSpace=wrap;html=1;" parent="80" vertex="1">
                    <mxGeometry y="120" width="200" height="30" as="geometry"/>
                </mxCell>
                <mxCell id="103" value="&lt;font color=&quot;#0066cc&quot;&gt;FK---(id séjour) INT&lt;/font&gt;" style="text;strokeColor=default;fillColor=none;align=left;verticalAlign=middle;spacingLeft=4;spacingRight=4;overflow=hidden;points=[[0,0.5],[1,0.5]];portConstraint=eastwest;rotatable=0;whiteSpace=wrap;html=1;dashed=1;" parent="80" vertex="1">
                    <mxGeometry y="150" width="200" height="30" as="geometry"/>
                </mxCell>
                <mxCell id="116" value="&lt;font color=&quot;#0066cc&quot;&gt;FK---(id médecin) INT&lt;/font&gt;" style="text;strokeColor=default;fillColor=none;align=left;verticalAlign=middle;spacingLeft=4;spacingRight=4;overflow=hidden;points=[[0,0.5],[1,0.5]];portConstraint=eastwest;rotatable=0;whiteSpace=wrap;html=1;dashed=1;" parent="80" vertex="1">
                    <mxGeometry y="180" width="200" height="30" as="geometry"/>
                </mxCell>
                <mxCell id="86" value="&lt;b&gt;chambre&lt;/b&gt;" style="swimlane;fontStyle=0;childLayout=stackLayout;horizontal=1;startSize=30;horizontalStack=0;resizeParent=1;resizeParentMax=0;resizeLast=0;collapsible=1;marginBottom=0;whiteSpace=wrap;html=1;fillColor=#fff2cc;strokeColor=#d6b656;" parent="1" vertex="1">
                    <mxGeometry x="710" y="1070" width="190" height="120" as="geometry"/>
                </mxCell>
                <mxCell id="87" value="id PK&amp;nbsp;" style="text;strokeColor=default;fillColor=default;align=left;verticalAlign=middle;spacingLeft=4;spacingRight=4;overflow=hidden;points=[[0,0.5],[1,0.5]];portConstraint=eastwest;rotatable=0;whiteSpace=wrap;html=1;strokeWidth=1;" parent="86" vertex="1">
                    <mxGeometry y="30" width="190" height="30" as="geometry"/>
                </mxCell>
                <mxCell id="100" value="etage INT" style="text;strokeColor=none;fillColor=none;align=left;verticalAlign=middle;spacingLeft=4;spacingRight=4;overflow=hidden;points=[[0,0.5],[1,0.5]];portConstraint=eastwest;rotatable=0;whiteSpace=wrap;html=1;" parent="86" vertex="1">
                    <mxGeometry y="60" width="190" height="30" as="geometry"/>
                </mxCell>
                <mxCell id="89" value="nom_service VARCHAR (255)" style="text;strokeColor=none;fillColor=none;align=left;verticalAlign=middle;spacingLeft=4;spacingRight=4;overflow=hidden;points=[[0,0.5],[1,0.5]];portConstraint=eastwest;rotatable=0;whiteSpace=wrap;html=1;" parent="86" vertex="1">
                    <mxGeometry y="90" width="190" height="30" as="geometry"/>
                </mxCell>
                <mxCell id="95" value="" style="endArrow=classic;html=1;fontSize=15;fontColor=#66B2FF;entryX=-0.006;entryY=0.759;entryDx=0;entryDy=0;entryPerimeter=0;exitX=1;exitY=0.5;exitDx=0;exitDy=0;startArrow=oval;startFill=1;" parent="1" source="65" target="74" edge="1">
                    <mxGeometry width="50" height="50" relative="1" as="geometry">
                        <mxPoint x="360" y="1160" as="sourcePoint"/>
                        <mxPoint x="410" y="1110" as="targetPoint"/>
                        <Array as="points">
                            <mxPoint x="400" y="1195"/>
                            <mxPoint x="400" y="1065"/>
                        </Array>
                    </mxGeometry>
                </mxCell>
                <mxCell id="98" value="" style="endArrow=classic;html=1;fontSize=15;fontColor=#66B2FF;entryX=1;entryY=0.752;entryDx=0;entryDy=0;entryPerimeter=0;startArrow=oval;startFill=1;" parent="1" edge="1">
                    <mxGeometry width="50" height="50" relative="1" as="geometry">
                        <mxPoint x="710" y="1120" as="sourcePoint"/>
                        <mxPoint x="600" y="1092.56" as="targetPoint"/>
                        <Array as="points">
                            <mxPoint x="660" y="1120"/>
                            <mxPoint x="660" y="1093"/>
                        </Array>
                    </mxGeometry>
                </mxCell>
                <mxCell id="104" value="" style="endArrow=classic;html=1;fontSize=15;fontColor=#66B2FF;exitX=1;exitY=0.5;exitDx=0;exitDy=0;startArrow=oval;startFill=1;" parent="1" source="71" target="103" edge="1">
                    <mxGeometry width="50" height="50" relative="1" as="geometry">
                        <mxPoint x="750" y="920" as="sourcePoint"/>
                        <mxPoint x="800" y="870" as="targetPoint"/>
                        <Array as="points">
                            <mxPoint x="720" y="965"/>
                            <mxPoint x="720" y="900"/>
                        </Array>
                    </mxGeometry>
                </mxCell>
                <mxCell id="111" value="médecin" style="swimlane;fontStyle=0;childLayout=stackLayout;horizontal=1;startSize=30;horizontalStack=0;resizeParent=1;resizeParentMax=0;resizeLast=0;collapsible=1;marginBottom=0;whiteSpace=wrap;html=1;fillColor=#fff2cc;strokeColor=#d6b656;" parent="1" vertex="1">
                    <mxGeometry x="1205" y="940" width="215" height="150" as="geometry"/>
                </mxCell>
                <mxCell id="117" value="id PK" style="text;strokeColor=default;fillColor=none;align=left;verticalAlign=middle;spacingLeft=4;spacingRight=4;overflow=hidden;points=[[0,0.5],[1,0.5]];portConstraint=eastwest;rotatable=0;whiteSpace=wrap;html=1;" parent="111" vertex="1">
                    <mxGeometry y="30" width="215" height="30" as="geometry"/>
                </mxCell>
                <mxCell id="113" value="nom VARCHAR(255) NOT NULL" style="text;strokeColor=none;fillColor=none;align=left;verticalAlign=middle;spacingLeft=4;spacingRight=4;overflow=hidden;points=[[0,0.5],[1,0.5]];portConstraint=eastwest;rotatable=0;whiteSpace=wrap;html=1;" parent="111" vertex="1">
                    <mxGeometry y="60" width="215" height="30" as="geometry"/>
                </mxCell>
                <mxCell id="114" value="prenom VARCHAR(255) NOT NULL" style="text;strokeColor=none;fillColor=none;align=left;verticalAlign=middle;spacingLeft=4;spacingRight=4;overflow=hidden;points=[[0,0.5],[1,0.5]];portConstraint=eastwest;rotatable=0;whiteSpace=wrap;html=1;" parent="111" vertex="1">
                    <mxGeometry y="90" width="215" height="30" as="geometry"/>
                </mxCell>
                <mxCell id="115" value="specialite VARCHAR(255) NOT NULL" style="text;strokeColor=none;fillColor=none;align=left;verticalAlign=middle;spacingLeft=4;spacingRight=4;overflow=hidden;points=[[0,0.5],[1,0.5]];portConstraint=eastwest;rotatable=0;whiteSpace=wrap;html=1;" parent="111" vertex="1">
                    <mxGeometry y="120" width="215" height="30" as="geometry"/>
                </mxCell>
                <mxCell id="118" value="" style="endArrow=classic;html=1;fontSize=15;fontColor=#66B2FF;exitX=0;exitY=0.5;exitDx=0;exitDy=0;entryX=1;entryY=0.5;entryDx=0;entryDy=0;startArrow=oval;startFill=1;" parent="1" source="117" target="116" edge="1">
                    <mxGeometry width="50" height="50" relative="1" as="geometry">
                        <mxPoint x="1050" y="850" as="sourcePoint"/>
                        <mxPoint x="1100" y="800" as="targetPoint"/>
                        <Array as="points">
                            <mxPoint x="1110" y="985"/>
                            <mxPoint x="1110" y="925"/>
                        </Array>
                    </mxGeometry>
                </mxCell>
                <mxCell id="119" value="&lt;font size=&quot;1&quot; style=&quot;&quot;&gt;&lt;b style=&quot;font-size: 23px;&quot;&gt;Question 2&lt;/b&gt;&lt;/font&gt;" style="text;html=1;strokeColor=none;fillColor=none;align=center;verticalAlign=middle;whiteSpace=wrap;rounded=0;strokeWidth=1;" parent="1" vertex="1">
                    <mxGeometry y="1480" width="170" height="30" as="geometry"/>
                </mxCell>
                <mxCell id="122" value="" style="line;strokeWidth=4;html=1;perimeter=backbonePerimeter;points=[];outlineConnect=0;dashed=1;strokeColor=default;fontSize=15;fontColor=#66B2FF;fillColor=default;" parent="1" vertex="1">
                    <mxGeometry x="25" y="1170" width="1465" height="480" as="geometry"/>
                </mxCell>
                <mxCell id="125" value="&lt;img alt=&quot;&quot; src=&quot;data:image/png;base64,iVBORw0KGgoAAAANSUhEUgAABLwAAAIdCAYAAAA3T2RLAAAAAXNSR0IArs4c6QAAAARnQU1BAACxjwv8YQUAAAAJcEhZcwAAFiUAABYlAUlSJPAAAP+lSURBVHhe7N13WBTH/wfw99GLIB0UEARFBCkWVBR77zEaW6yxa1RsMYkxxmhMYo819hZbULFX7AW7iCiigAgIIr1zXJnfH19uf7dLkaIEzs/ree6B25ktdzs7s/u52VkRY4yBEEIIIYQQQgghhBAVoSacQAghhBBCCCGEEEJIdUYBL0IIIYQQQgghhBCiUijgRQghhBBCCCGEEEJUCgW8CCGEEEIIIYQQQohKoYAXIYQQQgghhBBCCFEpFPAihBBCCCGEEEIIISqFAl6EEEIIIYQQQgghRKVQwIsQQgghhBBCCCGEqBQKeBFCCCGEEEIIIYQQlUIBL0IIIYQQQgghhBCiUijgRQghhBBCCCGEEEJUCgW8CCGEEEIIIYQQQohKoYAXIYQQQgghhBBCCFEpFPAihBBCCCGEEEIIISqFAl6EEEIIIYQQQgghRKVQwIsQQgghhBBCCCGEqBQKeBFSTTDGhJMIIYQQQgghhBBSBBGrJlfRSUlJ2Lt3Ly5cuICQkBAkJiYCAMzNzeHm5oZu3bphxIgRMDExEc6qUvz9/TFx4kRIpVKsWbMGI0eOFGapku7du4cVK1bg1q1byM3NRb169TB8+HBMnjwZmpqawuxl9vbtW/z555/w8vLCiBEjeGmLFy/G27dvedOUmZubY/HixcLJVUZ2djYGDx6MCxcuoE2bNjh8+DCMjY2F2f5zixcvhkwmw+zZs2FgYCBMJoQQQgghhBBCKk2VD3jJZDL89ttvWL58ObKysuDg4IAlS5agffv2YIzh5s2bWLhwIV68eAFDQ0P88MMPmDdvHkQikXBR1UZ2djbu3r2Ljh078qbL5XKYmJggPT0dAKCtrY2kpCTUqFGDl6+qWb16NebMmQO5XC5Mgre3Ny5evAh9fX1hUqkdOHAA06ZNw/LlyzFmzBheWkxMDOzs7ErsHTVz5kysWrVKOLnKWLVqFWbPns29//HHH/Hbb7/x8nwsZ86cQdeuXaGhoSFM+iC5XI4FCxZg3759+Oeff+Dj4yPMQgghhBBCCCGEVIoqfUtjRkYGevTogYULFyIrKwv16tVDYGAghg4dilq1aqF27doYNGgQAgMD4ebmhoyMDPzwww/o168fsrOzhYurNhYuXIgLFy4IJ0MmkyE3N5d7LxaLIRaLeXmqmrNnz2LWrFlFBrsAIDAwEL6+vsLJpbZ69WoMGzYMixYtKhTsQkEwrKRgFwCMGzdOOKlKyczMLPH9xxIXF4ehQ4dCKpUKk0pFTU0Nv/32Gzp16oQuXbrgzJkzwiyEEEIIIYQQQkilqLIBL5lMhkGDBuHixYvctK1bt8LCwoKXDwCMjIywc+dO7v3JkycxcuTIDwY6qqLLly9jzZo1wskAAE1NTSxatIjrvfb999/D1NRUmK3KkMvlmDVrFlq3bo1du3bh+PHjmDlzJtTV1Xn5du3ahffv3/Omlca///6LWbNmwcvLC1OmTBEmAwD27dsHHR0d6OvrF/nq0KEDXFxchLNVKRMmTICjoyMAwMbGBjNmzBBmqTCZTIZRo0YhIyNDmFRmf/75J3R0dDBw4EA8efJEmEwIIYQQQgghhHxyVTbgtWzZMpw/f55736RJE7Rv356XR1nTpk3RunVr7v3Ro0exYcMGXp6qLiwsDIMHD4ZMJhMmcb7//nu8ffsWMTEx+P3334XJVcq1a9fQpEkTXLt2DaNGjULfvn2xatUq7N27l5dPKpXi2bNnvGkfEhkZibFjxwIAZsyYUeQtrCEhIXj+/DmioqKQlZVV5Ovy5cvC2aqcWrVq4fnz5wgNDUV4eDgX/PqYZs6ciYCAAOHkcjEzM8OoUaOQm5uLAQMGICcnR5iFEEIIIYQQQgj5pKpkwCslJQV//vknb1qfPn1474vSpUsX3vtff/0VWVlZvGkfU3x8PEJCQj54i1lKSgqePn2KpKQkblpCQgIvz/Pnz9G+fXtenuLUqlULNjY2wsmFxMXFISQkBGlpacKkUmOMISIiAlFRUWXuMVe3bl1s3ry5UI+uoUOHolGjRrxpZmZmvPcfMnv2bGRlZUFbWxv9+vUTJgMFvbu8vLwgkUggkUiEyR9VWloaQkNDebecfkhZ9o+WlhacnZ2hra0tTCpRWloanj17VmwZZYzB19cX69atEyYVqTRlGQX7GAAiIiKwYsUKYTIhhBBCCCGEEPJJVcmA15EjR7iB2RWaN2/Oe1+Uxo0b894nJibi9OnTAIA9e/agRYsW8PT05F6Kgb/v3buHjh078tIGDhzIW5ayU6dOwd3dHc2aNcPIkSNhZmaGcePGFQqupaWl4csvv4SZmRm6d+8Oe3t7dOzYEV9//TWWLFnC5fP394e3tzfevXvHTdu5cye3LX/88Qdu376N7t2787axVatWXH5lu3btgpOTE+zs7DBixAjUrl0bjRs3xsGDB4VZkZ+fj2HDhvGW6+npibCwMBw9ehQODg6oV68e6tatCw8PD4SGhgoXUSx7e/tiB9RXvo1QV1e3TL2WHj16hGPHjgEFPfuKWgdjDAcOHEBgYCBsbW2hra0NNzc3TJ06Fffu3RNm/6ArV66gS5cuvO+oc+fOSEtLw9dffw0zMzO4uLjAwMAAEyZMKPHWwLLsn7lz56Jx48a89e7Zs4dLP378OFq3bs1LnzlzJpKTkzFixAiYm5ujUaNGMDMzw8KFC3nLTktLQ9++ffHXX3/xpisfJ4pgXGnLskLz5s1hZGQEFPTWLOn7IIQQQgghhBBCPjpWBQ0YMIAB4L2eP38uzFbIo0ePCs03ZswYLn3Dhg28tIkTJ3JpT5484aW5urpyacqWL1/OADBjY2OWmJjIGGNs2LBhDADz9vZm+fn5XN7u3bszAGzEiBFMLpez7OxsNnPmTAaAjR49msv3448/si+//JK3/pYtW7J58+axefPmsePHjzPGGHv37h1TU1Pj8ujr63PLUJg1axaXfvnyZcYKvhfFfFOmTBHOwuRyOfPw8OCtf+TIkczW1pZ17dqVt8769eszmUwmXESZ9e7dm1vmqFGjhMklmjp1Kjfv+PHjhcmMMcauX7/O+zzCV/v27VlERIRwthK9fv2atwxTU1PWunVrNnjwYDZz5kymr6/Ppfn4+LC8vDzhIsq1f5Q/LwC2fPlyXvqRI0d46S1atGDOzs6sc+fOrE6dOry0PXv2cPNdvnyZzZs3j1lYWPDyzJkzhyt72dnZjJWhLCtr27Ytt8wtW7YIkwkhhBBCCCGEkE+mSga8PD09eRfgANi7d++E2QqJjIwsNF/btm259IsXL/LSlANeubm5vLSiAl7nz59nIpGIAWCzZs3ipl+5coWb788//2RMEHybMWOG0lIYGzlyJBs4cCBvmr+/P2/98+bN46UrmJubc3mEAa+jR49yaS4uLry0jh07cmk7d+7kpbEigoze3t4sMzOTMcbYqFGjeGk3btwQzl5mNjY2DABTV1dnQUFBwuQSWVtbc9uyZMkSYTJjjLGJEyfytrmoV40aNdjNmzeFs5ZIV1eXt4xff/2VSzt48CAvbfXq1bx5y7t/hIFaYcDr6dOnvHSRSMT8/PwYKyJI16lTJ968jLFCwc7c3FxeelnLsoJyuenWrZswmRBCCCGEEEII+WSq5C2NycnJwknQ1dUVTipER0dHOIk31pCGhgYvTVlJaQo//vgjN45Vy5Ytuel169bl/t+0aRMA8AZhX7t2LZYuXcrNu2zZMsjlci69LLS0tISTOPPnz+f+b9CgAS/N2dmZ+3/+/PmF1i/8/CtXruRuFXR1deWlRUdH896X1f379xEbGwsAmDNnDjw8PIRZivX27Vu8ffuWe1/c2F9xcXHw8vKCk5NTseNeZWVloW/fvkhMTBQmFUv5+zc0NMS8efO49wMGDODdXim8VbC8+6ekfY4i9l2XLl24W3Lt7e2hp6fHpZVn35W3LCs/QbQ8t5ESQgghhBBCCCHlVSUDXsoX6ApisVg4qZCiBlUvalnl8fr1azx8+JB7X7t2be5/5SBHVFQUYmNjYWtry01jjGH+/Pno3r074uPjYWlpWepBwksrKCiIN76WMBBUs2ZN7v+4uDjcunWLly6kHGDU1NTkpVX0qXurV68GALRp0waLFy8WJpcoLCyM997Q0JD3XuHEiRO4d+8ewsLCkJ2djaCgIPz888+wsLDg5UtJScHKlSt500pLV1eXF4zS0NDgBQejoqK47f3Y+6ckwuCw8v4rz74rb1lW/kypqamIi4vjpRNCCCGEEEIIIZ9KlQx4WVtbCycVGhC+KEU9ia6oZZXHo0ePeO8nTZqEli1bomXLlujevTsvLSoqCq1bt+b12gGACxcuwN3dHefPn+cFzD6GBw8e8N7r6+vz3guDVk+fPuW9LwuZTCacVGo3b97EwYMHYW9vDz8/v0Lb9SEpKSm89x/q/QQA6urq8PDwwKJFixAZGQlfX19e+pkzZ3jvK8LKyor3/tWrV0Al75+SlGfflbcsC/eNcN8RQgghhBBCCCGfSpUMeHl7ewsnISYmRjipEOWnHCq0adNGOKlchLdZTp8+HQcPHsTBgwfh5+eH169fc6+mTZtCQ0MDe/bs4Z5Up5CUlIRevXrBz8+PN72ihNsnDKAIbztLSEjgvS+LonrSlUZmZiZGjx4NMzMzXLhwAZaWlsIsHyTs6aemVrYirK+vj9WrV2Pp0qXctI/Z80jYu0oR5KnM/VOS8uy78pZldXV13vvs7Gzee0IIIYQQQggh5FMpW7SgkgwaNEg4Cc+fPxdOKkR5rCEUXHAPGDCAN628hAGKrKws2NvbF/lSBD28vLxw9+5duLu78+aVyWQYN24c0tPTedMrQthjSCQS8d4Le/YIAzOVYcqUKUhOTsbZs2dRv359XlpoaGipevEJgy5SqZT3vrR++OEH7vbDWrVqCZPLTfg9K7a3OuyfkpSnLOfn5/PeK9/iSAghhBBCCCGEfEpVMuDl7u6Obt268aYFBATw3hfl0qVLvPdDhw6Fvb09976svYGU1alTh/f+/PnzvPdCGRkZSExMhJOTE+7du4cZM2YUSlf+TMIASFm5uLjw3guDR3l5ebz3wlvUPrVNmzbh5MmTuHDhApo2bcpLy8vLw+jRowvdAlcU4S2Dws9VFr179wYKgjkfi/B7V5Sbqrx/PlT2ylqWFYS98YTjpxFCCCGEEEIIIZ9K+SNAn9imTZt4g8GfPXu2xDGAUlJScPbsWe69hYUFVq1axcsj7DWj3KtG2MNGqHnz5rynQF64cKHQuF4A8M8//yA2NhZRUVHcU/m0tbWxZs0a/Pvvv7wn6imPOSa8/ausWrduzRsIXfhdpaWlcf/r6uqiffv2vPRP6c6dO/D19YWLiwu2b9+OSZMmca+RI0fC2dkZEomkVAEvNzc33lMXU1NTeekK2dnZOH/+PO+JjkKK8vDtt98Kk8pN+dZbMzMzrkdUVd4/Hyp7ZS3LCsr7xt7eHiYmJrx0QgghhBBCCCHkU6myAa+6devC39+fC27k5OTgl19+EWbjzJ8/H7m5uUDBUxNPnDgBc3NzXh7hAPbKYzfNmzePlyYc68jAwABff/01L33QoEEIDw/npp07dw5+fn6wsbGBgYEB9uzZg6CgIC79q6++4i1DuaeT8HYvRQDh/fv3OH36NDddebuUg3Ta2tqYPXs29z4+Pp77HwBiY2O5/ydNmlTo1kDhGFLK70tK+5C4uDgMGDAA+fn5CAwMxObNm3mvvXv34s2bN2jSpIlw1iJpaWmhRYsW3Pvixt/q0aMHunfvDjs7O0ydOrVQjyq5XI7Tp09jxowZpV63UHp6OiIjI7n3ycnJvCcxjh49mutVWJH9IyyLwuCscH+U9F6YhhLK3u7du8EYK3NZVlAeU8/Hx4eXRgghhBBCCCGEfEpVNuAFAJ07d8bly5e528LWrVuHlStX8gIAcrkcf/zxB/7++2+goCfJ5cuXeUERhdq1a6N58+bc+7Nnz2LSpEno0aMH72IeBYOGCwMNS5cuhZ2dHfc+IiICrq6uaNeuHZo2bYrRo0dj3bp1QEGATCwWo0+fPrwn9CnGOurZsyfc3Ny46c2bN4etrS33ft++ffjzzz8xcOBANGvWDAAgkUh4PYPy8vKQlJTEvZ8zZw7XM+jOnTuIiooCCoJCN2/eBAC0aNECixcv5uZReP/+Pe+9crBCGFQq7YDqeXl5+OKLLwrNX5SyBJ2GDx/O/a8ccFQWHR0NFASHNm7cCFdXV+zbtw+pqamIiorCqFGj0LBhQ6xcuVI4a6nJZDJ0794dly5dQnJyMmbNmsUFo+rUqYMff/yRl7+8+0f4MAbhAxxK2ncZGRm8YF9aWlqhWw0HDhzIez9hwgTMnDkT4eHhEIlEZS7LChEREdz/yvuMEEIIIYQQQgj55Fg1kJWVxZYvX86cnJwYAGZvb88GDx7MBg8ezGxtbRkAVqdOHbZ48WKWnp4unJ3n1atXzMHBgQFgAJhIJGIjRoxgaWlp3DTFq2vXriw2NpY3f0REBGvbtm2hvO3bt2dhYWFcvry8PGZgYMDat2/PdHV1Wbt27Vjr1q0ZANatWzeWlJTEWy5jjIWEhDBPT09ume7u7uzhw4eMMcZu377NWrVqVWi9zZs3ZxcuXOCWkZWVxSZOnMg0NDRY7dq12bhx45i9vT3T0NBgY8eOZWlpaUprZEwsFrNBgwYVWm7dunXZtWvX2Pr165m2tjYvzcDAgP3++++85RRl3LhxhZZb3CswMFA4e7EyMjKYmZkZA8BsbGyEyYwxxgIDA5mjo2Oh9QBgrVu3ZseOHRPOUio1a9bklmNpaclOnjzJTE1Necv39vZmr1+/Fs7KWDn2z5w5c5i+vj5v+bq6umzixImMMcaOHTvG7OzsCn3Gb775hsXFxTEvL69CaW3atGGhoaG89SxYsIDbz9ra2mzu3LlMJpMxVs6ynJeXx7S0tBgAVr9+fW5ZhBBCCCGEEEJIZRAxYTemKu7s2bPo2bMnb9rQoUOxf/9+3rSSiMViBAQEIDMzE15eXnB0dBRm+aAXL17g6dOnEIlEcHFxKTQoOQA8fvwYjRs3Rnp6Om7duoW0tDS4ubkV2RtGWVxcHEQiUYWeHpiSkoLAwEAkJyfD1NQULVu2hKmpqTBbtbVhwwZu7K179+4VOfA8YwyPHz/Gy5cvIZFIUKtWLTg7O8PGxkaYtdSMjIy4nk2WlpZ49+4dcnNzcfXqVaSlpaFBgwal6q1WFfdPbm4u4uPjUbt2bd54dShHWT59+jT3UIATJ06gT58+wiyEEEIIIYQQQsgnU+0CXgDQr18/nDhxgnuvpaWFFy9eoG7durx8RHXJZDJ06tQJ165dw7Rp07B27Vphlk+iqIAXKWzIkCE4dOgQhgwZggMHDgiTCSGEEEIIIYSQT6paBrwSExPh4+ODly9fctPq1auHy5cv88bBIqotISEBXl5eSExMxPPnzysl4EkBrw8LCgpC06ZN4ebmhlu3bkFfX1+YhRBCCCGEEEII+aSqZcALBcGO4cOHIyAggJump6eHMWPGoEOHDtxA90Xd6kZUR1RUFDp16oQ6derg3Llz3FM9PxUDAwNuEHgLC4tSD+D/uUhNTUW7du2go6ODc+fOwcTERJiFEEIIIYQQQgj55KptwEvh7Nmz2LFjB65du4bExESg4BbH+vXro2vXrli1apVwFqJi0tLSMH36dLx+/Rr//PMP70maH1NGRgaMjIy4p3dqaWkhLS0Nurq6wqyfpWfPnmHIkCHo1q0blixZUmgcMEIIIYQQQgghpLJU+4CXspycHMhkMhgYGAiTyGcgODgYiYmJ6NSpkzCpwq5evYq5c+fiwYMHvOk+Pj4YMGAAfH19edM/R/7+/vD09KyUW0sJIYQQQgghhJCSqFTAixBCCCGEEEIIIYQQNeEEQgghhBBCCCGEEEKqMwp4EUIIIYQQQgghhBCVQgEvQgghhBBCCCGEEKJSKOBFCCGEEEIIIYQQQlQKBbwIIYQQQgghhBBCiEqhgBchhBBCCCGEEEIIUSkU8CKEEEIIIYQQQgghKoUCXoQQQgghhBBCCCFEpVDAixBCCCGEEEIIIYSoFAp4EUIIIYQQQgghhBCVQgEvQgghhBBCCCGEEKJSKOBFCCGEEEIIIYQQQlQKBbwIIYQQQgghhBBCiEqhgBchhBBCCCGEEEIIUSkU8CKEEEIIIYQQQgghKoUCXoQQQgghhBBCCCFEpVDAixBCCCGEEEIIIYSoFAp4EUIIIYQQQgghhBCVQgEvQgghhBBCCCGEEKJSKOBFCCGEEEIIIYQQQlQKBbwIIYQQQgghhBBCiEqhgBchhBBCCCGEEEIIUSkU8CKEEEIIIYQQQgghKoUCXoQQQgghhBBCCCFEpVDAixBCCCGEEEIIIYSoFAp4EUIIIYQQQgghhBCVQgEvQgghhBBCCCGEEKJSKOBFCCGEEEIIIYQQQlQKBbwIIYQQQgghhBBCiEqhgBchhBBCCCGEEEIIUSkU8CKEEEIIIYQQQgghKoUCXoQQQgghhBBCCCFEpVDAixBCCCGEEEIIIYSoFAp4EUIIIYQQQgghhBCVQgEvQgghhBBCCCGEEKJSKOBFCCGEEEIIIYQQQlQKBbwIIYQQQgghhBBCiEqptgEvxphw0mchLi4OK1euRFhYmDDpk5NIJPDz88Ply5eFSZ+dz6H8/ZdljZCySkpKwtq1axEXFydMIoSUU0REBP7880/I5XJhEiGfvaNHj2LXrl3lOj4qMm9VQnUEIaSqE7FqeOW+adMmxMfH49dffxUmqbzu3bvj/PnzaNCgAV68eCFM/iRiY2OxZcsWbN26Fe/evcP8+fOxZMkSYbaPQiqVYt68ecjOzuZNHz16NFq2bMmb9iHHjh3DuXPnuPcikQiOjo6YM2cOL5+CVCrF4cOH4efnh/v37yM+Ph76+vqwtbVFhw4dMHr0aDRp0gTnzp3Dixcv4Ovri4CAAJw+fRq5ubnCxQEANDQ0oKOjAxMTE1hbW8Pd3R1ubm7Q0NAQZq1y/ouyRkhZBQYGYuPGjfDz84NYLMb9+/fRrFkzYbYKO3fuHE6ePAmZTMZNMzMzK3NdKBaLMXv2bEilUm6anp4eRowYgby8PBw+fLhQ/QcAampqMDQ0xB9//CFM4lHlOolUDrlcjtOnT2Pjxo04f/48GGOQSCRURghRcufOHXh7ewMADhw4gCFDhgizFKsi81YFlVVHVMY1ga+vL37++WekpqYW+jFbJBJBU1MTRkZGcHBwQNu2beHg4MDLQ20uIdUAq4ZcXFyYlZUVy8/PFyapvFGjRjEArF27dsKkT+bgwYNs06ZNTF1dnQFg8+fPF2b56J48ecLs7OwYAAaAdezYUZilRFKplDd/9+7dWUpKijAb59KlS8zR0ZFpaWmxMWPGsNu3b7O0tDQml8tZTEwM27x5M6tbty5zcXFhenp67Oeff+bmlclkbNeuXdy6dHV1Wa9evdjcuXPZ0qVL2Xfffcf69OnD9PX1GQBmamrKpk+fzt69e8fbhqrmvyhrhJRFXl4e+/vvv9n48eO54+/+/fvCbB9NdnY2+/HHH7l1AWDXr18XZivR1q1buXk1NDTYqVOnmFwu59Llcjk7efIkU1NT4/LNnz+fpaWl8ZZTElWtk0jliIyMZDt37mRdunThypBEIhFmI+SzFhYWxrS0tJhIJGKXL18WJpeoIvNWBZVdR1TGNUFcXBxr2rQpl6d58+Zs+vTpbPr06czLy4sBYCKRiA0cOJDFx8fz5qU2l5CqrdoFvAICArgK5cCBA8JklbBjx45ig3kSiYTdvHmTZWdnC5M+OTc3N4ZKCngxxtiCBQu4fY0yXsju37+fN6+/v78wC2fjxo1MTU2NmZiYsAcPHgiTOVlZWaxHjx4MAJs2bZowmZmamjIArEWLFsIkxhhjmZmZbMGCBUxDQ4MBYGZmZuzq1avCbFXGf1nWPpbMzEy2b98+4WSiYl69elWueqI88vLyuGMYAOvdu7cwS7Hkcjlzdnbm5vXw8BBm4Sjy6evr8wJiZaFqdRKpXEeOHOHK6qe8mC2Nks6LPjZqN0hpvX79mj179kw4mVNSuf3QvNVBZdYRlXFNsGLFCi7PxYsXeWn79u3jfoiqV69ekcEqanMJqZqq3Rhe69at4/7fsGEDL00ViMVi/PTTT7zbZpRpaGigdevW0NPTEyZ9coaGhsJJn5SlpSXMzMygrq4OAFi2bJkwS7FWrFgBKysr7r2RkREvXeHo0aOYOnUq5HI5Dh48iKZNmwqzcPT19eHn5wcnJyekpqYKk2FiYiKcxFOjRg38+uuvOHPmDHR0dJCUlITevXsjKChImLVK+C/L2seya9cuBAcHCycTFWNgYCCc9Mloa2vDyMiIq19Onz6NZ8+eCbMV6eTJk3jz5g1XlxZXLwGAsbExUFCviEQiYXKpqFqdRCpXZbf5xfnQedHHRu0GKS17e3u4uLgIJwOlKLclzVtdVGYdURnXBIp2tyjDhg3DxIkTAQDh4eH46aefhFmozSWkiqpWAa+oqCicPHkSPj4+AICbN2/iyZMnwmzV2vLly6vsoMuVfb+5uro6rK2t8eWXXwIFwamIiAhhtkIuX76Mp0+fYtKkScIknuTkZEyYMAGMMfTp0wddunQRZilEX18ff/75Z5EBLzW10h1OXbp0wdq1awEAWVlZGDFiRLEnRKT8kpKSyjy+EqmeFCfAlUVdXR3ffvstRCIRGGNYvny5MEuRVqxYgTFjxpQqQKeoT0pbrxSltPNSnUSKUtltfnEq87yI2g3ysVRmuf2vVGYd8amvCVCKNnPcuHHc/wcOHCg05teH5legNpeQylW6I7OK2LBhA1q0aIHNmzdz0zZu3MjLU52dOHECixYtEk7+7M2dOxcAIJPJsGLFCmFyIcuXL8ewYcNgbW0tTOJZtWoVkpOTAQAjRowQJherX79+Ff5Va/z48fDw8AAAhISE4MCBA8IspAJyc3MxcOBAJCQkCJMI+ShcXV3Ro0cPAMD+/fsRGxsrzMJz9+5d3Lp1C7NmzRImVQlUJ5GqqDLPi6jdIB9LZZbbz82nuiYojYYNG3L/Z2dn4/3797z0sqA2l5DKU20CXjk5Odi+fTumT58OFxcXdOjQAQCwb98+pKWlCbOXSkREBL7//nt07doVAPD+/XtMmTIF9erVQ4MGDTBjxgwuICIUHR2Nb7/9Fj4+PnBycoKLiwtGjBiBe/fuCbNCIpHgyJEj6NKlCxYuXAgAWL16NZycnNCpUyfExMTgzz//xIABA7gnd82dOxe+vr6YN28etxzGGAICAjBw4EB8/fXX3HSUYh3x8fG8/CVJSkrCDz/8gMaNG6N+/fpo0qQJNmzYUOiXjGvXrmHWrFnw9fWFr69voe69ixcv5tJ8fX1x584dXnppeXl5oV27dkDBrQYlNTBPnz7F+fPni30So4JcLsf27duBgl+NOnfuLMxSLJFIhMWLFwsnl5nyr027du3ipX3I6dOn0bFjR3h6esLT0xMTJ07EL7/8wvU0qei+Ka6srV+/njefr68v5s6di5SUFC7Ps2fPMHv2bC5d8SsWCr73AwcOoEePHmjWrBns7e3h4+OD5cuXQywWc/kUIiIiMG/ePNjZ2UEsFoMxhq1bt6JFixawt7fH8OHDC5WHkJAQtGnTBteuXQMAXLp0iduWK1eu8PIWpbz1QmRkJH744QfY29sjOzsb4eHh6NWrFxwcHIq8/frUqVPo378/nJ2dUbduXXTr1g07duwo8lc+iUSCw4cPo2vXrjh27BhQ8OtmmzZtuKeIHj9+XDgbT1nWBwCpqamYMWMGPD094ebmhm7dumHJkiXo2LGjMCsAID8/H2vXrkWbNm1Qu3Zt2NvbY8iQIXj8+DEvn0wmK1SGinudOXOGN29FPHnyBGPGjIGTkxMsLS3h5eWFFStWFFnuSktx4i2RSLB69WphMs/y5cvx5ZdfwtHRUZhUZVSkTkJBu+jr6wsPDw/Y2trCx8cHf/zxR7FPr0IZy2Vp27myHItlKRelPSYq+3iVSCTw8/ND586dubYpPDwco0aNgoODA5o0aYL9+/cLZ+M5deoUevfujUaNGsHe3h5Dhw5FeHi4MBtPWc6DylqXSySSUp0XlUZp9nFF2o358+fz6q2bN29yaffv38fMmTO5tF9++YU3b0X3XWnr3Q+pjHYvPj4eP//8M1q2bIk6derAw8MD06ZNw8uXL3n5FMq7TQplXR/KcIwDQEJCAv744w84Oztzd5uUttwWNW9RKrseKEl56oiPVT6VfYprgtJSrjMUT06uiIq0uT///DNsbW2xZs0aYRIhREg4qFdVtXnzZmZtbc0Ninj48GFuYMHVq1cLs5fo/v37rGfPnkwkEjEAzNHRkcXExDAHBwfeoIaKgQnfv3/Pm//ixYtMR0eH9ezZk6WnpzOZTMYOHTrE1NXVmYaGBrt9+zaX96+//uItd/bs2eyXX35hmpqa3LRFixaxTZs2sTlz5nDT1q1bxzZt2sS2bdvGWMHAkB4eHlx6r169yrSO3377jctfkqCgIGZpacn69evHDch49epVVrt2be77Uh60PjMzk3tKi6mpqdKS/vfUklOnTnHbsHXrVl76h2zatIkb1Pn06dPcckoaNH/kyJGsZ8+ejAmehnblyhVevocPH3JpDRs25KWVV4MGDRhKGKxSKDQ0lNsGHR2dUg/4uWfPHmZra8tCQkIYY4zl5OSwn376iQFgCxcu5PKVd9+UVNby8vLY0qVLubRmzZqxvLw8Ll0hNTWVGRoasokTJ3IDtkqlUtatWzemqanJzpw5wxhjLCEhgXXo0KHQet68ecP69+/Pe1JdcnIy69mzJ7O1tWWenp7cU0O9vb25+VhBWdm0aRM36He3bt3Ypk2b2KZNm1hQUBAvr7Ly1guvX79mX375JW9bX7x4wezt7bn32tra3MDjOTk5bPDgwczOzo5duXKFSaVSFhERwfr168d9ntTUVG67fv75Z2ZlZcUta+/evey3334rtE0A2MqVK7n5FMq6PsU8bm5u7LvvvuP2371797jvVCg+Pp55enqyCRMmsBcvXrC3b9+y77//nolEIqapqcn8/Py4vFlZWQwAGzx4MFu9ejW3bxSv2rVrMwCsRo0aLCwsjLee4iQmJnLfQVED2W7YsIHZ29szf39/lpiYyK5cucIdr61bt2Y5OTnCWUpkaWnJDXqreHpTjRo1Cn2PCuHh4UxNTY3du3ePMcaYtbU1wweegNq6dWsGgNnZ2QmTSq2y6iRW0CYbGhqy9evXs8zMTJaSksKGDh3KUFDHJiYm8vKXtVyWtp0ry7FYlnJR2mOiso/XdevW8b6XefPmsZMnTzIzMzPWtGlTZmFhwaWdO3eOty5W8CCFyZMnMwMDA3b48GEml8tZWloamzJlClcXoogBqUt7HlTeujwhIeGD50WlUdp9XN52Q+Hs2bPc97Vu3TpeWlJSEtcWW1tbc9Mruu/KUu8Wp7LavUuXLjETExPm6+vLEhMTmVgsZvv27WOGhoZMW1ub7d69u8LbpKws61Mo7TGelZXFRo0axXR1dbntULQ7Hyq3Jc2rrLLrgZKUt474GOVT2ae8JlDYuXMnl0c4aD1jjB09epRL9/HxESZXWpubn5/PfffGxsbCZEKIQOErlyrKzc2NLVmyhHsvlUqZjY0NA8Dq169fpqdY5ebmMolEwp2MOzg4sJ49e7K//vqLxcbGskePHnEX4QDYoEGDePM7OjoyAOzUqVO86b1792YA2MiRI7lp+fn5LCsri7uIa9u2LZs2bRrLyspis2bNYk2aNGHBwcGMMcZu3LjBrTM3N1dpyf9bjlwuZ97e3gyC4EBZ1lGSxMREZmVlxdzd3Qs9VebSpUvctgkbF8WjeIVBFQVFQ1uRgJdcLmeNGjXiKvfMzExhdhYbG8s0NTW5hqykxk25UWvbti0vrbzK2tBJJBJuGwCwyMhIYZZCZDIZs7KyYvPmzRMmscGDB/MCXqyc+6aksqageFqlMNikEBMTw0xNTVlGRgY3be/evQwFQTJlDx48KPQdSKVSJpPJ2MqVK7m0gQMHcidbTBD0Vg4yK3Tq1Imh4MSvNMpbL0ilUiaXy9nq1au5tAEDBrDQ0FB2/fp15u3tzWbOnMmtZ8KECUwkErGHDx8qrf1/5aF58+YMBYEQ5QDZs2fPuGWPGTOGdejQgd29e5fFxcWxjRs3Mm1tbQaAaWhoFDrWy7o+VvDkUgCFAkHPnj1jampqvGkymYz5+Piwr7/+mjedMca++eYbhoInDSYkJDDGGEtOTi623KxZs4b7nGV5Cm9JAa9z584xHR0dLkCsEBERwT0pae7cuby0D1EOeP3777/cuov7YWHy5Mm84FZVDXiVp05iBT+KaGhosN9//503/fnz59yyZs2axUsra7ksTTsXFBRU6mOxrOWitMdEZR+v+fn5LCcnh1laWjIArFWrVmz48OHc8Zabm8sFZbt27cpbJmOMLVmyhAFgBw8eFCaxtm3bcp9DeCFW2vOgitblJZ0XfUhZ9zErR7uhTBHsEQa8mFL5UQ54VWTflbXeLU5ltHvh4eFMT0+P9e3bV7B2xk6cOMEAMDU1NXbhwgXGKrBNCmVdn0Jpj3FWsO/Onj3LbYOw3Smp3H5oXvYf1AMlKU8d8bHKp7JPeU2gUFLAKzU1lQt+qqurF/l0xcpqcxljbODAgQwAmzJlijCJECJQLQJeV65cYdra2oV+xVm8eDFXSZw/f56XVhqKhlpbW5sFBATw0nJyclj9+vUZChrG169fc2l6enoMALt27Rpvnu+++44BYF26dOFNZ4yxzp07MwCsQYMGhYJJCiU1kArjxo1jKCYIUZp1lGTs2LEMQLGP47azs2MoIuB14MABhhKCKor5KhLwYkrBGwBs1apVvLyMMTZnzhzm5eXFvS+pcVu2bBmX9uWXX/LSyqusDR1jjBkaGnLbUZpfkePj4xkKLvaEQd7bt28XCnhVZN+UVNbOnTvHADCRSMRevnwpTGa//PJLoQtcxXfeoUMH3vScnBzuO7h16xYvTTnQKvx+5HI5Mzc3ZyjmAqO8Fy7lrRdu3rzJbWtRvx4zxtidO3cYAF45VXbt2jVuGXv27OGl1axZkwFgPXr0YGKxmJe2bds2br4xY8Zw08u7vokTJzIA7NKlS7z8jLFCJ8uKx5ILT8wZY+zkyZPc8hU9cd+9e8eWLl0qzMru37/PtLS0GAA2efJkYXKJSgp4ubu7sz59+vCmKTRt2pSh4IRZJpMJk4ulHPCSyWTcxb+FhUWhujsxMZHp6uqy06dPc9OqasCLlaNOksvlzMXFhenq6ha66JDJZFyvA19fX256ecslK2U7V5pjsazloizHBKvk45Uxxtq0acMAsP79+xdqG9avX89QRDsQERHBtLS0WP369XnTFXbs2MGtTxjwKut5UHnr8tKcFxWnrPuYVaDdYErHm/AzMKULaeWAl0J59l1Z690P+ZTtnuIHMuU6UJkieFW/fn3evijvNpV3fWU9xmNjY7nPLmx3PlRuS5q3suuBkpS3jvjY5ZN94msCBeWA19SpU9nJkyfZ9evX2datW7l23tDQsNjeaZXR5ioTtrmEkKJVizG81q5di6FDh8Lc3Jw3fcKECdDS0gIKBrQvK8XTRWxsbNCpUydemq6uLn788UegYNyhS5cucWmHDh3C6tWruadFouA+9cTERKDgPnohxXb27t0bmpqawuRS09XVFU7iVGQdiYmJ2Lt3LwAU+i4U7O3thZMqlfKgk6tXr+Z9zxkZGdiyZQs3ps6HiEQi7n/h2GSVKS8vj/u/NGMBmJiYQENDA9evX8eAAQN4A2W3bNkSX331FS9/RZRU1rp27QonJycwxgodezKZDDt27Cj0RJxx48bh119/LTTW0du3b7n/hceOjo4O93+DBg14aSKRiCsP6enpvLSKKG+9oDj+AHBPERLaunUrAKBZs2bCJABA27ZtUadOHQDAtm3beGmK7Ro2bBhvXQDwzTffoG7dugCAixcvctPLuz5LS0sAwMCBA7F//37eMbJy5UrufwDw8/MDAKxZswajR4/mvTZt2sTlCw4OBgqW/cMPP3DTASAtLQ2DBg1Cfn4+mjRpUqiMlFdYWBiCg4MRFRVVaNtGjx7NjfmUmpr6wUHni6OmpsYNRP/+/Xvs3r2bl75+/Xo4ODhwA9xXdWWtk+7cuYPnz5/D09MTNWrU4KWpqakhKCgI9+7d4z3JsrzlEqVs5z50LJanXJTlmEAlH69QqiudnJx47RsK6jIUUU+uW7cO+fn5heo5BcU2FqWs50GVXZeXZx//V8qz78pa737Ip2r3YmJicP78eaCEcj18+HAAwKtXr7gx1FDObarI+sp6jJd0jvQhJc1b2fVAScpbR3zs8lmUj3lNUBQDAwPcv38fO3fuxKVLl9ClSxds27YN0dHRGDhwoDB7uZW1zVUmbHMJIUWr8gGv6OhonDhxAs2aNcPNmzd5r5cvX6J58+ZAwWCKb968Ec5eIb179+b+V370be/eveHr6ws1NTVERERg9uzZaNq0KTcIY1EBFGHDU14lPfK2IusICAhAfn4+tLS0uEa/qtHU1MSMGTOAgpMa5SeabN68GWZmZkWecBVFOXha0oCXn1Jqairy8/OBgoHzS/O9a2lpYcKECQAAf39/1K9fHzNmzEBcXBxEIhFcXV2Fs5Tbh8ra1KlTgYKBNrOzs7m0U6dOoUGDBqhfv77SHICxsTEWLFgADw8PSKVSHDx4EB07dsS0adO4PMJjp6RtAAB9fX2giIurT6m4eqE0x5/i4tbExESYxGnRogWA/z3Vr7REIhF69uwJAIiNjeXKVXnXN2bMGOjr6yM1NRVff/01mjRpgqNHj4IxhkaNGinNDTx69AgAMGfOnEKvP//8E0+fPsXTp09LfGLVN998g9evX6NmzZrw8/ODtra2MEu5KLatdevWhbZtzpw5OH/+PLd9pTn+ijNmzBiYmZkBAFasWAG5XA4UPPVtw4YNmDNnTqnKx3+tPHWS4oEXpqamwiSg4KLBy8uL9/j68pZLlPI4+1Ce8pSLshwTH/Kxj1d8oK5U1JOKQbQVFA+FUFw8l0VZz4NK2j58grq8PPv4v1LSd1PcvvsY9W5ZlLfdCwgI4OrD4sp1y5Ytuf+F5bokRW1TRdZX1mO8pP32ISXNW9n1QEnKW0dURvn8mNcERenUqRMWLVqEHTt24MCBA9i0aRPGjh2LmjVrCrOWW3naXEJI2RVfM1YRGzduhImJCfbu3Vuo0pwzZw53oS2Xy/H3338LZ68QMzMzrsERPrEpOjoaw4YNQ58+fdCsWTM8evQI/fr14+WpTl68eAEo/aJWVU2cOJH7BWT58uVgjEEikWDt2rWYPXs21NXVhbMUqXHjxtz/UVFRvLTKonyi0rRpU+jp6fHSi7NmzRrMnTsX6urqyMvLw9q1a1GvXj0sXryYO9GrDKNHj0aNGjWQnp7O9Q4EgL///htTpkzh5VW2a9cuODk54dq1a9i6dSvOnj0rzFKllVQvlEQqlXK92Uq6qLOzswMKll3S0+2ElHtNiMXiCq3P3t4eV69ehbOzMwAgKCgIAwYMgLe3N54+fcqbPykpCQBQu3ZtNGrUqNiXra0tbz6Fv/76C/7+/gCAnTt3wsHBQZil3BTbpq6uXmh7hK+KBNl0dXXx7bffAgVPxTpy5AhQUNa1tbULPVW3qipPnaTo0ZOZmSlMKlJFyuXHUp5yUZZjojQ+5vFaHjKZjHvCWnnb/ap8HlSefVydVLTeLavytnvKP0QXV64VZRoFAYDSKmqbKrK+j32Ml0dl1wMlqUgdUVnl82NdE/xXytPmEkLKrkoHvPLy8rBt2zasW7cOd+7cKfL18OFDODk5AQVde8vSEJeGgYEBIPil5dy5c/Dw8EB+fj4ePXqEoUOHFntrRXWhaDBzcnI+WeP5MRgaGmLixIlAwWPEz5w5gwMHDiAvLw9jxowRZi9Wo0aNuO7db9++rbSTGWWKi3wAGDRoEC+tJJqamli2bBmCg4PRv39/oGD//fzzzxg7dqww+ydjaGiIESNGAEq3FEdFRSE0NBR9+vQR5P7fidkXX3yBb7/9Ftu3b8emTZvg6OgozFYtFFUvfIiamhrX66GkW2gUXdRr1qxZ4m0PQopt0tTUhIGBQYXX16xZMwQHB2P9+vWwsrICCk7O2rRpw3uMuuKE8t69e9y00rp//z6+++47AICvry9Xnj+WimxbWU2dOpU7WV22bBnkcjlWrVqFGTNmVFr7kJWVJZxUJuWpkxTBgpCQkFIF3CtaLj+G8paL0h4TpfGxj9eyEovF3P5KTk4WJn9QVT8PKu8+ri7+i89XnnZPWXHlWl9fn+spVqtWLWFyiUrapvKs72Me4+VR2fVASSpSR1RW+fxY1wT/lfK0uYSQsqvSAa99+/ZBR0cHAwYMECZxRCIR15skKSkJ//77rzBLhSh6kCl6BL158wYDBw6ETCbDzp07eeNSVGfK3WgVXZFLq6Qu1J+Cr68vN27En3/+iRUrVuDbb78tU6OvpqbGG2Pqn3/+4aV/yJUrV8r0S6RQbGws9uzZAxTcXqlosD9EIpFwPdJcXFxw9OhR3Lx5kwv67tq1Cw8ePODyf+p9o+jVEhISgmvXrmHLli0YN25ckb+qzZ49G8ePH8ecOXPQoUMHYXK1IqwXSkNNTY3bT8r7SEgxnkOTJk2ESSVSbJOnpydQwfW9fPkSKLgYnzp1KsLDwzGn4La89PR0zJ8/n8uruNVhx44d3DQhsVjMG7cDBeN2DR48GPn5+WjZsiWWLVvGS/8YFNt2//79EoPau3btqtDxjILeBooT7AcPHmDatGl4//59qY/tirp37x7Xs6w8ylsnKcZ2TE5OxpUrV4TJnCVLloAxVqFy+bGUp1yU5ZgojY95vJaHnp4ed9H88OFDYXKJqsN5UHn2cUV96vZWWXnr3YooT7vXsGFD7v/iyrVYLOaCPGUt18Jtqsj6PvYxXh6VXQ+UpCJ1RGWWz49xTfBfKG+bSwgpu8prncth7dq1mDJlyge70o4ePZqr2NavXy9M/qDi7mdPSkpCUlISatasibZt2wIAjh07huzsbNjY2HC/LAkJx64oLeWxEErzS/nH1Lp1a+5/4aDLQsLvS9Gr4UM9w4TzlVft2rUxbNgwAMCNGzcQHh7OjSdVFrNmzeIG3FyzZg13W+eHhIeHY+fOnTA2NhYmlYpEIsHQoUORl5cHkUiEXbt2lXrgyfT0dCxYsIA3rXXr1rh16xYsLCwAQcDyU+8bFxcXdOzYESgYNPSff/7BuHHjhNmAggA2CuYpTnmPnaIojqfyHkvFfSdF1Qul9cUXXwAFJ9bPnj0TJgNKt9gqyrhQcdsVGhoKAOjbty83rbzrW7duHW+cFn19fSxfvhy//PILIChjiuDlkSNHuIFqhf76669CJ5+KcbtMTExw6NChQr1DHj58iBs3bvCmlVXr1q25E+GxY8ciJydHmAWpqanYunVruY9nZbNmzeKCvRs3buTdbvGpLVy4sMielaVRkTqpffv23LH2008/QSaTCbMgNDQUoaGhXL7ylsuPpTzloizHhLLKOF7LS9HuX716FdHR0cJkHuXP8SnPg4TKe15Unn2MCrYbpWlviysPZVXeevdDitu+8rZ7Xbt25bbh6NGjwmRAqUzb2tqiTZs2wuQybVNF1lfeY7wo5S23+A/qgZKUt474VOWzKB/rmqAyVaTNJYSUXZUNeJ0+fRrBwcEYNWqUMKmQmjVrcoNX3rt3D1evXhVmKVFCQgLvKRkKikra19eXq4gUv+BFREQgJiaGy5ucnIzLly8DSic7ISEhXLqiwStqPQrKFX9cXBwA4NmzZ7xuzYoGpaiLitKsozgtW7bkfinavn07AgICeOlyuRxpaWlAQc8MZYp78HNycvD8+XNuulwux8KFC/Hu3TugiPk+RCwWc4M5Cil+dYNgwGhlyre3FnWrq66uLo4cOYKaNWsiPz8fffr04X7hK05kZCTGjx9f5BN7SvO9p6SkoHv37rh58yY0NTWxbds2bvDi0jp+/Dj3hCkFMzMz7ik6yl30K7JvSipryhS9vI4fPw5vb2/uNgAhxbEjPD6VT4Zyc3MhlUoRFhYGCPZbUduhuKgq6oRYcTwpjiUA3NObSqMs9QIEJ7VFzQcAM2bM4AY8/e2334TJyM/Px+XLl9GgQQPudlGhoh7OIZFIcPz4cZiYmGDy5Mnc9PKujzFW5C+vQ4YMAQRlbNKkSdyF5ddff43ly5dzv7rn5+fjr7/+wsaNG3nd9desWQN/f3+IRCLs2bOnyAFx79+/L5xULOX9r1xOjI2Nuc91//59dOjQgXfR8vz5c/To0YP7XKVVXN3k4ODADZKrpaXFDagrpCjXRdVLCooylJGRIUwq5Ndff0V+fn6h23qKK4fKKlon2dnZcRdod+7cwciRI3nbfOnSJfTo0YOrJ1CBcolStnMfOhbLUy7Kckwoq4zjFUplqaR6EoJjRdE7XiqVYuzYsYXKtPJtTMptRHnOg8pbl5fmvKgo5dnHqGC7oWhvhXVXWFgYVqxYARQcz8IASHn2XXnq3dL42O2esbExpk+fDhTcvqV8HqKgGMdz8eLFvECRQlm2qSLrK+sxXly7g1KU25Lmrex6oCTlrSM+Rfksrt3FR7omgGB6UWXuQ0ozT0XbXIVTp05hzJgx3INjCCElYFVQeno6q1+/PtPW1mbZ2dnC5CL5+voyAAwAa9SoEUtPTxdmKWTdunXcPAsWLOClRUdHMwsLC+bt7c3y8/O56cHBwUxNTY0BYM7OzmzLli1s4cKFrGnTpmzIkCEMANPW1mbTp09nkydP5uZzc3NjAJiXlxc3TSg9PZ1paGgwAKxz585s+fLlrGfPnkwmk3F5evTowa1bLpfz5i/NOkoSFBTE9PX1GQCmo6PDFi9ezEJCQtjVq1dZjx49mImJCQPAzMzM2G+//cZOnTrFGGNMIpEwW1tbBoA5OTmxrVu3su3bt7NWrVqxnTt3Mjs7OwaAOTo6st9++43dunVLuOoijR49munq6rKsrCxhEmOMsV69ejF1dXUWEREhTGKMMTZu3Dhu/y5fvlyYzLl16xaztrZmAJiRkRH75ZdfWFxcHC9PUlISW7VqFWvevHmR63v79i1TV1dnAFj9+vXZ3bt3WWZmJmOMMbFYzIKDg9miRYuYsbExA8BatGjBbty4IVzMByUmJjIArG3btiw1NZWbLpFImKurK2vYsCETi8W86eXdNyWVNWVSqZTVqVOHAWBXr14VJnO++uorBoCpqamx6dOnsx07drAePXqwadOmMR0dHQaAdejQgfXs2ZM9ffqUMcbYtm3buH34/Plz3vLy8/OZjY0NA8C+/vprXhpjjM2dO5cBYLq6uuy3335jI0aMYH5+fsJshZSnXmCMscOHD3PzKY6Nohw7dowrKxs2bOCmy+VyNmPGDFazZk12584d3jyMMWZqasoAsFq1arGYmBhe2g8//MDU1dXZsWPHeNNZOdc3depUpqamxv7991/e9P379zMAbM+ePbzpGzZs4D47CupAe3t7pq2tzTQ0NNjFixe5vPfu3WNaWloMAPv+++95y1EIDQ1l9erVYw8ePBAmFenWrVvcug8dOsRLS01NZU5OTrzts7S0ZFZWVgwA69SpE5NKpbx5SvL69WsGgP3888/CJMYYY/fv32cA2OjRo4VJjBWUIZFIxAAwExMTlpeXJ8zC0tLSmKGhIbe9y5cvZw8ePGBPnz5lT58+ZcHBwSwwMJAdOHCA9ezZkwFg69at4y2jsuokxhiLi4vj6lAATF9fnzVv3pyrF+bNmyecpVzlkpWynSvNsVjWclHWY6Iyj1e5XM7V84MGDeKlMcbYpk2buM/46tUrXtrw4cO5NG9vb3bu3Dn2/Plztnr1alavXj0ubdCgQWzBggUsPz+/XOdB5a3LS3NeVJyy7mNWgXaDMcY2b97MADCRSMSmTp3KDh06xObOnct8fHzYqlWruG2YPHky++233xir4L4rS737IZ+y3cvNzWU+Pj4MAHNzc2Pv3r3j0sLCwpi5uTkbMmQIbx5WgW0q7/rKeozfvXuX2779+/fz0j5Ubkual/0H9UBJylNHsI9cPlklXROMHz+ey7NkyRJhcokqs83Nzc1l2traDACzs7MTJhNCBKpcwOuPP/7gTnwUlcbUqVOLDXw9fPiQDRs2jLuAUrysrKzYtGnThNl5FI2plZUV69ChA+vUqRNbvHgxmzt3LjM3N2fDhw/nKitlq1evZpqamgwFJzZDhw5lKSkp7NatW1xlN2rUKCYWi9mePXtYly5deNvWrl07tmXLFuFiGWOMrVixgltG06ZN2Zs3bxhjjF29epXX6ABgvXr1Yv7+/mVeR0nu3r1b6ATRxsaGXbhwgbVr146JRCLWo0cPdurUKd4J56VLl5iBgQE3j5GRETty5AhjjDE7OzumqanJBg0aVGJAhBUEaH766SfWp08fblnOzs5szpw5LDAwkJf36tWr7KuvvuJNk8lkbMGCBaxfv368z6CpqclGjhzJVq1axcuvkJ6ezmbPns0sLS25eczNzZmnpyerU6cOMzc3Z99//32h8nDp0iU2Y8YM7iRD+NLS0mIGBgasTp06rHXr1uz777//4HdQksTERGZoaMgMDQ2ZpaUlmzFjBvv9999Zy5YtWZs2bVh0dLRwljLvm5LKWnGWLl3KXFxchJN5YmJimKenJ7fMWrVqcRd8iuCalZUVu3btGktNTWUzZ85kZmZmXP4GDRqwefPmsezsbLZx40ZemReJRGzMmDG8E8C4uDjWsGFDhoIAbnEnOEJlrRfi4+PZ1KlTedtqZGTEpkyZwl6/fs1btsKFCxeYg4MDQ8GF++jRo5m7uztr164dCwkJEWZnTOkCum/fvszW1pbNmDGD/fHHH6xbt27M2tq62IsNVo71TZ06lVlbW3PH+5IlS9j06dOZhYUFW79+vTA7Y4yxvXv38r4DFFxcCrerQYMGXLqxsTEzNTXlvXR1dbl04YVxUX755Rfus6EgID9z5kxekCEhIYH17duXt20oOEEv7uRZ6OLFi2z69OlcYEddXZ0NGzaMLV26VJiVdezYsdD3Wlxd4ebmxubOncseP37MAgMD2axZs3gXEaV9KY794tajeH3sOkkhMjKSu8hUvPT09Niff/5ZbMC8LOWyNO1cWY/FspSLsh4TlXW8HjlyhHXv3p3bdpFIxEaPHs1OnjzJwsLCmK+vL3eBBYA1bNiQ/frrr9z8EomE+fr6cucditfo0aPZ6dOnGQrq6oULF7K3b99y85X2PCghIaHCdXlx50WlUZZ9zCrQbrCCwJ3w3KNPnz4sLS2N7dy5kwFg9erVY8uXL2fJyckV3nesDPXuh3zqdi8jI4ONHz+eaWhoMENDQzZo0CA2cOBAZmNjw5YsWVJkHVHWbVJWnvWV5Rj/4YcfmKOjI/fZzc3N2axZs3g/thdXbkszL6vkeqAk5a0j2Econ5VxTSCRSNiCBQsK1RPq6urs66+/Zr///jtvmUL/RZsrlUq5c5FWrVoJkwkhAiL2sQZaqIbWr1+PadOmwdHREeHh4Xjw4AFCQ0Ohp6eHFi1acE/xK0pycjJevHgBe3t7WFtbc9MjIyPBGKvQ0+cSExORkZEBBweHIrt3f2pyuRy3bt1CVFQUateujbZt20JTUxNnzpxBgwYNiv1siYmJuHr1KrS1tdGxY0eui/mRI0fQunXrYm91q0rkcjkePXqE6OhoJCYmQk9PD/Xr10fTpk0LjTH0X5DJZEhJSYGZmRmePXuGsLAw5OTkwNXVtcTBSz/1vklNTcWrV6/QvHlzYRKPTCZDaGgocnNz0bhxY258vry8PISEhMDV1fWjjOmgIJfLERYWVuJYM0IVqRfKgjGG+/fvIyIiAnp6enB1dUW9evWE2ThmZmZITk7G3r170atXL1y/fh0ZGRmws7NDq1atPjjWYVnWFx8fj1q1aiEtLQ0PHjxAfHw8DA0N0a5dOxgZGQmzc8RiMW7cuIH4+HhYWlqibdu2VWpA64iICDx48ACMMTRr1qzYz0/KLygoCM+ePUONGjXQtm3bD46NVpZy+amUplyU9ZiozOP1Y4iPj8fNmzchk8nQsmVL2NvbIz4+Hvfu3UPPnj2LbP8+5XmQUEXPi0qzjxXK024ou337Nl6/fg03Nze4u7sDAF69eoU3b96gU6dO5dr+knyMerey2r3ExETcuXMHGRkZsLW1RbNmzbixz4Q+xjaVZX1lPcZLo6LltrLrgZKUp47ARyqfpLC3b9/ixo0b6N69e7nLJyGfCwp4KTWmhBBSVesF5Qvo4cOHC5MJIVUIHa+kOqmK7V5V3CZCCCHVT5UdtJ4QQgghhBBCCCGEkPL4rANeiqfLFPU0E0LI56mq1gtVdbsIIYXR8Uqqk6pYXqviNhFCCKl+PuuAl+LxwO/fv+ceoU0I+bxVxXohIyMDGRkZAIA3b94IkwkhVQgdr6S6qYrtXlXcJkIIIdXPZxnwOnXqFMaOHYu//voLAJCTk4M2bdpg/vz5wqyEkM9EVawXsrKy8OOPP6JNmzbcr9xLly7FxIkTce3aNWF2Qsh/iI5XUt1UxXavKm4TIYSQ6uuzHrSeEEIIIYQQQgghhKiez7KHFyGEEEIIIYQQQghRXRTwIoQQQgghhBBCCCEqhQJehBBCCCGEEEIIIUSlUMCLEEIIIYQQQgghhKgUCngRQgghhBBCCCGEEJVCAS9CCCGEEEIIIYQQolIo4EUIIYQQQgghhBBCVAoFvAghhBBCCCGEEEKISqGAFyGEEEIIIYQQQghRKRTwIoQQQgghhBBCCCEqhQJehBBCCCGEEEIIIUSlUMCLEEIIIYQQQgghhKgUCngRQgghhBBCCCGEEJVCAS9CCCGEEEIIIYQQolIo4EUIIYQQQgghhBBCVAoFvAghhBBCCCGEEEKISqGAFyGEEEIIIYQQQghRKRTwIoQQQgghhBBCCCEqhQJehBBCCCGEEEIIIUSlUMCLEEIIIYQQQgghhKgUCngRQgghhBBCCCGEEJVCAS9CCCGEEEIIIYQQolIo4EUIIYQQQgghhBBCVAoFvAghhBBCCCGEEEKISqGAFyGEEEIIIYQQQghRKRTwIoQQQgghhBBCCCEqhQJehBBCCCGEEEIIIUSlUMCLEEIIIYQQQgghhKgUCngRQgghhBBCCCGEEJVCAS9CCCGEEEIIIYQQolIo4EUIIYQQQgghhBBCVAoFvAghhBAVc/z4cbi6ukIkEtGLXvQqxcvc3BzLly8XHkqEEBXw8uVLfPnll4WOe3rRi15Fv8zNzdG7d2/hoVQtiRhjTDiREEIIIdXXwYMHsXDhQqSmpiI/Px8aGhrCLIQQAHK5HCKRCNra2hg/fjwWLVokzEIIqeaeP38OX19fBAUFUZtISAkYY5DJZLCwsICVlRWuX78uzFLtUMCLEBXBGINIJBJOJoR8hhYuXIj169dj165daNSoEdLT04VZCCEAtLW1IZPJMGrUKJiZmeH8+fPCLISQau7mzZvo06cPpkyZgsmTJyMpKUmYhRACQCQSwdjYGOvWrcOKFSugCqGiKhXwOn78OHJzcxEaGor09HRoamoKsxBCCn6RBgBra2t4e3ujRYsWUFOjO5QJIf/j6+uLbdu2ISYmBsbGxsJkQoiAj48PcnJy8OjRI2ESIaSau3TpEjp37ozdu3dj5MiRwmRCiMD69esxbdo0Cnh9bK6urpBKpUhKSoJYLKYLeEKKoThspVIphg4dis2bN1OAmBDCmTt3LjZv3oyHDx+ifv36wmRCiIC3tzcAIDAwUJhECKnmrly5gs6dO2Pt2rWYOnWqMJkQIrBs2TLMmzePAl4fm2KAtO3bt8PHx6dM3U0Vt3IpPo7wfVkI5xW+/xCRSFTsvMppH1LUvMrvy0I4r/B9WVRkXqGyLOtDeSvy3ZaFcF7h+7IQzit8XxxtbW2oqalhxIgRSE1Nxb1796ClpSXMRgj5TFHAi5CyoYAXIaqLAl6ElA0FvD4RkUiEmjVr4vHjx6hbt64wmRAi8MUXXyA4OBgvXryggBchhEMBL0LKhgJehKguCngRUjaqFPCqcvcMamho0OC6hJSSVCqlQBchhBBCCCGEECJQ5QJehBBCCPk4FLdJE0IIIYQQ8rmhgBchhBCiolShKzohhBBCCCHlQQEvQgghhBBCCCGEEKJSKOBFCCGEEEIIIYQQQlQKBbwIIYQQQgghhBBCiEqhgBchhBBCCCGEEEIIUSkU8CKEEEIIIYQQQgghKkXEqtAjnEQiEUxNTREQEABPT09hMvnIGGP0yPpqrnfv3ggPD0dwcDC0tLSEyYSQz9TcuXOxefNmPHz4EPXr1xcmV1vK7VZ+fj4CAgKwbt06vHr1Crq6uhCLxZg+fTomTJjA1YlVta0LDw/H+fPnYW9vDy8vL+jo6ODIkSOQy+Xo3bs3zMzMoK6uLpytSE+fPsW5c+fg6emJtm3bAgD279+P9PR0dOnSBY6OjtDR0RHORpR4e3sDAAIDA4VJKkkul0NN7X+/e6empuLGjRu4evUqwsPDER8fj/z8/Cp53JDSY4xBXV0denp6sLOzg5eXF9q0aYOmTZvy8nwO+/nKlSvo3Lkz1q5di6lTpwqTiZIbN27g/PnzePfuHfr27YtevXoVaovevHmDAwcOICAgAF999RX69u2LWrVq8fIURSaT4f379zh58iS0tbXRv39/GBoaCrOVWnZ2Nv755x+kpaWhT58+cHBwoLbuI1m2bBnmzZunEk/7ph5eKqC0BTE8PBy3bt1CWFgYsrOzP4sGjhBCiOpQtFu5ubkICAiAv78/cnNzYWFhAVNTUxgZGeHevXvw8/NDQkICb56PobTtbWkkJSXh1q1bCA0NRW5uLkQiEZ48eYInT55ALpcXusAoSWpqKm7evImYmBioq6tDXV0dxsbGMDExgba29kf9DohqUFNTg1gsxs2bN7Fx40YcPnwY0dHRkEqlMDQ0hKmpKUxMTOhVjV+KOlFXVxcZGRm4d+8etm7diu3bt+P169dAQf34Mes1Uv1FREQgICAAFy9exP379/Hu3TteGZFKpXj+/DkuXryIS5cu4cmTJ0hNTeUtozgymQwZGRm4c+cOHjx4ALFYLMxSrKLKqbq6Ou7du4dLly4hISEBEolEmIUQ6uFVHcjlckgkEshkMqipqUFLS4v7VU6BMQapVAqxWAx1dXVoaWnxTpZlMhn+/vtvPHz4EO3bt0eXLl0+GIlXrJcxVuQ6K0IikUAul0NDQwNqamp0Ml5O1MOrfGQyGWQyGaRSKeRyeZGNKKmeFHWJmpoaNDQ0uIv/z42q9vACALFYjOvXr+PgwYPIzMzEr7/+CmdnZy79999/x+3btzFu3Di0adMGJiYmQMFJen5+PmQyGRhj0NTUhLa2Nte2KeoERX2gqB/U1dWho6PDK0fCZWloaEBLSwsaGhq8Zamrq3PT5HI5l19LSwuPHz/Gli1b4O7uju7du0NbWxsrV66EVCrF5MmTYW9vDx0dHTDGkJ+fz20PAG596urqYIzh4sWL2L59O9q3b48BAwbAzMwMampqhXpvyOVyblmsoPeH8nYzxrj6kTHGbbNIJIKmpia0tLRUtr3+3Hp4AcCtW7ewfv16BAcHw83NDSNGjIC7uztsbW2FWUk1JpFI8OLFC5w/fx6HDx+GRCJBv3798O2333L1o6qjHl6lt3//fvj7+0NDQwOOjo7o3Lkz2rRpw7WBGRkZOHDgAC5cuACJRAJvb2/07dsXrq6ugFL7KJfLuTZU0X5IpVK8efMG69evh56eHmbNmgVTU1OgoJwq2lWRSAQ1NTVoampCU1OTa3cYY5BIJJBKpQCArKwsLFmyBImJifj222/h6ekJfX39Its6xbJI6ahSDy8KeFUDr1+/xsmTJ3Hv3j24urpi/PjxMDU15Z10pqWl4fLly9i4cSOcnJwwadIkNGjQANra2hCLxQgPD4efnx/kcjnGjRsHGxubEgNYMpkMcXFxOHXqFN69e4cxY8bA3t5emK3cjh07huDgYHTq1Alubm4V6s76OaOAV+kpX/hFRETg6tWruHbtGiIjI5GamgqJRFLiMUGqPrlcDk1NTRgbG8PBwQHt2rVD+/bt4ejoCHxGt25AxQNe79+/x8qVK/H+/Xv06tULPXr0gL6+Ppf+4MEDnDt3Dm/fvsVXX32Fjh07AgCuXr2K3bt34/bt20hNTcXgwYOxcOFCmJmZAQBevHiBS5cuISsrC2lpaTh37hzi4uLQtm1b/Pjjj/D09OTKT0BAAPbu3Yu7d+8iOTkZ3bt3x/Tp09GkSRPIZDI8fvwYgYGBcHNzQ6dOnYCCtjwoKAjp6eno1KkTsrOzsXbtWjRr1gw2Nja4fv06Dh06hPfv36Nz586YMmUKOnXqhKysLGzbtg3+/v6Ijo4GAHTt2hVjxoxB8+bNce3aNaxduxZXr16FoaEhRo4cieHDhyMoKAhisRje3t6oW7cuNDQ0EBcXh/Xr1+PUqVOQyWRo3LgxJk6ciDZt2gAAUlJSEBwcjKCgIGRmZuLly5d48OABzMzMMHToUAwdOhTGxsYF37Rq+RwCXsp14OXLl3HgwAHExsZi6NChaNOmDYyMjFCzZk1qC1WQWCxGUlISkpKSsG/fPgQFBaFjx44YOnQo7OzshNlVDgW8Sm/37t24evUq6tevj+zsbDg5OWHIkCHQ1taGXC5HbGws/Pz88OTJExgZGaFu3bro1KkT3N3dgYL2ccuWLQgNDUVSUhIaNmyIoUOH4ssvv4SpqSkiIiKwfv166OrqYvbs2TA1NYVEIsG1a9ewevVq3L9/HxYWFrCxscGoUaPw5Zdfcj+2ZGRkwM/PD3v37kVubi66d++OsLAwGBsbY/jw4WjatCl0dHTw/v17rF27FidOnIBMJkPDhg0xYcIEdO3aVfhxSTFUKeCl/ssvv/winPhfWbRoEfT09DBy5EhYWVkJkz9bUVFROHLkCK5fvw7GGFxdXWFmZsb9IouCE+ljx47Bz88PIpGIO4FWBEFkMhksLCy4E98PXfSpqakhMTERR44cQVBQENq1a/dR90liYiIYY6hbty5MTU0p4l5O+/fvR0pKCiZPnvxZ9mIpDcUJvkgkQmJiIs6cOQM/Pz88e/YMYrEY2traqFmzJtf9X3hLAL2q18vY2Bj6+vpgjCE6OhpPnz5FVlYWrKysoKenxysTquzixYt4+PAhJk2aBBMV+gVfJpPh5cuXOHz4MGrXro0xY8YU+sHE3NwcFhYWkEqlcHZ2hqmpKYKCgnD8+HG8ePGC+z5yc3ORnp4OGxsbGBoa4sWLF9ixYwciIyNhaGgIDQ0NJCYmIiUlBUZGRqhTpw5q1qyJsLAwXLlyBeHh4VyAAABycnJQr149aGpqIjg4GBcuXICpqSkaN24MFLTld+/eRWRkJJycnKCjo4PAwEDUqlULFhYWSE9PR1hYGBhjaNy4Mby9vZGbm4tz587hwYMHyMvLg6mpKbS0tLggfYMGDZCTk4OwsDBER0fD0tIS3t7ecHJywrlz5xAZGQlHR0fUqlULsbGxOHLkCB4+fMh9T0lJSZBKpTA3N4e5uTnEYjECAgKwfv165Ofno1atWpDJZIiJiYFYLIaFhQUsLCygra2t9I2rhu3btwMAxo0bJ0xSGYp6TxE0fv36NRcgNTExga6ursrXjZ8rDQ0NGBoawsrKCg4ODoiLi8PZs2dhbGyMJk2aCLOrnKioKOzZswc9evRA8+bNhclEyaNHj5CYmAgPDw/ExsYiKysL7u7u0NfXR1ZWFl68eIGkpCSoqanBwMAANWrUQN26dWFsbIzbt2/j4sWLiImJgbGxMWrUqAGpVIp3797BxsYGdevWRUpKCh48eAAtLS14e3tDU1MTV69exaFDh5CWlgYLCwsYGxvj/fv3UFNTg7m5OWrXrs0NZXDmzBmkpaXB1tYWxsbGuHv3LvLz89GuXTvY2dnh7du38Pf3R1hYGNTU1GBkZISUlBTk5+fDyMgIxsbGdN1ZCrdu3UJAQACqUKio3KiHVzUQHByMLVu24N27d6hVqxaaN2+Obt26wcLCgstz5coV7pe6evXqoU+fPmjdujX09PTAlG6HUHQD1dfXh66uLm89MpkMubm5kBbcGpmQkIBdu3YhOjoaixYt4rqqyuVyZGdnIzc3l+tuqqOjU+gEOD8/H7m5ucjPzwdjDLq6utDX1+dus5ArDZiq6P6q2A7FPNra2tDX16dgTjGoh1fpyeVy7Ny5E/v27UNqaio6d+6Mr776Ci4uLqhRo4YwO6nGsrKy8Pz5c/j5+SEgIADGxsYYPXo0Ro4cKcyqshQ9vB49eoR69eoJk6uttLQ03L59G9u3b0eTJk3w/ffff7B9iIyMxK5duxAZGYkuXbpg1KhRyM3NxV9//YV9+/Zh/vz56NWrF0JCQvDDDz/AwsICs2fPRosWLfD8+XPs3r0b8fHxGDduHDw8PHDixAmEhobCy8sL/fv3BwBcu3YNx44dw+jRo1GnTh3cvXsXJ06cQJs2bTB06FCgYGD5q1evIikpCYMHD4ampiZWrVoFNzc39O3bF0ZGRli2bBnkcjmmTZsGS0tLXLhwAf7+/vDw8EC/fv1Qq1YtSCQS/Pbbb3jy5Al++OEHNG/eHA8ePMD69evRrVs3DBo0CFKpFGvWrEFqaioGDBgAV1dX+Pv7Y+vWrejbty/Gjh2LmjVrYs+ePTh//jxsbW0xZ84c1KhRAxs3bsTcuXPh6+uL33//HVpaWti2bRuuX7+OevXqYeTIkR+1x3dV8Tn08AKA5ORkXL58GatXr0bLli2xatUq4DP5IYD8v8jISAwfPhwuLi6YPHkyGjdurNI9+6iHV+lt374dT548QefOnXHz5k3k5eXhm2++gaenJ2JjY3H+/Hku+PXu3TsYGRmhY8eOsLKywpo1ayCTydCnTx+0bNkSKGgf//jjD/Ts2RNDhgxBeno6Nm3aBH19fcyYMQN5eXk4dOgQAgMD8dNPP8HDwwMo6Gn28OFDODg4YPLkybh//z7++ecfMMYwadIkNG7cGE+fPsXw4cORm5uLnTt3olmzZvD398fmzZsxfvx4DBs2DABw+PBhnDp1CkZGRpg5c+Zn0auxolSph5fq1mwqRDHGkJOTE2rVqoWoqCikp6cDBSco2dnZSE9Ph5qaGmxtbWFqasqNv4GCwWy3bNmCbt26wdraGh4eHti/fz83FohCQkICFi1aBHd3d7Rq1QrHjh1DTk5OoYuJxMREzJ49G9bW1mjUqBHGjBmDgIAAXh4AuH37NiZNmoT69eujTp06+OWXX7jtvnjxIlavXo0HDx4gMTERT548wYoVK7Bq1Sr4+vrC3d0d9vb2mDVrFt6+fVtoWwkpDcUxkJGRgc2bN8Pf3x916tTB1q1bMW/ePLi5uVGwSwXVqFEDbm5umDdvHrZu3Yo6derg8OHD2Lp1K7Kzs4FiBj9VRar2OVnBWByWlpYwNzcv1D4VJSsrC+np6WjcuDG8vLwAALq6unB1dYWzszMSEhLw5s0baGhowMDAAHZ2dtwYRubm5nBxcYGWlhb3Q43iByTlX4jbtWuHuXPnwsXFhWuzS/vdi0QibqwsWcHYX4pxLlu3bo2ff/4ZEydO5Mbd1NTURO3atWFoaMiN4SWVSrl5FWOWKJbNGENmZiakUiksLCzQpEkTrleat7c3LCws8ObNG7x79w7p6emoWbMmmjRpgoYNG3I/pDg4OHC9w0v7uUjVFB8fjytXrsDV1RXt27fnplOw6/NiaGiI/v37Izc3F9euXaPjmnAYY1zvLVtbW+jr6yMyMhJZWVnIzMxETEwMzM3NUadOHcgLxunKz8+HiYkJpkyZgu+//54LdgGAra0tzM3Noa2tzStnMpkMKGhnR48ejY0bN3LBLgCoX78+LCwswArG7UpJSYG6ujo6duzItdF169ZFjx49uNvyY2NjkZSUBAMDA7i4uHDL6t27Nzw9PZGdnV2mgfKJaqCAVzWgOHGuXbs29PX18fr1a+7pUyh4NGxmZiasra1hYWHB9dzS0tJCRkYGrly5gmfPnqFu3bro2bMn6tevj/Pnz3OPcQWAsLAw7N27F9HR0fDw8ECHDh2QnZ2N9+/fc7eDoeDWyX379iEjIwNdunRBp06dIBaLceHCBdy4cYOrREJCQnDv3j3o6uqid+/e6NChA96+fYt9+/bh/fv3iImJwdOnT5GYmIj8/HzExcXh/PnzePLkCczMzNC1a1dYW1sjLCwMAQEBeP/+Pfd5CSktRbl9+PAh9u3bBwsLC0yePBnNmjWDmZlZoV6ORHXo6urCzMwMzZo1w+TJk1GzZk38888/CAoKAujirlpT9EZW9Ar+kLS0NMTFxaFGjRowNzfnptvY2MDR0RGygqdGqaurw9DQELVq1eIG0dXQ0EDNmjWhrq4OiUQCIyMjeHl5wdbWFhcuXMDcuXMxefJkHDhwALVr14ampiY0NDSKvHhUU1PjAnTCdOWglSJwBYDrjb1161bMnDkTc+bMwaxZs+Dv789dLCjmlcvl3DKEAa/09HSkp6dDJBLByMiIW6+9vT03XEFeXh7y8vKgp6eHBg0awMbGhsunp6cHAwMDle4B8rlISEjA7du34ezsjFatWgmTyWfCwMAAPXv2RF5eHgIDA+mHZcJRtB9qampwcnJCnTp1EBMTg8TERCQlJeHNmzfQ19eHmZkZd42qOKeysrLCw4cPMXfuXMydOxdz5szBkiVL8ObNG14bqLweLS0t1KhRA2FhYfjjjz8wc+ZM+Pr6YtmyZXjx4gV0dXUhkUjw7t07pKWl8Yao0NfXh62tLfeDUH5+PlJSUvDo0SP8/vvv+PHHHzFnzhzMmzcPx44dQ1RUFJKSkgq1wUS10ZlLNaKnpwddXV0uQJSZmQmZTIZXr14hPz8fDRs25MauERU83eLWrVu4ePEi6tSpg5UrV3ID/UmlUhw5cgSxsbGQSqV49OgRTp8+jRYtWuDgwYPYtm0bmjVrBiidpOfm5uLRo0c4c+YMunfvjjNnzmDfvn0YN24cMjIycOrUKSQkJODdu3e4fPkyMjMzMWHCBPzzzz84e/YsevTogZcvXyIzMxPa2towNDSEtrY2NDU1wRiDWCxG7dq1MWXKFOzatQs7duyAp6cn7ty5QwEvUm5hYWG4fv06srOz8cUXX6BFixZAERecRPUo9nGLFi3Qu3dvZGRk4Pr16wgPDxdmJdWE4klPqampePfuHXJycoRZgIKT3tTUVK7HU3Z2NnJyciBRemS5mpoa1wYpAjk6OjrQ09PjejYpnhql+F8kEsHd3R3NmzdHamoqNm/ejL///htbt25FQEAAsrOzuR+JhEFV5Vv3hWlFUVNTQ3JyMv79918sW7YMa9aswZYtW7B582bcvXsXYrGYd6FRFEWaRCJBXl5eoUChSCSCtrY29PT0uN5i6urqMDAw4A1ToPxULFK9ZWZmIjIyEubm5twDG8jnR1tbG87OzpBIJIiKiqJzIsIRFfQ6lkqlqFu3LurWrYukpCREREQgPj4eEokEurq60NXV5cqNuro6ZDIZHj58iPXr12PFihXYtGkTNm3aBH9/f7x79443lA0K2jiFGzduYPXq1Vi7di02bNiA7du34/jx41zva8YY8vLykJ2djby8PO4HH2nBMDyKDheKa8q4uDgcP34cGzZswJYtW7B9+3a8efOGe2ibYn7yeaCAVzWgiJ7r6OjA0tISNjY2SExMRExMDCQSCWJiYiCXy+Ho6AgtLS2ue2lOTg7Cw8ORnJyMli1bcmN+2draok2bNnByckJ2djZSUlLACnqQKR7nCgDNmzeHh4cHdHR0oKGhgbdv3yI+Ph4ODg68p361a9cObdu2RXZ2NjIyMvD27VtERETA0dER1tbWXL4vv/wSCxYsQN26dXm3fMjlcmhoaHBPVlMMKFy7dm04ODhAQ0OjxBN6QkoSFBSEsLAw9O3bl3taH0p5wUmqN+V97OzsjJ49e+Lp06d4+vQpLx+pPmrUqME9kCUtLQ1JSUmFTlzlcjlCQ0OxadMmPHr0CMbGxrCysuJuAVTIyclBSkoKL3CkaJMUJ/HF1RMtWrTAmjVr8PDhQ7x48QJff/01/Pz88ODBA2RmZkJNTQ0aGhq89WVmZiIpKQlyubzY5UKpV5ZcLselS5dw8eJFfPvttwgMDERwcDCePHkCX19fGBoaQk1NrcSeGYrPpa+vD2NjY+6HJoXc3FykpaUhPT2d9z0qfwdEtUgkEmRnZxcad5V8ftTV1SEvGJeXEGWKazTFw5zS0tLw9OlTvH//HnXq1OE9vETRnsXHx2P79u2oXbs2zpw5gwcPHuDly5f4559/0LhxY6irq/N+OFG0j0FBQbh//z7Mzc2xY8cOREdH4+7du9i9ezfatWuH3NxcaGhowMTEBGZmZtDR0eHWqa6uDi0tLW6IgezsbJibm2P48OE4fvw4nj9/jkePHiEkJAR3797F+vXr0bRpU17bTFQfBbyqEblcDgsLC7i5uSE3NxcxMTHIzMxEVFQUcnNzYWFhAU1NTe7kVyaTQU1NDa9fv8bKlSsxdOhQjBs3DmPGjMHGjRvx8OFDvHnzBomJicjIyIBEIuGCXYwxGBkZcbcwKE7Ak5OTERgYiPnz52P8+PEYM2YMJkyYgN27d+PFixdITk5GfHw8oqKioKmpyXU5RUH3aXNzc6gVDFqv/LnU1dVRs2ZN7qIEBb8+6enplXhhQMiHhIaGIjw8HG3btoWDg4MwmXwm6tevDx8fH4SFhSEsLEyYTKoRKysreHt7IzU1FXv37i3Uy+vSpUvYvn07UlJSoKenB2NjY9SsWRPPnz/n7ftXr17hwYMH0NfXh5WV1QeDPDo6Olxv5jt37sDU1BT169dHgwYN0KBBA7x79w4SiQQaGhrIycnBixcveMMPKG7ll0qlvKcsKzDGIJPJoKWlBSMjI6ipqeHdu3d4+/YtXFxc0LJlS9jb28PCwgIZGRlITk4GCn4lV/zQpa+vDz09PW75ivMBIyMjqKurIyEhAa9eveLWGRwcjOjoaNSoUYN7Sp9inpK+C1J9KYKpdMFHoHRLNCFCjDHo6elBX18fubm52L17Ny5duoTGjRvD3NycaysU14g5OTl4+fIl9PT00KNHDzg7O8Pa2hoymQxJSUlc4EpBcX2XlJSEpKQk6OnpoUOHDrCysoKLiwuSk5ORkJDA9eyuW7cuzMzMcO/ePWRkZHDzXrp0Cbdu3QIAWFpaQk9Pj7sutra2Rr169WBvb4+QkBAcP34cqampdG35maGAVzWSX/A4VcWguJGRkXjz5g33S53yExBRUJHo6+tDKpXiwYMHOHv2LPz9/XHq1CkkJSXB2NgYOjo6YAW3E4rFYt7tHopbGBTLU3QTTUxMxJ07d3Ds2DGcOHECly5dQlJSEurWrQsDAwPk5+dDIpFAUjDo7oewgsERdXR0oKOjw02nWyjIx5CQkICkpCQ4ODjQmF2fMT09Pdjb2yMhIQGJiYnCZFKNGBgYoFu3brC3t8fdu3dx9uxZPH/+HCEhIbh//z5Onz6N6OhotGjRAo6Ojly7mZSUhIsXL+L+/fs4c+YM7t+/DwMDAzRo0AC1atXibn9UbrcUwQGZTAZ1dXXk5eUhNDQUp0+fxt69exEcHIzg4GC8fPkSrq6usLa2hrGxMQwMDCCTyfD48WNcvnwZz549w+vXr3m3YigCXIr1KW6xTE5OxpMnT7jHs1tZWSEoKAg3btzAkydPcP78ebx69Qq5ubm82zjU1dURGRmJly9fIjs7m7dsXV1dWFtbw9TUlPvOFN+DmpoaWrVqBUtLS2hqakJWMI6YcsBLeVspEKYaSnN+RlSfqGAIFEIUFG2evOAWREUP4ZCQELx58waurq7Q0NCAWCzm2gsUjKdVv359pKen49ixYwgODsb169fx4MEDJCcnQywWc9eVMqWxKs3NzWFiYoLU1FScPXsWUVFRuHbtGoKCgvD+/XtuvgYNGqBevXoIDg7GmTNn8OzZM9y9excvXrzgxuWysLBAnTp1oKGhgYCAANy6dQuPHj3C1q1bsWXLFpw7dw4pKSmCT0xUHdVw1YhcLoeenh6srKwgk8kQHh6OZ8+ewdDQEHZ2dlxvKKZ0q2BOTg5cXV2xf/9+BAUFISQkBE+ePEFkZCT279+PHj16oFatWtDV1YWBgQE3bgkKButVV1fnouBZWVkwMjLCyJEjcfz4cYSHh+PJkycIDQ3FrVu3sHbtWjRp0oT7tVw5eFUaim1WoOg7+Rjy8vIgFou53ovk86Wvr88NzE2qL3V1dbi4uGD48OFo0qQJZs2aBVdXVzRp0gTNmzdHZGQkxo0bhy5dukBXVxdGRkYYMGAAmjZtijNnzsDHxwe9evXC48eP8d1336FFixbQ0tKCVCpFXl4e74cfVtD7QSwWIysrCxYWFhg6dCjkcjl+/vlntGjRAh4eHvjnn3/QvXt31KlTB1paWmjcuDH69u2LwMBAdOvWDZMmTcK7d+/g7e0Nxhjy8/Mhl8shFouRn58PUcFYWqamprh//z5++OEH3L17Fx4eHvD09MS6devQtm1b9O7dG69eveIGEk5PT4dYLIahoSF0dXWxa9cu/PHHH4iOjkZOTg4vgNehQwd88803CA0NxYABA9ChQwecOHECTZs2xddffw19fX3uByvlwBwKeoxLCsYzo4AXIYSoLolEwgWzWMEdP87OzmjZsiU8PT1haWkJKI1LqfjhxcLCAr1798bLly/Rv39/eHh4YNOmTTAzM4OTkxO0tLSQnJwMuVwOiUSC3NxcMMbg7u4OJycnPHv2DEOHDkWrVq2wefNmtG7dGo0aNUJkZCTS0tJgZmYGb29v1KxZEz/++CM6deqEEydOoFmzZujTpw9kMhnEYjF8fHwwfvx43L17Fz179kTr1q3x008/wdraGvPnz0fdunUFn5ioOvVffvnlF+HE/8qiRYugp6eHkSNHck8NIv+7J/rRo0ewsrJCw4YNUaNGDe5X3rt378LNzQ1du3ZFjRo18OjRI+Tk5MDGxgZOTk6Ijo5GbGwsbG1t4e3tDQMDAxgYGODChQsIDAyEmZkZzMzMEBcXh5CQEFhZWaFRo0YQiUS4d+8eLly4ALFYjHbt2sHU1BTx8fF4/PgxWrZsiQYNGnBjoty6dQvBwcGoVasWxGIxQkJCIJPJUK9ePW5MritXruDo0aMwMzNDVFQU3r9/D2dnZ5iZmSExMRGPHz+Gq6srGjZsCABIT0/Hy5cvkZiYiGbNmnEVLPl/+/fvR0pKCiZPnky3JxTD398f4eHhmDZtGvXw+sxlZ2djw4YNcHV1Re/evYXJKuXixYt4+PAhJk6cyD1xUNWYmprC3NwclpaW8PT0RLt27eDj44MvvvgCPj4+vKcR6urqwtTUFDY2NnBxcYGXlxcGDBiAzp07cz8WaWlpwdbWFu7u7rC0tIRIJIJ6wZMbHRwc0KBBAxgZGcHQ0BCGhoaoU6cOmjRpgqZNm6JPnz5o164datSoART0KLSyskKdOnXg5uaGtm3bok2bNvDy8kK9evVgZ2cHAwMD1KpVC66urqhduzZ0dXW5sSzd3Nzg6emJOnXqoHbt2rC1tYWzszM6duyIjh07wsPDA+7u7nBwcICRkRF0dXVRq1YtODk5wdPTEw0bNkStWrXQsGFDODo6wsDAABoaGrCwsICpqSmcnJzQqlUr9OjRA506deLaVzU1NRgaGqJevXpwdnZGzZo1gYIhBmrXrs0F2lRx/Kft27cDAMaNGydMUinPnj3D4cOH8dVXX8HV1VWYTD4zn8t5ZFRUFPbs2YMePXqgefPmwmSiRNFTS9HmaWlpwdTUFG5ubmjVqhUcHBy4cSqtrKzQoEED2NraokaNGjAzM4OVlRUcHBzQpk0bdOnSBS1atECjRo3g6uoKCwsLGBgYwNLSEo0aNYKdnR00NTVRs2ZN2NjYwNXVFS1btkTbtm3h4+OD+vXrw8HBAXZ2dtwDz8zNzVG3bl00a9YM7du3R9u2bdGiRQvY2NjAwMAAmpqasLS0hKGhIRwdHdGqVSt07twZPXv2hLu7e5FDCpDCbt26hYCAAFShUFG5iVgV+qlOJBLB1NQUAQEB8PT0FCZ/th48eIC///4bTZo0wRdffAETExP4+flh2bJlePbsGbZs2YJx48YhJycHW7duRVJSEry9vdG9e3eEh4fjxIkTiI6ORpMmTeDo6IiIiAjs3bsXZmZmmDt3Lpo1a4Znz57hwIEDyMvLg4uLC+zs7PDw4UPcuHEDBgYGWLBgARo2bIh79+7h77//hpmZGVq1agUjIyPcvHkTz549g62tLSZOnIgaNWrg2LFjePHiBezt7dG4cWMkJibi0qVLyMjIgK+vLx49eoSgoCB88cUXcHFxwdOnT7F9+3YMGTIEAwcOBAoap+PHj+PZs2f49ttv4e7uLvxqPnu9e/dGeHg4goODeb3zyP8bPXo0Lly4gODgYHoi1WcuNjYWHh4eGDx4MDZu3ChMVilz587F5s2b8fDhQ95DRlQF+8DTCRVKm6+0SrO80uSpLor7LMVNr868vb0BAIGBgcIklfLvv/9i8ODBOHToEAYNGiRMJp+Zz+U88sqVK+jcuTPWrl2LqVOnCpNJGf0XbYDiFktSOZYtW4Z58+apRK9uKjXViKLAaWtro27dumjVqhXat2/PPXlOMbYGK7g1MC8vD05OTujVqxc0NTWxcOFCtG3bFmPGjIGtrS3mzJmDxo0bAwUDOvfp0wdv3rzB2LFj0b9/fyQnJ8PZ2Rnm5uZcpebu7o4pU6YgKCgI/fv3R8eOHfH333/Dzs4Ovr6+cHR0hKWlJfr37w9ra2ts27YN7dq1w8CBA5GQkIDvv/8enp6e0NHR4e7dVnwuxbYrKE8nhBBCFEp7ol3afKVVmuWVJk91UdxnKW46IYQQ1fdftAEU7CLlRT28qoGUlBSEh4fD2NgYNjY20NXVRWpqKqKjo5GZmYmGDRvC1NQUUqkUERERyM/Ph6mpKSwsLKChoYH8/Hw8e/YMz58/x7t376Crq4tmzZrB3d2dN85WdnY2Hjx4gOfPn0NdXR3NmjXjxjVxcHDgnp4oFotx/fp1PHnyBDo6OjAxMYGbmxvc3NyUthp4+fIlgoOD8fbtW0ilUjRr1gytW7eGhoYGoqKikJiYCFtbWxgaGiI9PR0RERGws7ODra0ttz1v375Feno66tevz7s9hfzP5/LLXEVQDy+iQD28CCHFoR5e5HP0uZxHUg8vQspGlXp4UcCriittl9Hi8pWm+2dx8wp97Hxl9amWW519LicqFUEBL6JAAS9CSHEo4EU+R5/LeSQFvAgpG1UKeJUcCSH/udIGeIrL96FgF0qYV+hj5yurT7VcQgghhBBCCCGEqJYPR0MIIYQQUi3RDwWEEGWKOoHqBkIIIZ8DCngRQgghhBBCCCGEEJVCAS9CCCFERanC2AuEkI+HnoBNCCHkc0IBL0IIIYQQQgghhBCiUijgRQghnxn6Zf/zQeP0EEKUVfYYXqVpb0qTpzJVdHsqOj8hhJCPhwJehBBSRcjlcmRnZyM5ORlJSUnIyclBXl4e0tLSkJiYiPT0dMhkMuFsZSYSiSCXyyEWi5GTkwOJRCLMQgghhFSYIrAmFou5tiwxMRHZ2dlcYEgkEkEmkyE7OxspKSl4//49kpOTkZeXxy2HMQaxWIysrCxkZ2dzy0pKSuItS0EulyMrK4trT9PT05Gfn8/Lk5+fj9TUVG59mZmZkEqlvG3OysrilpOeng6JRILc3Fzk5OQgNzeXt73Z2dmQyWS8YKJEIkF6ejqSkpKQnJyMjIwMSKVSLl0ulyMvLw8ZGRlIS0tDeno6cnJyIJfLuTyEEELKjwJehBBSBcjlciQmJmLdunVo06YN3N3dsWXLFhw7dgzDhw+Hk5MTxo8fj1evXn2UAFV8fDzOnj2LnTt34s6dO8JkoiKEF4GEkM9bZY7hpViHTCbDhQsXMHz4cNSpUwcNGjTAX3/9hdzcXC5vfHw81qxZgy5dusDGxgatW7fGiRMnuPSMjAycOXMGixcvxpo1azBkyBDUq1cPrq6uWL9+PbKysnifKSUlBb///ju8vLzg4eGBSZMm4ebNm1w6ANy+fRu9e/eGlZUVfHx8sHDhQrx8+RIoaJPPnDmDJUuW4Ndff0WLFi0wbNgwPHjwAHv37sXWrVuxY8cOdO3aFTY2NmjXrh3WrFmD6Oho3joePXqEb775Bu7u7vDy8sKMGTMQEhLCpSckJMDf3x+zZs3CkCFDMHLkSPz111+Ii4vjLYcQQkj5UMCLEEKqADU1NUgkEmRmZsLa2hoDBw6Eo6Mjd0HQuXNndOzYEQYGBlBTq3jVzRhDeno63r59i5ycHGEyUMIFUXHTFRhjH8xDCCFEtYlEIuTl5eHRo0d4+PAhLCws8MUXX6BFixZ4/vw5/Pz8kJmZiXfv3uHcuXN4+PAhHB0d0aNHD9SqVQvHjh3D0aNHkZeXB6lUipCQEJw/fx6xsbFwdXVFp06doKOjg/v37+PmzZtcj7CoqCgcOXIEeXl5aNeuHTp37gyxWIzbt28jODgYeXl5CAwMxIkTJ2Bubo4+ffrA09MTL1++xNmzZxEZGQmZTIa4uDg8efIEMTExcHd3R4cOHaCvr4/o6Ghcv34dT548QaNGjdCtWzeYmpri3LlzuHLlCvf5b926hZMnT8LQ0BCdO3eGl5cXEhIScObMGTx//hwymQz5+fl4+vQprl+/Dl1dXTRp0gROTk7Q1dVV+iYJIYSUV8WvmgghhHyQXC5HWloaoqOjERMTg4SEBN4v0u/fv0dQUBAAYNiwYVizZg3s7e2RkZEBT09P/P7775g0aRKsra2hrq6OrKwsxMfHIzY2FnFxcUhPTy90C4RMJuOCWm/evMH79++5C4K0tDS8f/8eGRkZSElJgVQq5W6pTEtL427rYIxxgbjMzEwwxrhbIhUXKm/evEFcXBwyMzMhl8shEom4C53U1FSkpaUhLi4O8fHxyMvLo2BYJVB8x+rq6sIkQshn7GP8YFIWYWFhuH79OgBg1qxZOHDgAI4cOYLGjRsjNDQUubm5uHnzJu7cuQM7OzusWLECx48fx4oVK/D+/XscOXIEsbGxYIxx7YurqyuWLl2Ko0ePYsmSJdDX10dgYCDEYjEAcIGxtm3bYufOndi9ezdGjRoFbW1thIeH4/Xr17h8+TJevXqFn376CcePH8e2bdvQvHlzBAcHIyAgABKJBHp6ejA1NUWjRo2wadMmzJkzB/Xr14eRkRFkMhlMTEywevVqnDx5EosWLYJMJkNISAgSExORmZmJ06dPIzg4GFOmTMGePXvwzz//oHfv3ggODsaZM2cgkUigpaUFxhiMjIwwbtw4LFy4EAMGDICpqWmltJWKNr2yy0VlU3w+Vf+chHwslTXOY2Wgo54QQipBdnY2li9fjnr16sHJyQlDhw6Fn58fJBIJ5HI5jh07hrFjx2Lp0qVYsWIFxo8fj6FDh8LX1xcbNmzA3Llzce7cOW55R44cQY8ePeDm5oaOHTti1apVSElJ4a3z3bt3WLNmDZo2bQp7e3uMGjUKt2/fRnR0NPz9/TFv3jxs2LAB69evx549exAVFYXjx49j1apVePv2LVAwxklYWBi2b9+OvXv3cr3BUlNTsXv3bvTo0QP29vZo06YNdu7cidTUVG79t27dwtKlS7F06VJ07NgRXbp0wbVr13jjspBPQxH8NDIyEiYRQoqgqan5WQSIDQ0NgVL01P1YYmJiEBMTg4YNG8Lc3BwAoKenh1GjRmHmzJkwMjJCYmIiatSogS5dunB1lq2tLZo2bQoDAwOEhYUhOzsbenp6sLCwgKOjI7S0tAAAzs7OqFWrFvdDS1paGtLS0mBsbAwzMzNuOzp27Ijx48ejbdu2SEhIQHZ2Nho1agRHR0cAgL6+PgYOHAgHBwckJiZCLBZDKpVCV1cX5ubm3Pcll8shkUhgbm4OV1dXaGhoAACsrKzg6OgICwsLiMVixMTEICcnB5aWlmjYsCFQUMb69OkDGxsbZGdnIz8/H1KpFDo6OjAyMoK+vj63vaikC07GGDQ1NbnPoaoU5V74HRNCiqZKvUxFrLJavFIQiUQwNTVFQEAAPD09hcmEEIHevXsjPDwcwcHB3Mkf4Rs9ejQuXLiA4OBg3slvZXr37h38/f0RGBiI7OxsGBsbIyUlBUZGRujXrx+8vLwQERGBTZs24d69e3B0dESfPn3w8uVL3L17F1lZWejbty9GjBgBGxsbnD59Gnfv3kVmZiZ0dHSQkJAADQ0NdOrUCd26dUOdOnWQkpKCU6dO4fbt29xtEzKZDDVr1kT//v0RHR2NHTt2ICUlBe3bt8ewYcNgbW2N/fv3Izg4GIsWLYKzszNyc3MRFBSEAwcOQF9fH/Pnz4eamhouXLiAkydPcj3AsrOzIRaL0atXLwwfPhyGhob4999/sXfvXtSoUQMouDD58ssv0aBBg/+kvMbGxsLDwwODBw/Gxo0bhckqZfny5Vi0aBG++OILmJubcz0fCPkcCAMFyu+F/2toaEAul+PgwYMwNDTEt99+C01NTchkMqirq0MkEkFdXR1qampQU1Mr8/9qamrcOuVyOWQyGeRyeZH/C98L/xf+/dA04f86Ojq4c+cOrly5gmPHjqFfv37cd/GpbNmyBefOncM333yDNm3aoGbNmrz0/Px8LF68GHFxcZgyZQpcXV2ho6OD/Px87N69G69fv4abmxu8vLxw9uxZBAYG4rvvvoOnpyekUilevXqFQ4cOAQBmz56Nt2/f4tSpU4iIiMDYsWPRrFkz3voA4MqVK9i+fTseP36Mxo0bw9zcHLm5uUhLS0NMTAwaN26M77//HidPnsSLFy/QtWtXeHt7w8TEBJmZmfjrr7+Qnp6Ofv36oWnTptDV1cXr16+xbNkyNGjQAAMGDEBycjKWLVuGa9euoWvXrjAwMIBUKkV2djYePXoEb29v/PTTT5BIJDh+/DiCg4Mxbdo0NG3aVLi5n9TXX3+NAwcOYMKECdz3rmr09PTw6tUrnDx5Ej4+PmjRogWys7OF2QghBe2itrY2goKCcP/+fWRmZgqzVDtVLuBlYmKCa9euoVGjRsJkQohAnz598OrVK4SGhhY6wSf/88033+Ds2bN4+vTpfxLwysnJwb1797BixQq0bt0aP/zwAwDg5s2b2L9/P0QiEUaPHg0vLy+Eh4fjwIEDMDY2xrfffovs7GycOnUKd+/exdSpU+Ho6IjQ0FB89913qF+/PhYtWgQDAwPExcVh27ZtCAkJwahRo9C5c2fcuHEDZ86cgYODA7799lsAwIMHD7B792589dVXsLa2RlBQEF69egUfHx/4+PggJSUFW7ZsQUREBObNm4d69eohLy8PT58+hb+/P2rUqIHp06fj3r17XG+z7777DmZmZoiPj8fUqVOhpaWFOXPmoHHjxjh9+jQOHz4MOzs7fPPNN6hbty73vShuo6hMioDXsGHDsG7dOmGyStmyZQtmzpwJHR0diApuTSXkc6Io80xpTEHh/8p/c3JyYG5ujgYNGhQKdJX0t6hpwr+KY1AY2FL+K5yuHKiSSqVFziP8K1yGcFkoGCRdKpXi1KlT6NWrV8G39els3LgRZ86cwdixY9G+fXsYGxvz0nNycvDLL78gNjYW06ZNg7u7O/T19ZGfn499+/YhKioKrq6uaNKkCS5evIiHDx9izpw5cHZ2Rn5+PkJDQ3HkyBGoq6tj1qxZiIqKwsmTJxETE4NvvvkGXl5evPXJZDIEBgbir7/+wtGjR2FoaAh1dXUwxqCmpob69etj4MCBGDJkCI4ePYqoqCh88cUX8PT0RI0aNZCZmYnVq1cjPz8fX331FRo2bAgtLS2Eh4fjzz//RMOGDTFo0CCkpaVhyZIlOHToEExNTYGCgKempiZq166Nr776CsOGDUN+fj4uXryIV69eYfz48XB1deVt76c2duxY7NixAyYmJirbVqipqSE/Px8ZGRnQ19eHrq4udzwQQgpjjEFLSwtaWlqFHsRRHVXJgJeihwMhpGRffPEFwsLCEBoaKkwiBSZNmoRjx44hJCTkPwl4xcTE4NKlS7h9+za6du2KgQMHAgW3OAYEBODChQvo168funTpgkePHuHw4cMwMTHB9OnTkZycjDNnzuDRo0eYOnUqnJ2dceXKFWzcuBFt2rTBzJkzufXcuHED27ZtQ//+/dGiRQscPHgQeXl5aN68OTp27AiRSIT8/Hyuh1lkZCSuXbuGyMhI+Pj4oFu3bkhOTsa2bdsQHh5eKOB17Ngx6OvrY9KkSfj333/x/PlztGvXDn379oWmpiYAYMeOHYiOjubWef78eZw4cQIeHh7o1avXf16vx8bGwt3dHWPGjMHKlSuFySrll19+wcqVK7ke0+/fv6/0ACMh/xWZTMYFiT70v4aGBsRiMaZPnw7GGFavXg2RSIScnBxeEEn4UgSTFOMfCtOFeRUBNOWXhoYGLzCmeF/SS0NDgxdsK818inlq166NnTt3Ytq0afDz8+Pao0/p4MGDCAgIwJdffglvb+9CAS/GGFauXImYmBgMHz4cjRo1gq6uLrKysrB582bExsaiZcuWaNq0KS5evIj79+9j7ty5aNiwIS/gpaamhlmzZiEzMxNnzpzB48ePMWbMmEIBLwA4f/48bty4AR0dHfTv3x+1atVCbm4utLS0oKurywVENm7ciDdv3uCLL75A48aNYWBggMzMTKxZswa5ubn46quv4OLiwo0Npgh4DRw4EO/fv8exY8eQk5ODiRMnwtjYmCtvurq60NfXh1wux5s3b7geaePHj4ebm5twcz+pfv36ITg4GJcvX4axsTGysrKEWao9CwsLHDt2DEOHDsWvv/6K7777DgkJCcJshJCCeIyZmRkWL16M3377TSWC4FUq4GVkZAQ9PT14eHjAxMQEEolEmIUQojTo5sOHD5GTkwNvb2/uFgzyPyKRCJqamjh9+jRq1aqFGzducL+yVqaYmBgcO3YMu3fvRn5+PlxcXAAAWVlZyMjIQF5eHmbPno3+/fvjyZMnOHLkCExMTDBt2jQu4PX48WMu4HXmzBksWLAAGRkZaN68OVBwcZeSkoLo6GjMmjUL3t7e2LVrF8zNzdGlSxc0b968ULBDMWhvZGQk2rRpg+7duxcZ8BKLxXj27Bn8/f2hq6uLiRMnwt/fH//++y8yMzNhZmYGY2Nj5OTkICQkBFZWVhg0aBBGjBiBK1eu4PTp0+jSpQt8fHxgZWXF24bKFhcXBx8fH2RmZqJbt26QSCSftCFXLFtXVxcikQi5ubkQFQwOLCoYb0b5/6LeC6cJ04t6X6NGDfj5+SE2Nhb//vsvunTpItw0QoiAt7c3pFIpbty4AfWCB4PI5XIwxriglfB/RaBL8X9JL8XxqfxSLwh2KdIU70t6qRf0GBNOU/wv+kBg+8yZM+jVqxcOHTqEQYMGCZM/ujNnzuDEiRNwdnbGkCFDuHbg+PHjePv2Lfr06YOzZ8/iwYMHcHFxwTfffANDQ0NER0djzpw5UFdXh6+vL6ytrXHs2DE8evSoxICXmpoaDh48iCNHjmDu3Lno2LEjAOD58+d49uwZ1NXVYWFhgWvXriEhIQGLFy/mbrOMiIhAUFAQDA0NuXY0MjKyTAGvBg0a4Ouvv4ZMJsPGjRuRlJSE5cuXc+tISUnBuXPnoK+vj65du+Ldu3c4efIkXr16hQkTJlR6wKtnz56IiYnB06dPhUkq5eHDh2jevDm2b9+O0aNHC5MJIQLr1q3jfgiq7qpUwMvGxgaigl/APtRgE0KA3NxcMMa4C2rCp6amhsjISLi5ueHKlSv/ScDr7du38Pf3x+bNmxEdHQ0zMzPuAsnc3BweHh4YM2YMmjRpgmfPnpUY8GrYsCHOnj2LBQsW4MWLF6hduza3LCMjIzg6OuKbb76BpaUl9uzZAzMzM3Tt2hUtWrSAmuDJRCUFvCIjI/Hdd9/B0dERubm5ePz4Mfdo9QkTJuDkyZPYvXs3IiIigILvWfFq2bIlBg4ciG7duuHcuXO4ePEi+vXrh+bNmxf6Zb+yxcXFoUOHDnj58iUcHBwg/8S3NCia1xo1akAkEiErK4u7UEVBULao9x96CfML32trayM4OBhyuRw//PADhg0bBhsbG267CCGFtWrVCgBw+/ZtYZJK8fPzw6BBgyot4BUaGooLFy7g9evXcHFxgbOzM6KjoxEQEABdXV3MnDkTSUlJuHDhAl6+fIlOnTrBysoKwcHBuH79Ory9vTFt2jRIpVLs3r0bT548wffffw9XV1fk5+fj+fPnOHToENTU1DB37lwYGRnh3Llz2L9/P+rVq4cmTZpAT08P165dQ3JyMtzc3NCrVy/cunUL/v7+8PLygoeHB3Jzc3H+/HmkpqbCx8cHQ4YMwT///IOXL19iwIAB3AD6mZmZWL58OfLy8jB48GA0atQI2traePnyJZYuXQonJyeMHz8eJiYm2LNnD65du4ZmzZrByckJYrEY9+/fR1BQEFq0aIFp06YhKSkJx48fx8uXLzF58mS4u7sLv8JP6nMZC/bKlSvo3Lkz1q5di6lTpwqTCSECy5Ytw7x58yjg9bGJCgatP3HiBFq1aqUSg6QR8ino6OhATU0NvXv3RmRkJAIDA7nBVMn/KG4bGDZsGK5du4YnT/6PvfuOj6pK/P//mpLJpBcSEgKE0JHepEtvSlPBAlhYC3bdz+66i6uu6NpXxQ42FBuiIqAISG/SQXpPIJDeSC9Tf398yfySEQSVkvJ+Ph4+drnnnJkhZO49931P2XVZpjQmJCSwYsUK4uPj6dWrFyNHjqSkpAROf8by6SbFxcXs27ePb7/9ljp16pwx8GrWrBlr1qxh3rx5dO7cmdtuu80zqq/8dcxmM4mJiXz++eeYzWb69OlDz549fxV4HT9+nBUrVpwz8MrLy2PVqlWsXLmS+vXrc9ddd/HZZ59x4sQJrr32Wlq1akVISIhnqobZbPaEMLNnz2bt2rWMGjWKHj16EB4eXukzXGpJSUl06tSJMWPG8OGHH1JSUoLD4fCudsEZTofR5eFk+WiQiv9bcYSI9//3/vNv1eH0aOmnnnqKefPm8fHHHzN69GisVqvXpxKRinr27AnAxo0bvYtqlK+//pqbbrrpkgVenH7AMnPmTGbPnu15UHL33XczZcoUYmNjMZvNbN26lenTp7No0SLS09OxWq088cQTTJ48mcjISLKzs/noo4/YvXs3jz322K8CL06vKRkWFkZRURGbNm3iX//6F9u3b8dsNtO9e3fuvfdebrzxRiwWC7m5ucybN4+nnnqKkydP4ufnR6tWrfi///s/Jk6ciMvl4s033yQhIYGxY8fStWvXSoFXSUkJN998c6XA67nnnqN58+ZMnjyZunXrUlJSwvfff8+0adPYvn07LpeLFi1a8Ne//pWJEycSEBDAsWPHmDdvHkeOHOH+++9X4HWRKPAS+X0UeF0khtNreG3evJlmzZp5F4uIlzFjxnD48GGt4fUb7rnnHhYsWHDZ1vA6deoUGzdu5LPPPmPo0KH85S9/gdM7Uy1dupTk5GR69+5Ny5Yt2blz51kDr/Invzt37uT555+nc+fOTJkyxfM+W7duZeXKlfTv35/GjRszd+5c9u/fT48ePZg4cSIAhw8f5osvvqBfv34EBgayZ88eMjIyGDBgAD169CAnJ4enn36a3bt38/rrr9OhQwfy8vJ47bXX2L9/Pz179uTuu+9mxYoVbNy4kUaNGnH//fd7PsPcuXPJyMige/futG/fnvnz57NixYoqFXi1b9+eSZMm8dprr3kXVzvlQVf5/y9nMpn4+9//znvvvceaNWsu+a5fItWRAq+Lx+l0cuDAAfbu3UtKSgpms5kePXpw5ZVXeh4IlE+LP3jwIBkZGYSFhdGvXz/P/YDNZiM+Pp7c3Fxat25NSEgILpeLvLw8Tpw4gcFgoFWrVp7QpqCggJUrV3L48GECAgJo1KgRHTt2pH79+p7PlZKSwurVq0lOTiY4OJh69erRtWtXYmJiADh48CBFRUU0bNiQsLAwfHx8cDgcHDhwAKfTSWxsLKGhoRiNRgoKCti/fz+BgYE0a9YMX19fADIyMti4cSMpKSm43W7q1q1L9+7dadiwIZxe3iApKYnCwkKaNWtGaGio5/NdCgq8RORMalLgVfmRfxVgOD3tQ0TOrXzESE3cRvpCKSsr+9XopkspLCyMli1bEhMTw+bNm5k5cyZLlizhtdde48svv2Tfvn0UFRVhMBhwuVzY7XbP+oVutxuHw4HNZvMcq1+/PldccQUnT57k/fffZ9GiRXzwwQfMnDmTTZs2kZ6eTlBQEB06dCAoKIitW7fy7bff8uOPP/LFF1+wbds2cnJy8PPzw8fHhz179rBq1SrPTUj5TopfffUV8+fPZ+XKleTm5uJwOLDb7RiNRrp160aTJk3YsmUL06dP56effuLDDz/ko48+YuvWrRQVFXlGHNlsNs/vaVVgMBgoLS31PlwtlY+kM3otYM3p0YNGo/GyTOMVESnndrsxmUy0bduWm2++mb/97W88/PDDldaWdLvd+Pv7061bN2677Tb+8Y9/cOedd1Z6+G2xWLjiiivo2bMnISEhuE/vqhgWFkaHDh1o3749FovFc60JCgpizJgxPProo9x///2MGDHCE3aV14mJiWHChAk8+uij3HPPPYwePdoTdgG0atWKLl26ULduXXx8fHC73ZjNZtq1a0fHjh0JDw/HaDTidrsJCgqie/futGnTxhN2cXrB9DFjxnDfffdx//33M27cOE/Yxekp761ataJr166EhoZWmWuliEhNcfnuAkVEaolGjRrx4IMPYrPZuPPOO7n66quZNm0aAQEB3H///XTv3h2Hw+EJMMpDC06vj1Xxz3Xq1OHhhx+mYcOGPPPMM4wcOZL777+fkydP8n//938MHz4cPz8/evXqRf/+/UlISODmm29m5MiRLFiwgIkTJzJs2DDatGlDSEgIy5cv5+233+aHH37AbDYzfvx4rrrqKt566y1uvPFGZs6cSfPmzYmLi/PsRhYTE8PgwYOJiYnh+eefZ/jw4Tz88MMEBQUxadIkrrrqKnx8fLDb7Z7FlOXSKp/eqM1fRORyKg+1fsv51PF2tjZnO17R+dQ5k7O1O9vxP+JCvpaIiFTBKY116tTxbKMuIr+ttgxF/zMmTZrE0qVL2b1792WZ0ljO5XLxyy+/sGPHDgwGg2eR+bZt23p22MzPzyc5ORmLxULTpk2x2WykpaWRl5dHXFxcpakOR48eZefOnRQWFmIymYiLi6NTp04EBgZ66pw6dYp9+/aRkJBAUVERcXFxnqfVAGlpaWzatAmXy0WbNm1o1qwZJpOJo0ePsn37dsrKymjYsCGNGzemqKgIs9lM06ZNMZvN2O12jh49yv79+8nIyCA4OJjmzZtzxRVXEBQUBKd3qMzKyqJevXqEh4df9t/RpKQkOnTowE033cS7777rXVyjPProo7z33nvs2LFDSwSInIfaMqWxfNH6r7/+mhtuuMG7WGqZ2tKP1JRGkd+nJk1pVOAlUo3Vlo7Kn1FVAq/f4na7z+up7oWu90e5XK7fHLVVflm5mJ/hj1DgJSJno8BLaqPa0o9U4CXy+9SkwOvsdywiInJJnG8wdKHr/VG/FXZx+v0v9meQ81MTOioicuGUnxN0bhARkdrgt+9aREREREREREREqhkFXiIiIjXU5Rhpp5EjIlVX+TnhcpwbRERELjUFXiIiIrWU3W6noKCAnJwcsrKyPP9lZmaSk5NDWVmZd5NzMhgMOJ1OSkpKKC0txeFweFcREREREbnoFHiJiIjUUOcabbVnzx7+85//MHz4cDp16kTXrl3p2rUrrVu3ZvDgwaxZs6ZS/XO9XrkTJ07w5ZdfMm/ePI4ePepdLCKXidbwEhGR2qRWBF66qIuIiPxaamoqP//8M2VlZbRq1Ypu3brRs2dPrrzySsLDw5k9ezYLFizwjPQ632lQdrudEydOkJaWhs1m8y4+I12rpTY4n9/z86kjIpfH+Xw/z6eOiFwa1TLwstls5OTkkJubS2lpqXcxNpuNwsJCCgsLcblc591BFxERqW3Cw8N56KGHmD9/Pl9//TWzZ89m0aJFTJ8+nZSUFL766iv27NlDcXGxp43NZiMrK4sTJ06QlJRESkoKeXl5OJ1OAHJzcyksLCQ7O5uMjIxK0xrLyspIS0sjMTGRlJQUcnJysNvtulZLjVRaWkphYSElJSXn3Sc1GAy4XC6KioooKio679BYRP44t9uN3W4nPz+f3NxcTp06RXJyMidOnCA9Pd1zz1nxO1xYWOipk5qa6rkOln+HCwoKKCgooKioiKysLJKSkkhNTfVM+T916pTnWEFBAS6Xq8InEpELoVoGXnv37uWJJ57ghRdeYPPmzZXKXC4XO3fu5IsvvmDOnDlkZ2dXKhcREZHKbDYbRUVFlY7Vr1+fW265hTp16rB06VLP9dTlcrF3714eeOABGjduTLt27ejfvz+vvfYaqampHDx4kNmzZ/P222/z3HPP8dJLL7Fq1SrsdjsAW7ZsYdSoUcTFxdGnTx+eeuopDh48WOm9RaqziqM71q1bxxdffMGaNWvIz8+vVO+3FBQUMG/ePL755hv27t3rXSwiF5jdbufIkSPMmDGDF198kaeeeorevXvTqFEjxo4dy+bNmys9vHG5XHzzzTd07dqVRo0acfXVV/P222+TkZEBQF5eHh9//DGzZs1i3rx53H///XTs2JFrrrmG5cuXs3nzZp5++mm6dOnC8OHD+fTTT391HRaRP69aBl4FBQXs3buX7777jmXLllV66szpJ8snTpzg5MmT5/1UTENPRUSktil/Uu10Oj2BVDl/f3/69OlDVFQUCQkJno745s2b+eijj3A6nUyaNIkJEybQpEkT4uPjWb9+PU6nk7Zt29KuXTvatWtHly5diImJwel0snHjRubNm0eTJk0YP348/fr14/jx4yxatIiDBw96RoiJVGflozuWL1/Oiy++yJdffklOTs5vjt6o2A89deoUM2fO5KWXXmLDhg2/+m6KyIVnMBjIy8tjzZo1bNu2jYCAAK6//np69epFQUEBK1eu5MiRI3B6ZNdnn33GkiVL6NChA7fccgtt27Zl586dLFmyxPOAKCUlhbVr17Jnzx7atWvHuHHjqFOnDq+88gpz5syhTp06XHfdddSpU4edO3eyc+dOhV4iF1i1DLx8fX2JjIzE6XRy5MgRduzYQWFhoafcYrEQEBCAv78/RuP//1d0uVykpKSwc+dOdu3axdGjR8nNzYXTJ7mSkhLS0tI4deoUmZmZHD58mF27dpGYmEhxcTG5ubkcO3aM3bt3Ex8f/7ue1ImIiFQnLpeL8PBwgoODcTqdOJ1O8vLyyMzMpLCwkDvvvJOPPvqId955h6eeeor69euza9cuwsLCuPbaaxk/fjwPP/wwd911F23atCE3N5clS5Zw+PBhnnzySb788ks+/PBD+vbty/79+1m+fLl2dJRqz+12U1ZWxoYNG/jxxx/55ZdfyM/Px8/PD5PJ5F3dw2Aw4HA4yM7OZtmyZSxdupT4+HhcLhd+fn7e1f+085laKVKbGAwGTCYTpaWlhIaGcv311/Paa6/xxRdfMHbsWI4cOUJCQgIAaWlpfP/99xQVFfHuu+/y2Wef8fzzzxMbG8uqVatYtWoVRqOR4OBgbDYbAQEB/O1vf2PGjBk88MADbN26laSkJCZOnMiMGTOYPHkyJpOJQ4cOkZOT4/3RRORPqJaBl8FgICAggG7duhEaGsq8efM8iftvOXXqFC+88AKdOnWiY8eO3H777SxYsMAzCuzQoUO88cYbfPfdd3zyySdMmDCBTp068cgjj7BlyxYWLVrEgw8+SLdu3bj99ttZunSp91uIiIjUGE6nE7fbjdFoxOl0EhISwvDhw5k+fTpXX321p15ISAj16tXDarXidDopKSmhqKiIwsJCz7onR44cwW6307p1a6KiogAwmUyMHDmSxo0bc+rUKc/riVRXdrudjz/+mI8//hg/Pz8mTZrEmDFjcDgc5wx0jx8/zssvv8zatWvp0KED999/P61atdKID7lo3G63Zrmc5na7MRgMBAcHExcXR0xMDAABAQG0bNmSwMBAjEajZ22uxo0b07VrV+rWrQtAaGgogwYNoqSkhMOHD1NUVERZWRkNGjSgbdu2npA5KCiI4cOHc80119C4cWMAfHx8CAsLw2KxKIwWucCqZeBVfmLu0aMHHTt2JCkpicTERACMRqPnRGEwGDwjvA4dOsS0adNISkri1ltvZcqUKTRu3Jh169axZMkSSktLMRgMpKamsmbNGoqKirj11lt56KGHKCgo4IknnmDXrl0MGDCABx54gICAAHbt2sWBAwc01FxERGoct9tNaWkp+fn5FBQUeG7WfXx82LlzJ48//jhjxozhxhtvZPLkySxatAiXy4XFYvHcRLlcrkr/PykpiTlz5nDbbbcxceJExo4dy8MPP8y8efNIT0//zSlfItWByWSiY8eOjBs3jmuvvZYrrrgCf3//8woVwsLCGDBgADfddBODBw8mJiYGs9l8Qb8XJpMJi8VyzvBNagej0Yivr6/34VqpPPAKCgqibt261KlTB05/Z8pnDRmNRsrKykhOTsbpdBIcHOz5+fn7+9OoUSMCAwNxuVw4HA6cTifh4eHExsbi4+ODy+XCx8eH0NBQwsLCPPesRqMRs9lc6fOIyIVRLQMvl8uF0+mkYcOGdO7cmcaNG3P48GG2b9+Oy+WqNI2xfPh4QkICy5Yto2nTpnz00Ue88MIL3HHHHbjdbhYtWsShQ4ewWq0EBARQXFxMs2bNeOSRR3jjjTfo3LkzGzduJCQkhIcffphXX32V/v37U1hYyJEjR9RpEKnCym+29cRM9Dvw++Xn53uWDPDx8QFg9+7dfPnll3z33XesW7eO9evXs2PHDlJTUz2jwc7EbDbjdDrJyMhgx44drF69mg0bNnDw4EFCQ0Np1arVWduKVBcmk4kePXpw9dVX061bN3x9fcnPzz/n+cftdlOnTh2GDx/OVVddRZs2bSgpKaGsrOycbX8Pf39/YmJiOHXq1Hmvcys1j8vlIjU1FbPZTL169S7o71h1Vd5XtFgsWK1WzzXP4XBgt9s95S6XC5vNht1u99yTlitv7+Pj46lbvtSOwWDA7XbjdDqx2WyUlZV52pU/HCp/DRG5cKp1z7K0tJSYmBgGDRrE3r17mTdvnmcB+/JOs8FgwGaz4XK5aN++Pe3bt/ecwFq1asWVV17p2Va9pKQEt9tNq1ataNKkCZxelDAuLo7rr7+e/v37Y7FYKCoqIjAwkJCQEKXxIiLVzPmMtKgp/mzHuXzh3Xr16hEaGsrJkyfZsGEDZWVlPPXUU5w8eZL9+/fzww8/MHHiRM/6J97cbjdFRUU0b96cJ554gp9//pkjR46wd+9e9u3bx5IlS7jvvvs00kBqFJfLhcvlOq/voXed8u+R9/E/KzQ0lCuuuIKUlBTtjlqLFRYWsmPHDnx9fWnVqtUF/z2rjsp/BuUjks8UQLlcLnx9fYmJiSEwMLDSQx6Hw0FeXh6nTp3y3I+Wh1wXcpSmiPw+1TrwstvthIWF0bVrV5o0aUJRUREHDhygpKTE02k2Go3k5uaSmpqKyWQiICDA0z48PJyYmBh8fX1xuVye9D46Opro6Gg4fdLz9fUlODi4UluTyaQn0SLVQPmTtjPdhEvtUlpaio+PDxaLxbuo1irv0AcHB3uue+Xy8/OZNWsWSUlJDBw4kMjISAoLCz27zV1xxRUEBAQQGhpKRkYG+/btw2g0eqZtOJ1OAgMDCQ4Oxmg0EhcXh8FgIDExkfDwcPz9/alTpw4pKSnMnTuXxYsXa8S01CjuKrg+Uv369Rk4cCBbtmxh+fLlnuNV7XPKxVH+72yz2fj8888xmUwMGDBAgdd5crvdmM1mQkNDSUxM9GxKAVBcXMzq1asBiI2N9UyD1HdL5PKq1omNy+XCbDYTFhbG4MGDiYqKYvHixSQkJFRK5V2n51GXP2mryGAwYDabK4VXfn5+WK1WOH1iKx96Wr5Wl3fyLyJVV2RkJOHh4SQmJupmuhZzOBycPHmSiIgIz7octcH5XKfKd5T79NNPWbRoEUuXLmXu3Ll89NFHJCYmcsUVV9C3b1+sViuhoaHExMRQWlrK/PnzWb58OStWrGDnzp3k5+dz6tQpSktLsVgs+Pr6sm3bNpYtW0Z2djaxsbFcccUVFBYWMmPGDObPn8/XX3/NtGnTWLx4MSkpKb+6RovIhVWvXj2GDRuGwWBg/fr1nl3nFHjUDgaDAafTyapVq9i7dy/NmzenX79+eohf4f6urKysUn+x4r1g+TTgiIgImjVrRn5+PjNmzGDu3Ll8/vnn7Nq1i06dOtGnTx/MZjN2u90z06jcmd6j/PWdTqeugyIXWLU/u5WHUJ06daJevXqsW7eOHTt2kJWVhfH0Thrlu0eVrx9SrqioiOzsbPLz83E4HJ6TvU42IjVHXFwcDRs2ZOfOnSQnJ3sXSy1x4sQJdu/eTVxcHI0aNfIurrWsVismk4kvvviCO+64g5EjRzJ8+HDGjRvHM888w5gxY3jwwQcJCwuD0zfLnTp1wu128/LLLzNixAieffZZYmNjGTVqFPn5+WRnZxMUFER0dDTz5s3jtddeY9OmTQBcf/31jBkzhhkzZnDddddx++23s337dkaMGMHdd9/tWXJARC4OHx8f2rRpwzXXXENRURHPP/88x44d864mNdjcuXP5+OOPadeuHQMHDqy0eHptZzAYzjiLx2g0YjKZPA+RIiIiePjhh+nWrRtPPvkk48aN48UXXyQ8PJyRI0fSsmVLzz2qyWSq9PM903uUv77BYNC/hcgFVu0Dr/ITT0BAAF26dKFDhw4sX76cxYsX4+Pjg9FoxM/PDx8fH3bt2sW+ffs8bY8cOcLWrVuJjo6mXr165712iE5EItVH586dadmyJd988w3x8fGe4+cz8kWqt4r/xocOHeK7776jXbt2dOjQoVK9muxc16sOHTrw9NNP8/HHHzNz5kzPf++//z7vv/8+o0eP9oRd5Zo3b87//d//8dFHH/HBBx8wZcoURowYwTXXXMN9991H48aN8fPzY+jQobz33nu89NJLdOjQAYvFgtlsZuDAgbzxxhu8++67fPDBBzz//PMMGjRIHX2p1S7lNcloNHLbbbcxbtw4Tpw4wV//+ldefvlldu/eXWkhbak5srKyWLBgAQ899BDTp08nKiqKBx98kB49enhXrbV8fHxo1qwZDz/8MKNHj/ZsfBYSEkLPnj154IEH6N69u6d+ZGQkEyZM4NNPP2XGjBm8+eab3HPPPbRo0QKAoKAgbr31Vm6++WZiY2M9IVf79u35+9//zsCBAz2v1bNnT2655RYGDhxYq0ahi1wKBvelvMKeg8FgoE6dOixfvpyOHTt6F3usW7eOadOmMWzYMG6++WZCQkLg9JSVjRs38tBDD5GTk8PDDz/MpEmTiIiIYM+ePcyYMYOMjAxatWpFw4YN2bNnD4WFhQwdOpSRI0cSHx/PG2+8QZcuXRg9ejSxsbGeNUzWrFnDo48+Svfu3SksLOSDDz4gMzOTHj16MGTIEPz8/Lw/pshFN3LkSI4ePcru3bu1LtFZ2O12Fi5cyNSpU7nmmmt45JFHfrVWkdRsaWlpvPzyy6xevZpnn32WIUOG1PiRRI8++ijvvfceO3bsoFmzZt7FIuKlZ8+eAGzcuNG76A9zOp189NFHHD16lI4dOzJ06FAiIiKw2+0kJCRgt9uJiIggMjLSc3NdLj4+nk8//RQfHx/69evHVVddVan8j3JX2LU4OzubL774giVLluB2u+nYsSORkZGeTZmq0C2C/AGGCjsK5uTkcOzYMQ4cOECzZs0YP348Q4cOBa/fiZpq1apVDB48mDfffJMHHnjAu/h3OZ+f1/nU+S1/tr3In/Xyyy/zr3/9q0ZcB6pl4LVx40ZmzJjBgAEDuP766wkODvaUFRcXM2PGDPbs2UOHDh0YP348UVFROJ1OUlJS+M9//sMnn3wCp59sT548mVtvvZWgoCC2bNnCZ599RocOHbj66qupX78+BQUFfPXVV2zYsIEHH3yQLl26UFRUxKeffkp2djZdu3alX79+CrzkslDgdX5SUlJ466232Lp1K127duXxxx8nKChIHYoarPzftqCggOeee45t27bRs2dPHnroIerWretdvcYpD7y2b99O8+bNvYtFxMvFCry++OILEhISaNeuHf3796dOnToUFBQwa9YssrKyuPLKKxk4cOCv+pHHjx/nq6++wsfHh169enk+38VQvlPqihUrOHjwIMnJyZ61inSNrL7cp3cQDAgIoEmTJvTq1YuBAwfSt2/fWnEdrOhCBl4itYECr4vkfAOvU6dOkZiYSEREBNHR0ZjN5krlJ0+eJC8vj4CAAM8ujJxeJHDPnj2enaTq1q1L8+bNadiwIQC5ubkkJycTFBRE3bp1sVqtOBwOUlJSOHXqFHFxcYSEhOB0OklKSsJmsxEaGkp4ePivnsyJXArVIfCqCqGS2+3m5MmTfPjhh6xevZro6GgGDBjA8OHDady4sXd1qQGOHTvGkiVLWLVqFWlpaQwZMoQ77riDmJiYy/77eCko8BL5fS5G4OV2u0lOTqa4uJigoCDq1KmDxWLBZrOxa9cuDh06RFBQEEOHDv1V4FVcXExqaioGg4GwsLBfTS3+sypem202GykpKaSkpJCXl0dxcXGlNW+pEHydz23DueoaDIazlnk712udS8X3+jOv5d3W+8/n8lufw/vPv8W7rvefvRlOb84VFBREVFQU9erVIyIiwrvaRVfx9+1yUOAl8vso8LpIDOcZeP1eLpfrV4sPejvfE/HZ6p3tuMjFVJUCrz179rBt2zaKiopo0qQJnTt3rhJTByt+N/fv38+cOXPYsGED4eHhNGvWjNDQUPz8/LR1dA1gOD19o6SkhNzcXI4ePUpOTg69evVi4sSJnnU1asP5WoGXyO9zoQOv3zrP2O124uPjSUpKIiAggM6dO1daR/a32opcCBfrdyw1NZVNmzZx8uRJwsLC6Ny5My1atLjsywgo8BL5fRR4XSQXK/ASqamqQuBlt9tJS0tj+vTpvP/++2RnZ9OnTx8efPBBrr322vPeDOJSsdlsbNu2jaVLl7JixQpPKGKz2c4ZjEvV5nK5sFgsnjBz0KBBDB06lK5du16278flosBL5Pe50IHXbyktLWX9+vUYjUZatWpFVFSUZgpItVdQUMD333/PtGnT2L59OzExMdxxxx3cfvvtl30tSQVeIr+PAq+LRIGXyO9TFQKvI0eOMGPGDAC6dOlCREQE69evJz8/n5EjR3LllVd6NpaoKoqLi8nKyiI7O5vi4mLsdjsul+uiPO2US8d9er0SHx8f/P39qVOnDhEREfj7+3tXveDO9LT8TMe8na3O2Y6fLwVeIr/PpQy8XC4XeXl5GI1G/P39MZvNf+r7LnK5ORwOPvjgA7Zt20bXrl1p0qQJycnJbNiwgW7dujF06FDi4uIqtfmz17nfQ4GXyO+jwOsiUeAl8vtUhcBr/fr1PPvss/Tt25d///vfACxdupQFCxYQFRXFuHHjaN26daU2brebvLw8kpKSSE1N9exYlZWVRVRUFL169aJ9+/YXvCN0KTtXUrVcrH/7iq+bnZ3NiRMn8PX1pX79+ucMeiu2TUhIIDc3l9DQUBo2bPinp38o8BL5fS5V4HWxzkUil4vb7SY3N5ennnqK9PR0XnzxRRo3bkxWVhZvvPEG+fn5DBgwgGuvvda7KSUlJaSnp5OcnExBQQHZ2dnEx8djtVrp1KkT3bt3r7Q52R+lwEvk96lJgZfm74jIH1ZcXExpaSlRUVHExMR4jjdo0IC4uDji4+PJyMio1IbTT7czMzOZP38+zz77LJ999hkffPABzz77LP/5z3+YO3cuaWlpv1o098/STUbtdbH+7Su+7pIlS5gxYwarVq0iKyurUr0zKW+bnp7OZ599xqxZs9i1axdlZWXeVUWkhrhY5yKRy8XhcJCXl0dgYCANGzb0BFQGg4EOHTpQWFhIfHw8DofDuynFxcVs27aNV199lbfffpsvvviC//3vfzz++OPMmDGD3bt3U1pa6t1MROS8KfASkT+stLSUkpISrFZrpWljoaGhBAQEkJWVRX5+fqU2nO4E+fn5cfToUbZs2UKXLl344osvWLJkCSNHjuTkyZOsX78eu93u3VSkyqj41GvBggW8+uqrzJs3D6fT+asd184mIyODDz/8kNdff51t27YRGBioteRERKTacDqdFBYWYjAYCAwM9Mw4sFqtREZGUlJSQlZWFjabzbspvr6+lJaWsnLlSgwGA48//jhr167l8ccfx2Aw8PPPP5OUlOTdTETkvKlXLSJ/WG5uLmlpabjd7kpTsCwWC2azGZvNdtbQyu124+vrS7169Wjfvj1t27Zl8ODB9O3bl4CAANLS0nC5XN7NRKoMg8HAwYMHef/999m4cSMhISG0b98ei8Vyzt/dkpISVq1axaxZs0hMTKRZs2Y0adLknO1ERESqErvdTkpKCiUlJVgsFs8oRqPRiK+vL06nk7KysjNe39xuNyaTidDQUFq0aEHv3r3p1KkTQ4YMIS4ujpycHAoLC72biYicNwVeIvKH2e12SkpKftWJcblcuE8vIH6m0SputxubzUaDBg3o2bMn9evXh9MhQExMDFFRUVrEV6qFhIQE9uzZQ7169bj++usZMWIEFovljE+yK7LZbOzYsYP09HQ6d+7MhAkT6Nq1K2VlZTVivQQREakdXC4XJSUlv3rA6Xa7PRsCnakvyOl+pNVq5corr6RNmzae44GBgcTGxuLn56e+oIj8KWc++4iInIfg4GBPOFXxJt1gMGAwGHC5XL8Kw8q53W6sVivh4eH4+vp6jtnt9gu+dpfIxdKvXz/+85//MHnyZBo3bkxubu55LUodFBTEX/7yF/7zn/9w7bXX4uvrS15e3jnbiYiIVCU+Pj5ERUUREBBQqc9X3hd0u91nfZDjcrk8I7wCAwM9x51Op/qCInJBKPASkT8sICCAkJAQHA5HpYW2yxezDw4OJiAgoFKbcuXD2C0WCyaTyXOsvFOkG3+pDgICAoiMjMTPzw9/f/9fPeE+G6PRSHh4OMHBwURHR2MymdS5FxGRasdsNhMeHo7JZKo06t9ut1NQUIDFYiE4OBiz2ezdFE7393x8fCqV/1ZIJiLyeyjwEpE/rPwmv3wr6fLOSUpKCpmZmTRq1IiIiAjvZh5utxun0/mr0WEi1ZHD4fhDv78lJSXnNSpMRESkqjGZTAQHB+NwOMjOzvZsVlRSUsLRo0cJDg6mUaNGntH83sqnPp5tRsCFUP4eZwvdRKSys01Dro5qzt9ERC45Hx8f/Pz8KCoqIjU1laysLACOHTtGamoqLVu2JDIy0rvZWemGX+TC0ndKREQupvLAy+l0kpGRQVpaGgAFBQXs27ePsLAwmjVrViWuRwq8RM5P+eybmsDgrkLjRQ0GA3Xq1GH58uV07NjRu1hEvIwcOZKjR4+ye/duzzbQl1pWVhZr1qxhzZo1HDlyBKfTidVqpVevXtxwww00bdqU1NRUfv75Z/z9/WnXrh0NGjTgyJEjzJ49m8TERKZMmUKLFi0oKipi8eLFbNy4kZiYGO677z78/f2931KkSlq6dClr1qyhSZMmDBw4kMaNG3tXOaOSkhJmzZpFWloaXbp0YeDAgWedCny+Hn30Ud577z127NhBs2bNvItFxEvPnj0B2Lhxo3eRiJyHjRs38tNPP7Fv3z5OnTqFxWIhNjaWcePGMXDgQABWrVpFTk4OzZs3p23bthQWFrJs2TK+++47RowYwS233ALApk2bWLZsGbm5uUyYMIEuXbp4vdvvs2XLFsaOHUtgYCCtWrU67+UHRGojHx8fEhMTSUhIIDc317u42qlygVdYWBg///wzV1xxhXexiHgZPXo0Bw4cYN++fZct8Co3a9Ys3n//fTIyMhg0aBB33XUXXbt2BeDQoUP8+OOP2O12+vTpQ+/evUlLS2Pt2rVkZmZy3XXXERMTQ2lpKb/88guHDh0iPDycYcOGnXUIvEhVUxUDr+3bt9O8eXPvYhHxosBL5M/bsmULr7/+Ops2baJJkybccccdjBo1iqCgIGw2G9988w3x8fG0bNmSq6++GqvVyrZt29i8eTNdunShb9++ABw+fJhdu3ZRVFTEVVddRdOmTb3f6ndJSkrio48+YtmyZSQlJWG1Wr2riMhpZWVltG3blo4dO/Lf//7Xu7jaqXKBV3h4OGvWrKFt27bexSLiZdSoURw6dIi9e/de9sCr4o46RqPR8x9AUVERJ0+e5NChQ0RFRdGjRw9Pm/L65UPdXS6XZz2jmjR/XGo+BV4i1ZcCL5E/z+VyedZmLe/HlffxXC4XqampHDx4kNLSUnr37k1oaOgZ+33la27h1Uf8o8rXjL2Y64SJ1CSG07us1oRpwFUq8IqMjMTHx4d69erh5+enHatEzqL8wr93714GDhzIN998g4+Pj3e1KiM9PZ1du3ZhNBpp0qQJTZo08a6iRbul2vvhhx9YtmwZzZs3Z/jw4Z6gac2aNSQkJNCkSRPat29PWFhYpXbFxcVMnz6dlJQUevbsyfDhwyttz/5HaEqjyO+jwEvk4nI6nWzbto3s7Gzq1atHy5Ytz3vZij/TR/wzbUWk+qtSgddzzz1HQUEBGzduJCMjQ1OZRM6i/GlY8+bNueGGG7jxxhur9OKCmZmZHDp0iMjISBo0aPCnR6+IVEU7duxg7969REdH0759e6KjowFYvHgx27dvp169egwbNowGDRpUaldWVsaKFSs4deoUzZo1o0OHDn96uoVGeIn8Pgq8RC4up9PJzp07cbvdNG7cmJCQkBoxekREqrYqFXiJiIjUNJmZmRw5coTMzEy6detGvXr1vKtccAq8RH4fBV4iIiI1jxbIERERuYiSk5PJycmhXr165z19Q0RERERE/hwFXiIiIheRn58f0dHRNG7cWNN5RUREREQuEQVeIiIiF1HLli3p2rUrkZGRWq9EREREROQSUeAlIiIiIiIiIiI1igIvERERERERERGpURR4iYiIiIiIiIhIjaLAS0REREREREREahQFXiIiIvKb3G639yERERERkSpNgZeIiEgtVVpaSlpaGseOHePIkSOe/w4fPkx8fDyZmZnYbDYMBoN3UzgdhNntdrKyssjKysLpdHpXERERERG5LBR4iYiI1FI7d+5kypQpDB48mPbt29OlSxe6dOlCmzZt6N27N88//zxHjx71bubhdDpJSUnh9ddf54033iA7O9u7ioiIiIjIZaHAS0REpJbKzs7m0KFDxMbGMn78eO655x7uu+8+Hn74YW688Uays7PZtGkTeXl53k0BMJvN1KlThyFDhjB48GACAwO9q2g6pIiIiIhcFgq8REREarGQkBBuv/123nvvPf73v//x0ksv8eqrr/Lmm2/SokUL4uPj2b9/P/n5+eTl5XmmPO7bt4/jx49jNps9I8N8fX1JTU0lKSmJ0tJS3G43BoMBh8NBYmIiycnJ2Gw2hWAiIiIictEp8BIREamhzrb2Vrny8sLCQjIzMyuVlZWVERkZidVqJSMjg5ycHObOncvDDz/M3//+dx544AH+97//sXv3bt544w3efPNN0tPTmTNnDjNmzODw4cPY7XYAMjIymDZtGjNnziQrKwuXy1XpvURERERELjQFXiIiIrVU+UiroKAgoqKiKpVZLBYOHTpERkYGwcHBGAwGEhISOH78OG3atOG2227j2muvxWq1kp6eTkZGBgBXXXUVkZGRzJs3j5ycHJxOJwcOHCAmJoY2bdoQFhaG0ajuh4iIiIhcXOpxioiI1DDlgdK5pg6aTCY4vXj9t99+y+rVq1m7di2rVq1i9uzZpKamEhMTQ9OmTbFarTgcDurUqcOwYcO44447GDJkCKGhofj6+mKxWDzTG6+66ipyc3PZtGkTixcvZv/+/Vx11VUMHToUPz+/c448ExERERH5sxR4iYiI1FK+vr4AzJw5k5tvvplBgwYxYMAABg4cyD333ENsbCzjxo0jNjYWs9mMr68vderUwWKxeKYlVpyeWB6wNW/enKuvvpqFCxfyzjvvkJ2dTWRk5BkXtRcRERERuRgUeImIiFRzFUdylZSUkJycjMlkOudIKpvNBsDIkSN5+umneeutt3jrrbeYNm0a06ZN45ZbbqFp06Zw+j18fX0JDQ0lNDQUo9F41rW4goKCuPLKK/H39ycyMpLevXtTr14972oiIiIiIheNAi8REZFqrjzYSkhIYMaMGaxevRqr1XrOtbIcDgcAQ4cO5fHHH+f+++/n/vvv569//St33XUX7dq1w2g04nA4cLlcmM1mrFYrfn5+4BW0eU+fLCwsJCYmhpiYGBwOB06ns1K5iIiIiMjF9Ns9YREREakWEhMT+fbbb/noo49ITk7G19f3nCO8ysvz8/NJS0vzLvYor+d2u3G5XGcc2VXxvVJSUli9ejVBQUE4HA5++uknjh07Vqm+iIiIiMjFpMBLRESkGqoYOu3fv59XX32VL7/8kokTJ9K/f39KSkrOGExdLAaDwTOiLCEhgd27d9O2bVvGjx9P27ZtWb9+PTt27PDU9x4RJiIiIiJyISnwEhERqYbK19DaunUrM2bMYPfu3fTu3Zv77ruPq666itLS0nOGSna7naKiIsrKys4ZjrndbkpLSykpKak0PdHlclFaWuopW7FiBZs2bSIuLo7WrVt7dm1MTU1l7dq1JCcn43A4zjn6TERERETkz1DgJSIiUk1t3ryZDz74gA0bNtCvXz+mTZtGaGgoNpsNt9t9zsDLarUSERFBYGAgJpPJu7gSo9FIUFAQoaGhmM1mOD2qy2QyERYWRkhICDabjbVr15KZmcmoUaMIDw8HIC4ujsaNG1NQUMC2bdsoLi72enURERERkQvL4D5Xb1hERESqBLfb7RkZtXDhQj7++GNycnK47bbbGDNmjCdg+uc//8mMGTPYvn07zZs393qV/9+pU6dIS0sjLCyM8PBwLBaLdxU4/b4Oh4OMjAzKysqIiYnBarXidrux2Wykp6cDEBkZ6VkLrEGDBvj4+HheIz09nbKyMvz8/AgLC/OEZiJVQc+ePQHYuHGjd5GIiIhUUxrhJSIiUk0YDAZKSkpYvHgxX375JWVlZYwdO5axY8d6wi4qrI91rmmDYWFhXHHFFURHR5817OL06/j4+FC/fn2aNGniCbsMBgO+vr7ExsYSGxuLn58fjRs3pnHjxp6wq/yzREVFERsbS2RkJGaz+Zyjz0RERERE/gwFXiIiItXIihUreO211zh16hS33norDz74IMHBwd7VLrpzhWnlzlbvbMdFRERERC4EBV4iIiLVxLRp0/jf//5H3bp1efjhhxk7dqx3lUo0ikpEREREaisFXiIiIlWMd1B17NgxXnjhBX788Ufq16/PbbfdxtChQz3rYHnXFxERERGp7RR4iYiIVDHl0/3cbjcJCQl89dVXfPLJJ8TExPDII48wbNgwTCbTea/VJSIiIiJS2yjwEhERqUIqjtY6efIkTz/9NDNmzODaa6/lkUceoXv37p5yBV0iF4bb7cZkMlX6s/w2/YxERKSqU+AlIiJSBXiP1lqxYgX3338/u3btYvTo0UycOJEuXbp4tRKRC8HHx4ecnByOHTsGCpMrOXHiBK+++iq33norf/vb31iyZAlFRUX6GYmISJWnwEtERKQKKL95tNlsLF++nE8++YSff/6Zvn378p///If27duDRlWIXBT+/v4cOXKEDz/8kEOHDnkX11rJycn89NNPLFq0iEWLFrFw4ULmzZvH7t27vauKiIhUOQq8RERELrPyEMvtdrNx40Zeeuklfv75Z55//nn+9re/ERkZ6amrURUiF15AQAAOh4Pp06ezfPlyCgsLvavUOi6Xi++++47ly5dz9913s2XLFmbMmIHBYGD16tXs2rXLu4mIiEiVosBLRETkMqk4jbG4uJg5c+bw4osv4nK5eOihh7j++uuJi4vzbiYiF1hpaSkmk4lhw4Yxe/Zs3nnnHe8qtYrL5aKwsJCMjAycTicdOnSgadOmdO7cmebNm5OcnMyuXbtwOBzeTSkpKeHQoUMsXLiQTz75hFdeeYWJEydy++238+GHH5KRkeHdRERE5KJQ4CUiInIZuN1uz2itwsJC5s2bx9dff01BQQETJkzg//7v/4iKivLUFZGLp6CggE6dOvH444/j5+fH/PnzWbhwIXl5ed5VawWXy0Vubi4Wi4X69esTGhoKgNFopG3btthsNo4cOUJpaal3U8rKyjh48CBvvfUWn3zyCTt27GDbtm3Mnz+f2bNns3nz5lr7cxURkUtLgZeIiMhl5HQ6+fLLL/nggw8oKirixRdf5Pbbb69UR9MYRS4uh8OBn58fbdq04bHHHiMqKopnn3221k7bKx/h5Xa78ff3x2w2w+nF/cPDw7Hb7eTk5FBWVubdFIvFgsFgYPv27ZjNZv7973+zdetW3nrrLaKiotiyZQsJCQnezURERC44BV4iIiKXUMVpjBkZGbz66qvMmTOHFi1a8OSTT9KtWzfPzaWIXBputxuXy4XBYGDgwIFce+21BAYG8v7777NmzZpK9WoDh8NBSkoK+fn5+Pj4eEJ3g8GA2WzG7XbjdDrP+PNwuVyYTCYaNmxIq1ataNGiBcHBwbRv354WLVpgt9vPODJMRETkQlPgJSIicgmV3zgmJSXx6aef8tNPPxEXF8cdd9xBnz59sFgs3k1+t/IbUX9/f+8iETkDo9FYabTSmDFjmDBhAomJiXz11VecOHECTn9/zxTy1EQul+tXf1e3213p2JlGnzocDsxmM23btqV169aec5rVaiU6OhpfX1/vJiIiIheFAi8REZFLLCsri5deeolvv/2Wtm3bMnXqVHr06OFd7Q8zmUyehfBF5NzcbnelkZVhYWHcdNNNjBw5koSEBP73v/+RkpICZwl5ahqz2UxMTAzBwcG/Wpi+PPAyGs98G1G+PmFwcDABAQGe43a7HbvdXmn9QhERkYvJ4PZ+dCMiIiIXjPfN3aZNm3j33XdJSUmhd+/e3H777TRp0qRSmz/rrbfeYsqUKTRq1Air1YrL5fKuIiIVwquDBw8yfvx4Zs6cWak8NzeXd955h++//57rrruOiRMn0rBhQzjDd7smcTgcJCcn8+mnn5Kdnc2UKVOIjo4mPz+fLVu2MGfOHOrWrcuUKVMICgqq1PbUqVNs3bqV77//nm7dunHbbbcBsGfPHlavXk1mZibXXHPNBQ35RUREzkSBl4iIyCVgs9nYuHEjX375Jbt27WL48OHccsstNGvWDC7wzfP27dv5/PPP2blzJ/n5+RdkmqRITeR0OjEYDLRq1YobbriBkSNHgtf38eDBg0yfPp09e/YwcuRI7rnnnkojl2oil8tFfn4+06ZN4/Dhw0ydOpWWLVty6tQpPv/8cw4dOkSnTp247bbb8PHxqdS2PPBasGAB3bp182zCocBLREQuNQVeIiJSZbhcLs/6UwaDAZPJdNZpM9VJSUkJu3fv5oknniAzM5PJkydz4403EhER4V1VRKqgkydPcv/991NaWsqkSZMYPXr0r0Y21TROp5NXX32VjRs3ctddd9GvXz+OHj3KBx98QGRkJFdffTXdu3f31DUYDBiNRgVeIiJSZVT/uwgREakxVqxYwfXXX0/Lli256aabWLp0KU6nE6rZ7mjen/W7775j8uTJADzwwAPccMMNFy3s8n5vEfnz6tWrxz//+U/8/Px45ZVX2LRpk+fcVFOZTCbGjh3LoEGDeOutt2jXrh2TJk3CZrPRv39/T9j1448/8v7777N27VpKS0vx8fGhrKyMvLy8SusIOhwOioqKKCgowGazVXgnERGRi8M0derUqd4HRURELqXS0lJWrlzJypUrycnJ8YycKCoqIjw8nLp162IymbybVVnlU6FycnL44IMP+OyzzzAYDNx6661MnDiR0NBQuMDTGMtd6NcTkf+3QHujRo2w2Wzs2rWL7du3ExQUxBVXXOFdtUYJDw8nIiKCrKwsSktLadasGaNGjaJPnz6e3RYTEhJITk7G6XTSuHFjQkJCcDqdBAYG0qpVK8+aZy6XC6vVSkxMDM2bNycsLMzr3URERC4sTWkUEZHLLiUlhX/961+YTCamTJlCq1atWL9+PbNmzaJp06Zcc801tG/f3rsZLpcLh8Ph2fnL6XRit9sxGo1YrVasVutlmxKZnJzMihUrePrpp/H19eXtt9+mT58+Wk9LpBqz2WzMnTuXyZMnM2TIEKZOnUqrVq1q9fc6PT2dI0eOUFBQQPfu3QkPD/euckYXI/AXERGp6PLcBYiIiJzmdDopLCzE19eXqKgooqOjAahbty7NmzcnKSmJxMRE72YAZGdns3LlSl577TWee+45brvtNtq3b8+AAQN49913ycvL825y0VR8fpSSksIHH3zAU089RZcuXXjjjTfo3r17rb4pFqkJLBYLffv25amnniIxMZHHH3+cjIwM72q1SkJCAjk5OcTExGC1Wr2Lz0phl4iIXGwKvERE5LKy2WwUFBTg5+dHnTp1CAwMBCAsLIxGjRqRnp5OcnKydzM4PcJrz549vP/++xw5coS2bdsyYMAAADZv3szGjRvJz8/3bnbBVRypcODAAV5//XWWL19Ot27duPvuuxkyZIhnVzcNrBapnsq/u/Xr1+fOO+9k4MCBpKam8s4773D06FHv6rVGZGQkzZs3Jy4uzjPNUUREpCpQ4CUiIpdVWVkZOTk5GAwG/Pz8PFMQfX19CQwMpLi4mMLCQlwul3dTfH19sdlspKSk0KZNG5577jm++OIL/v73vxMQEMD27dsvySiv8rBr3759fPrpp6xYsYJmzZrx0ksvMWTIkDPWFZHqxWAweEKvsLAwJk+ezKhRo1i4cCHff/99rV2IvVmzZlxxxRWEhIRUq7UWRUSk5lPgJSIil1VJSQnp6emUlpZWuqF0u924XC4MBsNZQyKbzUZISAhXXnklLVq08Bxv0KABcXFxF/3mq+JorZ07d/LWW2+xdOlSxowZwzPPPEP9+vUr1ReR6q3iuah58+Zcd9119OjRg6VLl/L+++97yjSSU0RE5PJT4CUiIpeVyWTCz88Ps9kMFW4ojUYjRqMRl8t11ptHp9NJQEAAzZs3p169ep7j/v7+BAYGnjUou1DKX3/t2rW88847HDt2jBtvvJFbb72V2NhYfHx8vJuISA1Qfk5q374999xzD3Xq1OGHH37ghx9+8IT3IiIicnkp8BIRkcvK39+fmJgYfHx8sNvtnqmL5bsv+vj44OPjc8YbSJfLhclkIigoqNLaMXa7HYfDccY2F5Lb7Wbbtm188MEHHD16lCFDhvCvf/2Lxo0be1cVkRqk4mjUrl27MnHiREJDQ/nwww9ZtWqVd3URERG5DBR4iYjIZeXj40NAQAB2u53CwkLsdjsARUVF5OTkEBISQp06dc4YXpUfczqdZ1zj62JbuHAhTz75JFlZWdx999384x//8K4iIjVUxXPSNddcw1133UVWVhZz5sxh3bp1nrKzjVAVERGRi0uBl4iIXFa+vr4EBweTk5NDUlISxcXFABQUFLBv3z6io6Np0KCBdzO4jDeSBQUFfPDBB3z44Yf4+flx++23M2rUKE/55fpcInLplX/fe/XqxeTJkzl27BjTp0/n4MGDoI0qRERELhsFXiIictmFhobStm1bAObPn8/SpUv56aefKCwspEuXLrRp0waAlJQUTpw4QX5+Ppy+kXQ6nZWmQnJ6qqPD4cDhcFzw8OnkyZPMmTOHzz77DJfLxe23387NN99MUFCQ5710gytSe5R/3wMCArj99tvp06cPR44cYcaMGezevdu7uoiIiFwiCrxEROSyCw4O5r777qN9+/a89NJLDBs2jPfee482bdowYMAAIiMjycrKYu7cuXz++eds27YNp9OJj48Pbrf7jKHW2Y7/Gfn5+cycOZMXXniBJk2a8I9//IMxY8Z4yhV0ichf//pXhg4dyscff8yCBQtIS0vzriIiIiKXgGnq1KlTvQ+KiIhcSgaDAX9/f+rWrUvz5s3p27cvo0ePpn///p7pjOW7NdpsNnx8fGjSpAkBAQGEhYXRunVrmjdvTkBAAJxeCL9Ro0ZcccUV1K9f/4Lslnj06FH+/e9/s2bNGvr378+ECRO46qqrMBr/37Mjt9utwEtECAgIIDQ0lNLSUhYtWkR6ejr9+/f37EQrIiIil4bBfaEff4uIiFwEZWVlJCYmcuLECQICAujateuvgqyzhU5nO3423vV//vlnvvrqK5YsWULPnj3597//TatWrc5YV0QE4MCBAzz44INkZ2fz8MMPM3r0aCIiIryriYiIyEWiKY0iIlIt2Gw2EhIScLvdNGjQwDOyqqKzBU9nO342Fevv37+f9957j/fff5+xY8cydepUT9jlXVdEpFzz5s157LHHaNWqFdOmTWPHjh3eVUREROQi0ggvERGpFux2O1lZWZhMJkJCQvD19fWucsGtXbuWV155haSkJEaNGsUNN9zgWVxfRORc3G43c+fOZebMmfj7+zN58mSGDh3qKVNgLiIicvEo8BIRkSrvUtwYVnyP0tJSli1bxtdff83BgwcZNmwY//rXvwgKCvJuJiLym4qKili0aBFvv/02zZs351//+hfNmzeHS3RuExERqa0UeImIiFTgdrv54YcfmDlzJgkJCfzjH/9g/Pjxv1ovTETkfDkcDt59910WL15M/fr1efLJJ2nUqJF3NREREbmAtEujiIjUeuWjLEpKSvj444+ZOXMmZrOZRx99lEGDBhEYGOjdRETknMrPLUajkbZt25KVlcXatWspLCwkNjaWsLCwSvVERETkwlHgJSIitZ7BYCAjI4Mvv/ySBQsWUKdOHW655RbGjBmDv7+/d3URkfNiMBg8YZbFYqF+/foUFBSwatUqioqKaNeuHX5+fgq7RERELgJNaRQRkVrP4XDw5ptvMm/ePBo0aMDf//53unbt6l1NRORPy8nJ4YEHHiA9PZ1x48Zx8803Ex4e7l1NRERE/qRf7+kuIiJSi6Snp/PPf/6TBQsW0LVrV55++mmFXSJy0YSEhPDvf/+byMhI3nnnHdauXUtJSYl3NREREfmTNKVRRERqrZ07d/LJJ5+wZcsWOnTowG233Ubbtm0BcLlcmmYkIhec0WgkKioKt9vNwYMH2bhxIxaLhY4dO3pXFRERkT9BUxpFRKTWKS0t5cSJE0ybNo0NGzYwatQo7rzzTho3bgxaQFpELgGXy8WCBQu488476dq1K8888wwdO3bEarV6VxUREZE/QIGXiIjUOps3b+aJJ56gqKiIsWPHcsMNNxAbG+tdTUTkokpPT2fevHl8/PHHBAYG8sEHH9CkSRPvaiIiIvIHaEqjiIjUaBVHazmdTj7//HPeeecdiouLGTVqFLfccgsNGjT4VV0RkYstMDCQli1bkp2dzZ49e0hOTqZRo0ZERkZ6VxUREZHfSYGXiIjUaOUBVmZmJkuWLOHdd98lPj6ehx9+mL/85S9ERESAwi4RucTKzzm+vr40bdoUh8PB/Pnz8fHxoVOnTvj6+no3ERERkd9BuzSKiEiNV1BQwMKFC3nooYdwu9288cYbXHfddQQFBXnqKOwSkUup4jmnQYMGXH/99QwdOpSVK1fy1ltvecq0+oiIiMgfozW8RESkxqk4WistLY2PPvqI+fPnExUVxYQJExg7dqxn9IRGdonI5VTxHHTw4EFeeeUVjh8/zl/+8hfGjBlDYGDgr+qJiIjIuSnwEhGRGishIYFvv/2WBQsWYLVaeeaZZ+jdu7enXDeQIlIVVDwXrV27lo8//pjk5GTuuecexo4d611dREREzoOmNIqISI104sQJPv/8cz777DOaN2/O22+/TefOnSvVUdglIlVBxXNR3759mTRpEjabjXnz5rF8+fJKdUVEROT8aISXiIjUCBVHSOzZs4ePP/6Ybdu20aNHD2688Ua6du3q3UREpEoqKSnhxx9/ZPr06YSHh/PYY4/RqVMnhfQiIiK/g0Z4iYhIjWAwGHC73ezbt4+ZM2eyc+dOrrzySh588EGFXSJSrfj5+TFu3DgGDhxIUlIS7777Llu2bPGuJiIiIr9BgZeIiNQYO3fu5MUXX2TLli1cc801vPrqq8TGxnpXExGpFh566CGuueYavvvuO+bOncuJEye8q4iIiMhZmKZOnTrV+6CIiEh1M2/ePKZPn05eXh4333wz48ePx9/f37uaiEi14evrS3h4OCaTiQULFpCUlMSAAQOwWCzeVUVERMSL1vASEZFqLScnh7Vr1/Lpp59SXFzM9ddfzy233KKwS0RqjBMnTvDggw9y7NgxJk+ezI033khUVJR3NREREalAUxpFRKTaKi0tZcmSJTzzzDM4HA7uu+8+Jk+erLBLRGqU2NhYpk6dSteuXXnrrbf4+eefvauIiIiIF01pFBGRaqPiTozFxcW88MILzJo1i3bt2jFp0iSGDRuGyWT6VV0RkequXr16+Pr6kpqayqZNm/Dz86N169ag852IiMgZaYSXiIhUeeWz78tv6A4dOsSrr77K0qVLqV+/PrfccgvDhw/3rGujmz8RqYkGDBjAbbfdRmlpKfPnz2f37t1QYZdaERER+f8p8BIRkSqvYnh17Ngx5syZwyuvvELjxo159tlnGTJkCEbj/39JU9glIjWR1WplxIgRjB8/npycHP73v/8RHx8POu+JiIj8iqY0iohIlVZxtNaRI0d48sknmTt3Lrfddht33nknXbp08W4iIlJjGQwG2rZtS25uLuvXryc7O5uGDRsSEREBGuEqIiLioV0aRUSkWli3bh3z5s1j9+7ddOrUiUcffZS6det6V6sydNMpIhdTWVkZn332GQsXLuTKK6/krrvu0s6NIiIiFSjwEhG5BJxOJyUlJZSWluJwOHA6nVpv5TwYDAasVitbtmzhs88+4/vvv2fs2LH861//IiwsDKPRiM1mu+zBktFoxGw24+vri9VqxdfX17uKiNQSLpeL0tJSSktLsdlsF+V873a7CQ8P5+TJkzzyyCPk5OQwZswYrr/+eqKioigpKfFuIheIwWDAbDZjsViwWq1YrdbLfg0SEZEzU+AlInKRVBzhc/LkSZYtW8ayZcs4dOgQKSkpVSKoqeoMBgMGg4Hi4mKKi4s9x8PDwzEajbjd7gt+I/l7uN1uTCYTgYGBNG3alD59+jBo0CB69eql3SJFapGK3/Ps7GxWrFjBsmXL2L17N0lJSZSWlno3+dPMZjMOh4OcnBw4fb4MCQnBbDbjcrm8q8uf5Ha7MRqN+Pn5ERcXR7du3Rg0aBD9+/fH39/fU0fnexGRqkOBl4jIBVaxw1tQUMDixYtZsWIFWVlZhIaGYjabPWGInJvb7cbHxwc/Pz98fX0pKyujuLgYl8t1WcOuitxuNw6Hg9LSUkpKSujSpQtjxoyhdevWnnLdBInUTOXfb4fDwYoVK1i8eDGJiYmEhYV5zvcX4/tfHrgHBQVhNBo9o8pcLtdFeT/5f9xuN06nE5vNRl5eHq1bt+bqq6+mT58+nnL9/EVEqgYFXiIiF4nL5WL+/Pl89NFHZGVl0aNHD2666SbatWtHUFCQd3Wp5hISEvjpp5/4/vvvycnJYciQIdx99900atTIu6qI1EBr165l+vTpHDlyhHbt2nHTTTfRtWtXz2LyUnOkpKSwdu1avv32W44fP06nTp144IEH6Nixo3dVERG5jBR4iYhcQBWf7H722Wd89913WCwW/va3v9G1a1ccDgc+Pj4YjUbvplLNORwOHA4Hdrudt956i5UrV9KhQwfuuusurrjiCu/qIlKDLFq0iC+++IK8vDzuueceRowYQVlZGb6+vjrf10BOp5OysjLMZjOffvop33zzDbGxsdx+++2ekV4iInL56QosInIBlYdd8fHxzJ07F5vNxr333kv37t0xmUy6+anBzGYzVquVoKAgz03PihUrWL16NU6n07u6iNQAbreb7OxsFixYQGJiIpMmTWLYsGGetZ50vq+ZTCYT/v7+WCwWxo0bxw033MAvv/zC4sWLKS4urjLT7UVEajtdhUVELrCTJ0+yYsUKMjIy6NWrFwMGDIDTN0ZS87ndburXr89NN91EaGgo27ZtY9OmTd7VRKQGyMvLY+XKlSQkJNCmTRvGjRuHxWLR+b6WcLvdhIaGcttttxEXF8f+/ftZvXr1RdmkQEREfj8FXiIiF9jx48dZu3YtPXv2pG/fvp7jWsS2dij/dw4NDWX8+PEUFxezbt0672oiUgPk5uayfPlymjRpwsiRIz1Bl873tUP5v7PD4WDcuHGEhISwYsUKBV4iIlWEAi8RkQssJSWF7du307x5cy1gW4vVqVOHfv36UVBQwI4dO7yLRaQGKCgoYMuWLURERNCrVy/vYqklfH196du3LxaLhS1btmCz2byriIjIZaDAS0TkAsvLy+PEiRPUrVtXuzHWYhaLhRYtWlBaWsrJkye9i0WkBigtLeXYsWMEBgZSp04djeyqpUwmEzExMZhMJo4fP47D4fCuIiIil4ECLxGRC8xut1NSUoKvr693kdQyRqMRl8ul6S0iNZTL5aK4uBiTyeRdJLWQwWCgpKREa7iJiFQRCrxERC4Ct9utJ/3i4XK5vA+JSA2h871UpPO9iEjVocBLROQiMBgMesIrHroZFqm59P2WivT7ICJSdSjwEhERERH5E/SAQ0REpOpR4CUiIiIiIiIiIjWKAi8REREREREREalRFHiJiIiIiIiIiEiNosBLRERERERERERqFAVeIiIiIiIiIiJSoyjwEhERERERERGRGkWBl4iIiIiIiIiI1CgKvEREajm32+19CIfDwfLly5k9ezYpKSk4nU7vKiIicpGd6fwsIiIi50eBl4hIDVVaWkp6ejoJCQkcOXLE89+hQ4c4efIkBQUFuN1uDAZDpXY2m40jR46wYMECFi5cSFZWVqWbLpfLRWFhIZmZmZSWllZq+2e53W5sNhtZWVnk5eXpZk9Eahy73U52djbHjx+vdG4+cuQIhw8fJicnx3PuMxgMuFwuSktLycrKIjc31/vlqh23201eXh5ZWVnYbDYAysrKyMjIID8/H4fD4d1ERETkD1HgJSJSQ/3yyy888cQTXHXVVXTs2JHOnTvTpUsXWrVqxfjx4/n+++8pKysDr1EEeXl5LFq0iNjYWO655x6aN2+O2Wz2lJeUlLB8+XKeffZZdu3a5Tl+ITgcDuLj43n11VeZM2cOdrvdu4qISLWWkpLC66+/zqhRo+jYsSNdunShc+fOtG/fnrZt2zJjxgzPuRmgsLCQnTt38uqrrzJ79uxqP+K2rKyMOXPm8NprrxEfHw/A/v37ef7555k/fz7p6eneTURERP4QBV4iIjVUeno6OTk5REVFce211/LII49wzz338H//93+0aNGCNWvWsGDBAtLS0iqN8goNDWXYsGFMmjSJvn374ufnV+l1fX19KSsrIzk5+Vejw/4ss9mM2WwmPT2dgoICLBaLd5U/RCPFRKSqKCkpYd++fVitVq6//nruuusuHnroIe655x5uvvlmtm/fzrRp00hJSQEgICCAhg0bMnToULp3747ReO7u+8U4553Pa55PHavVSl5eHunp6Z5zfMOGDRkxYgSdOnUiODjYu8l5O9v7n+24iIjUbKapU6dO9T4oIiJ/3NatW1m8eDETJkygRYsW3sWXzP79+ykoKKBXr1489thjjBw5kqFDhzJs2DCaNWvGnj172LVrF2azmXbt2nna2e12XC4XWVlZJCcnk5+fj6+vL76+vrhcLhISEli/fj2HDx+mbt26NGjQAH9/fwwGA1lZWRw5coTjx4+TkZGBw+EgICDgVzdo+fn5HD16lISEBDIzM3E6nQQGBpKbm8v27dvZtGkTAHFxcQQGBuLj40NxcTHHjx/n6NGjpKSkUFBQ4Plc5Z87NzeX1NRUUlNTyczMpKSkBF9fX3x8fCq9/6U0a9YsSkpKuPfee72LRKSaS05O5uOPP2bgwIH07t3bu/iMcnJyWLVqFd27d+eZZ57h2muvZdCgQQwfPpzrrruOLVu2sHbtWqKjo4mKiiIwMBCr1UrdunWJjIz0hER5eXkkJCRw/Phxjh8/TlZWFk6nE19f30qjcrOysti3bx8JCQnk5eUBcOrUKRwOB35+ftjtdk6dOkVmZia5ubmcOHGC48ePk5OTg9Fo9JzfDQYDdrud9PR04uPjiY+PJy0tDYvFQkBAAJyegmmz2UhLS+Po0aPEx8d7zvEBAQG4XC7i4+NZvXo1SUlJ1K1bl7CwMOrUqeP5+/n5+WEwGHC73aSmprJv3z4SExMpKyvDYDCQkZGB2+3G19fXM9WzsLAQf39/jEYjdrud/Px8cnNzPX9Hg8FASUkJSUlJJCQkEB8fz6lTp/Dz88NqtcLpa0hWVhYpKSlkZ2eTlpZGaWkp/v7+mEwmz8/zt/z444/s27eP++67708FdyIicmGc+xGRiIhUS0ajEafTSVFREdnZ2ZXKGjduzPXXX09xcTF79uwhMzPTU/bLL79w77330rVrV/r168cjjzzC5s2b4fTUmm+//Zb33nuP5cuX88ILL/DVV19RVlaGw+FgwYIF3HDDDfTp04eRI0fy+uuvn3F6yvr165k8eTI9e/Zk9OjRvPXWW5w4cYK9e/fy+uuv8+OPP/LJJ5/w8ssvc/z4cQB2797NP//5T/r168fAgQN58MEH2bhxo+c1s7Oz+eGHH3jssce4/fbbuffeez2vKyJyMf3e0a5Go5GSkhJPSFXR9ddfT//+/Vm3bh0nT57E4XCwc+dO/ve///Hll1/icrkAWLduHffeey+DBg2iT58+XHPNNbzxxhscO3bM81olJSXMnTuXQYMG0bdvX2655Ra++OILXn/9dRYtWoTD4SA1NZUFCxbwzDPP8MILL3D77bfTu3dvbrjhBr755htKSko8I6SSkpKYMWOG5zzfr18/vvrqK0pKSjzvmZyczHvvvceYMWO46qqruPrqq3n99dc5efIkp06d4pNPPmHu3Ll8//33PPXUU6xatYpNmzbx3//+l/nz53uuR4WFhUyfPp2ePXvSp08fpkyZwuLFi3nuuedYtWoVpaWlxMfH8+mnnzJr1iwKCwvhdJi3YsUKZs6cyerVqz2f68CBA/z3v//l6quvpm/fvlx//fUsX77c83fLycnh888/56GHHuIf//gHkydPZvr06eTk5HheQ0REqheN8BIRucCqygivgwcPcvz4caxWK23btiUiIsJT5uPjg4+PDzt27MDHx4dWrVoRHh7OmjVrmDdvHtHR0QwfPpyuXbtSUFBAVlYWJpOJBg0aYLFYKCoqwul0MmrUKEaPHo2vry+zZ89mz549dOzYkVGjRlGvXj2ysrI4deoUYWFhnvdfuHAhGzZsoHXr1lxzzTU0a9aMzMxMzxP7iIgIcnNzadu2LePHj6dNmzZs2rSJ+fPnExERwbBhw+jevTtFRUVkZWVhNptp0KABpaWlrFmzhhUrVtCxY0euvfZaunXrRtOmTX81LfNS0ggvkZqrfITXoEGDznuEV3Z2NqtWrSI4OJguXboQGhpaaQRRYGAgOTk57Ny5kzZt2lCvXj0SExPZsmULgYGBtGnThu+//55169YRERHBNddcQ79+/WjQoAHx8fEEBwfTrl07jEYj8+bNY+XKlbRp04arr76a1q1bc+TIEU6ePEmjRo3o1KkTxcXFzJ49m7lz59K1a1euvvpq2rRpw6lTp7Db7dSpU4e4uDhOnjzJggUL2LlzJ126dGHo0KHExsZy4MABcnNzueKKKygpKeHnn39m165d9OnThxEjRtC+fXtSU1Px9/enQYMGBAQEkJOTg6+vL2PHjmXw4MEUFRWxbt066tatS8uWLTEajcyePZvdu3fTrVs3rrvuOho3bsyhQ4fYtWsXLVu2pF27dqSnp7N161aKi4vp06cPfn5+5Ofns3//fo4fP05UVBTt2rXjwIEDLFu2jFOnTjF8+HB69OhBcHAwO3fuxOVy0axZM4qKiliwYAF79+5l4MCB9O3bl969exMbG3ve0+s1wktEpGrRCC8RkVrKz8+PyMhIAgMDKSoqIicnh7Vr17J//34mTJjAY489xjPPPMPEiRPJyMhg+fLlAFx11VWMGjWKzp07M3HiRNq1a0daWhoLFy7EaDQydepU/vGPf/D888/TuXNnNmzYwL59++D01Jr169eTk5PDvffey9///neeeuopBgwYgNVqpV69eowdO5bu3btz9dVXM3r0aPz9/Vm1ahX79u3jhhtu4N///jdTp07ltttuIzMzk+XLl1NSUoLJZMJoNGK1WhkzZgx33HEHAwYMICwsTOu3iMhFdSHPMYGBgYSEhECFKeZmsxl/f3/P1PKcnBwaN27M3/72Nx577DGefPJJpkyZgq+vLydPniQrK4vMzEw2b96Mw+Fg6tSpPP/88zzyyCOe0MnHxweDwYDZbKasrAy3202PHj245557eOGFF7j++utxuVwcOHAAp9PJL7/8ws6dO2nSpAl/+9vfePrpp/nvf/8LwKpVqzh8+DDx8fEcP34cHx8f/vWvf/HPf/6TZ555huHDh+Pv74+fnx9Dhgzhqquuok+fPkyaNIlWrVoREBCAv78/VqsVh8NBcnIyP/30E/7+/rzyyis88cQT3HLLLYSEhHimGBoMBkwmE35+fp5pi5webWexWDw/L5vNxqJFizh06BBDhgzh3//+N8899xyPPvooOTk5bNmyhaysLE/bevXqMWrUKO6++2569+7tma4pIiLVjwIvEZFayul04nQ6K62VUlpaSnh4OKGhoZ56Xbt2pWHDhtjtdkpLSykqKqKgoICSkhIKCgooLi4mNTUVHx+fSuvLBAcHc+WVV+Ln54fD4aCkpITk5GTMZjPR0dGedbWsVis33ngjN954Iy1atODUqVMUFhZSVFREUVERJ06cOOPn6tKli+dz2Ww2HA4HVquViIiIXz2N/73TjURELheHw4HD4cBoNFZa/9DtduNwOAgKCuLuu+/moYceokmTJp5yp9NJWFgYoaGh2O12kpKS8Pf3p3nz5oSFhQFgsVgYPHgw0dHRnpDLbrfToEEDevXqRWxsLADFxcXExcXRoEEDTCaTZ43E4OBgBgwYQFBQEJze5OTKK6+kXr16JCQkYLfbK63pWO7mm29mxIgRhIaGeq4dRUVFnDp1CioEhiaTicLCQlJSUjAajYSFhXmuFaGhofTr14+6detiNBo9UzvPxmAw4HQ6yc/PJyEhAaPRSOvWrT3l0dHRdOvWjejoaPLz83E6nQQFBREWFub5O4uISPWmwEtEpJay2WxkZmZ6FjE2GAxkZmby3XffcdNNNzFkyBAGDBjADTfcwKxZszyLIpffiJW3MRgMlJaWkpCQwCuvvMLAgQMZNGgQ/fr1469//SurV6/27Bh54sQJioqKsFgslabwWCwWjEYjFosFt9vtuflxu92VPtfEiRM9n2vs2LGVPldZWRn+/v5ER0d7RkeIiFQ3NpuNgoIC8vLysNlslQJ7o9GIyWTCZDLxzTffMHDgQAYMGEC/fv249dZb2bZtmyfoOXnyJEVFRVitVk9oZDKZPCOkys+zTqeT4OBgYmNjPQ8VykdJmc1mXC4XZWVlpKWlkZ2dXen1AgICqF+/PsHBwTgcDmJjY+nZsychISHcd999dOjQgRtvvJFVq1Z5rhdUCLi8/7f8szudTiIiIoiOjsbf3x9O7+Lr5+fnGd11NobTI7+MRiNutxuXy4XVamXdunVMmjSJfv36MWzYMK699lrefPNNNm/eTHp6umeTlfLQ8HJudiIiIheGAi8RkVqqpKSEnJwcSktL8fX19dzgWCwWiouLyc7O9uzk1aVLF/r374+/v/+vAilO32CUTynJy8sjOzvbMxpgyJAhnqfq5fXP5kw3Me7Ta3t5fy6bzUaXLl3o168ffn5+OJ1OzGYzQUFBnp0bRUSqm6KiIvLz83G73ZjNZs/DAYPBgNFopLCwkFWrVrFgwQIOHDhARkYG+fn5FBYW4nA44PR50/u/ct4jo9xuNz4+Pvj7+3t2d3S5XDgcDk/d8uDI5XL96vUMp0cJG41GIiMj6dSpEwMHDsRsNpOZmcmJEydYsmQJmzZtwm63e+r+lvJwzHuEm/c1pPy1KoZgTqeT4uJiHA6H53XKQ7qysjJyc3NJT0/HbrfTuXNnOnfuTHh4uGdEndVq9ezcKCIi1dtvX21ERKRGKt+G3u12ExQUREhICC6Xi4YNG3Lvvffy008/sWPHDnbu3MmWLVuYP38+Dz74II0aNcJkMlXaVczhcODr60vnzp156aWX2L59Ozt37mTXrl2sXr2ajz76iMGDBxMeHk6DBg08Uxy9b7rKXwuv4Mtut9OoUSPuvfdeFi9e7PlcW7durfS5zGYzDocDp9N5xtcWEakOMjIyKCgooEGDBoSHh1cKvDi9C+Hnn39OcHAwS5cuZefOnfzyyy989dVXdOvWzROU1a9fn8DAQM95Ea8gq+J51u1243Q6fxVkcXpUma+vL9HR0URGRlY6x5aUlJCenk5eXh4mk4mCggIABg0axA8//EBKSgrffPMNTqeTdevWkZCQgNPprDTCt6LyAMtwekpkWloapaWlnjLva4fBYMDlclX67OXT50tKSjyvZbfbueaaa/jxxx8916ht27axfv16nnjiCdq2bYuPjw82m80T7ImISPWnwEtEpIZyuVyYTCaCgoKIioqqVHbixAm+++47LBYLrVq1omHDhsTFxWG324mPj/dMcwQ4duwYr7zyCq+99hq5ublQ4aYkMDCQoKAg6tWrR2ZmJsePH6/wLv9vIeMpU6awdOlSzGYzwcHBZGdnc+zYMU8du93O7Nmzefvtt1mxYkWlp+yBgYE0btwYh8NBfHy8Z70XgJMnT/LKK68wbdo0cnNzPe1ERKo6l8uFv78/UVFRv5o6N2/ePFasWEHv3r1p0qTJr0Y1OZ1OcnJyMBqNNG3a1NN+z549HD58mNzcXAIDA4mNjaWoqIhDhw55zt1FRUX89NNPpKWlnddIWPfpaeUWi4XQ0FDy8/NZuXKlJ9jKzc1l06ZNpKen06hRI3bv3s3XX3/N4sWLPa/RsGFDzzT28mnrDocDk8lEeHg4nA7VOP1zCQwMpF69erhcLhISEjh69Cic/uzr1q0jIyMD5+n1J51OJ0ePHuXAgQOekCo/P5/t27eTk5ODv78/wcHB1KtXj4KCAnbv3u0ZxXbq1Ckef/xx3nzzTZKTk38ziBMRkerJNHXq1KneB0VE5I/bunUrixcvZsKECbRo0cK7+JI5dOgQmzdvZteuXRw7dowTJ06wYcMGtm7dyvLly8nMzKRfv34MHDiQ0NBQfH19KSwsJC0tjYMHD7Jnzx5+/vlnFixYwNGjR4mJiaFz584EBARw8OBBNmzYQFFREZGRkURFRZGfn09ycjJbt25l//79LFy4kFWrVpGfn0/btm1p2bIlJpOJ3NxcTp48yY4dO9i/fz+rVq1i+/btBAYG0qJFC4KDg1mzZg3Hjx/HarVSv3593G43KSkpHD58mD179rBx40YWLFjAkSNHPJ+rrKyMffv2kZiYSOfOnT2LL19us2bNoqSkhHvvvde7SESqueTkZD7++GMGDhxI7969vYvPKDMzk5UrV3LkyBESExPZt28fu3fvZv369SxcuJD9+/fTunVrbrjhBmJiYigtLSUpKYmdO3cSGhpKly5dSEtLIzExke3bt7N//34OHjzI8ePHOXDgAI0aNaJz585ERESQm5vL0aNH2bx5M8eOHSM+Pp6UlBQKCgpo0qQJHTp0IDc3l927d5OVlUW3bt2IjIzEbrd7Pp+/vz9du3YlMDCQrKwsT7D2yy+/sGDBAvLy8ujfvz8DBw6krKzMM7r30KFD7Nmzh9WrV2Oz2ejatSvt2rXDZDKxa9cu9uzZQ25uLpGRkeTl5bF582bq1atH69atiYyMxGazkZqayi+//MLhw4fZtm0bCQkJ5OTk0LFjRzp27IjZbObw4cPs3buXY8eOkZqaysGDB0lKSsJsNtO8eXPatm1LQEAA6enpbN68mcOHD7N161a+/fZbNm7cSGxsLJ07d8blcrF582by8vLo16/fH1oL8scff2Tfvn3cd999BAcHexeLiMglpsBLROQCqyqBV3p6Olu3bmXFihWsXr2ahQsXsnjxYn788UeKioq47rrruPHGGyuN/mrRogVBQUF8/fXXvP/++yxbtoySkhJuvfVW7rnnHgICAjAajaSmprJ9+3Z27NiBxWKhT58+XHnllaSkpPDuu+8ye/ZsNm3aROPGjfnnP/9J37594fSOjK1atSItLY3//ve/LFy4kCNHjtC1a1cmTZpEhw4dsNls/PLLL2zdupWUlBQ6duzoWQR53rx5vPfeeyxdupT8/Hxuv/127r33Xvz9/SksLOTEiRPk5eXRqVMn6tevX+Gncfko8BKpuf5I4JWfn8+BAwf4+eef+fHHH1m6dKnn/Lxu3TquvfZapkyZQr169QAoKysjJyeHY8eOUa9ePbp3705ERASbNm1ixowZ/PTTT/j4+NCtWzcsFguNGjWiQYMGRERE0KJFC9LS0njllVdYuXKlp175w4pOnTpRVFTE8ePHPaFUnTp1cDgcJCcnc+rUKcLCwmjTpg0RERHUrVuXxMREvvrqK7755ht27drF3Xffzd13301wcDDR0dGYTCY2b97MJ598wjfffMPu3bsZMmQIQ4YMITQ0FLPZTEpKCrt27WL9+vU0aNCA0NBQjh07RlxcHE2aNKFOnTq0a9eOnJwcvvjiC7788kvy8/Np3749hYWFtG7dmo4dOxIUFERoaChHjx5l5syZbN++ndDQUHr27Im/vz+RkZFcccUVREVF4evry4YNG5g5cybz5s3j5MmT3Hnnndxxxx3Uq1eP0tJS9u7dC0Dv3r09O1H+Hgq8RESqFoPbe5y0iIj8Ke+88w4PPfQQP/zwAyNGjPAuvmTy8/NJSUkhKyur0vbqDoeDsLAwYmNjqVu3bqU2AIWFhRw7dozs7GzcbjeBgYHExcURGRnpqZObm0tKSgolJSVERkbSoEEDjEYj6enpHDt2zLN2SmRkJI0bN8bPz6/Se6SlpXH48GFKSko8N0n169fHYrFgs9k8N1pWq5VGjRoREBBAUVERx44dIysrC7fbTUBAAI0bN/Z8LpvNxqlTpygqKqJu3boEBgZWes/LZeDAgeTk5LBz507vIhGp5jZv3sxVV13Fs88+yz//+U/v4jMqLS0lNTWVjIwMiouLPcfdpxdlb9asGY0aNfIcL1+EPTs7Gz8/P+rWrUtZWRknTpzg5MmTuFwuYmJiqFu3LkVFRfj6+hIaGuo577rdbo4ePUpgYCApKSmsWrWKI0eO0Lt3b2677TYcDgeZmZmUlZURFRWFn58fLpeLvLw8ioqK8PHxITIyEqPR6Bl1lZqaSn5+Pr6+vrRo0cITznF66mFSUhKZmZkUFRV5pqbXrVvXM50wJyeHtLQ0iouLqV+/Pv7+/mRnZxMYGEhoaCgWiwVOj4Y7duwYxcXFWK1WMjMzmTNnDgMHDmTSpEkYjUZKS0s5efIkKSkpWCwWIiIiCA4Oxm634+fnR506dQAoLi7m5MmTns8VFBRE48aNiYqK8vzdyndrLL8e/V73338/c+bMYdeuXTRo0MC7WERELjEFXiIiF1hVCbzOV/kaLRfb+bzP+dQ5Xxfytf4MBV4iNdcfCbx+jz9zHisoKGDTpk0cOnQIs9mMwWAgMzOTlJQU2rVrx8CBA2nZsqV3M1wu1xnXQzzb8YrO9XnPVX4uGzZs4JVXXmHgwIHce++9lXZn/C1/9n3PlwIvEZGq5bevWiIiUuNdipsAzvN9zqfO+bqQryUi8lsu1vnmj76u0+mkoKCA5cuX8+yzz/LII49w77338v7772O1Whk0aNAZwy4qLCDv7WzHKzrX5z1X+W8pKyvDaDQSFRVFSEgIBoPhvF/vfOuJiEjNcu4rl4iIiIiInFVVmzBhNBqJiIjggQce4Mcff2Tt2rWeTUj++te/EhcX592kyrNYLLRt25YpU6ZwzTXXnFcAJyIitZuuFCIiIiIiNYjBYMBisRAbG0uXLl3o3r07vXr1olOnTsTGxmKxWKpcSHcuBoOBwMBAGjVqRJ06dTRqS0REzkmBl4iIiIhILaPASEREajoFXiIiIiIiIiIiUqMo8BIRERERERERkRpFgZeIiIiIiIiIiNQoCrxERERERP4ErYclIiJS9SjwEhERERH5E6rbjociIiK1gQIvERERERERERGpURR4iYiIiIiIiIhIjaLAS0REREREREREahQFXiIiF4Hb7dYixuKh9X1Eai6d76Uine9FRKoOBV4iIheBwWBQp1c8dDMsUnPpfC8V6XwvIlJ1KPASEbnAzGYzVqsVm83mXSS1jNvtxmg0YrVavYtEpAYwGo34+fnhdDq9i6QWcrvd+Pn5KfQSEakiFHiJiFxgISEhxMbGkpGRQVFRkXex1BJ2u50jR45gtVpp2LChd7GI1ABWq5W4uDiKiorIycnRSK9ayul0kpqaitPpJC4uDrPZ7F1FREQuAwVeIiIXWHR0NO3bt+fYsWPs3bvXu1hqiZycHDZu3EhgYCBt27b1LhaRGiAgIIBOnTqRk5PD9u3bFXjVUjabjc2bN2O32+nYsSM+Pj7eVURE5DJQ4CUicoHFxcXRt29ffv75Z9auXes57nK5KtWTmqn8hjcvL48vv/wSPz8/+vbt611NRGqAsLAwBg8eTHx8PN9//z1G4//rWut8XzuU/zv7+Pjw9ddfk5uby+DBgzWNXUSkilDgJSJygcXGxjJ48GCCgoJYv349W7duhdNrvUjNZzAYyMrKYv78+aSmptKpUyd69erlXU1EaoCQkBCGDBlC/fr12blzJ0uWLMHpdOp8X0sYjUaKior49ttvOXz4MM2bN2fgwIEKvEREqgjT1KlTp3ofFBGRP85gMBAREUFZWRkHDx5kx44dNG3alOjoaOx2O0ajUQva1kBOpxOn04nD4eC9995j6dKldOvWjXHjxhETE+NdXURqAIPBQGBgIAaDgcTERDZs2EBERATNmjXDZrNhMBh0vq+BXC4XNpsNs9nMV199xWeffUbTpk258cYbadmypf7NRUSqCINbiw2IiFwUdrud7777jk8++YT8/Hx69erFuHHjaNeuHf7+/t7VpZpLTExk6dKlLFy4kPT0dPr378/dd99N06ZNvauKSA3jdrtZuXIl7733HidOnKBDhw6MGzeOrl27EhYW5l1dqrm0tDTWrVvHvHnzOHr0KG3btuW+++7jyiuv9K4qIiKXkQIvEZELzO12e57u5uXl8cMPP7B8+XLy8vKoW7cuVqsVHx+fMz4BdrvdGI1GzGYzAQEBGAwGSkpKsNlsOJ3OM7aRy8vtduNyuSgrKyM/P5/8/Hw6d+7MddddR/v27T119G8nUjOVf7/tdjs//fQTixYtIikpiaioKPz8/PDx8dEUx/Pkdrsxm834+vri6+uLzWarcrsdl4/uKioqIjMzk5YtWzJy5Ej69+8POt+LiFQpCrxERC6Sip3exMREfvrpJ5YtW8aBAwdITU2lrKzsVzdB5fVtNhulpaWe4/7+/vj4+Ggh5CrG5XJhNpsJDAykadOmXHXVVQwePJhevXphsVhANz8itULF73lmZibLli1j2bJl7Nq1i6SkJEpKSqDCOV7OzGg0UlZWVun6FxISgtvtvuw7YJY/kPLz86Nx48Z069aNQYMGMWDAAIKCgjx19G8sIlJ1KPASEbkEHA4HRUVFFBUVYbPZcDgcZ+y8+/n5UVZWxoEDB/jnP/9JWloa9913HyNGjCAuLo7i4uIztjuX8g54eVvvP5+LwWA4a1vvP/8W77ref/49vNt6//n3+LNtjUYjPj4++Pn5ERAQgJ+fn3c1EaklnE4nxcXFFBUVUVZWhsPhOO+HFd7nIu8//x5/pq233/Na56pb8XriLSAggH379jF//nwWLlzI4MGD+e9//4vNZsNut3tXP6ffunb9HhVfp/x8b7VaCQgIwN/f3/PaIiJStSjwEhGpYrZv38706dNJTk7myiuv5NZbb6V58+be1aSKc+tJv4jIH7Jt2zamT5+Ow+Fg0qRJDBgwwLuKiIjIOWlBARGRKqKkpITly5fzwgsv8M0339CzZ08efvhhT9il5xPVi8IuEZHfp/w617VrV8aPH4/dbufZZ59l7dq13lVFRETOSYGXiMhlVN65t9lsrF69mn//+9/s27ePt99+m7vuuouIiAhPXQUoIiJSk1W8zg0ePJgbbrgBX19fPvjgA1auXOkp0wMgERE5H5rSKCI1TnWYSlbxM+bl5fHNN9/wxRdf4OPjw3XXXceECRMICQnxbiYiIlKjVbw+FhcXs2TJEt5++23i4uJ45JFH6NChw6/q1UQ1/e8nInIpKPASkWorKyuLhIQECgoKCAkJoVGjRkRERFSrDmJOTg5z585l3rx55Ofn88gjj3DDDTd4ytXhFRGR2sjlcnl2Mn7ppZdYvnw5zZs35+GHH6ZVq1be1autjIwMjh07RmFhYbXty4iIVFWa0igi1ZLD4WDx4sX85S9/YfDgwdx5550sXLiQvLw876pVVn5+Pp9++ikzZ87EYrHw5ptvMmbMmEp11OEVEZHaqDzscrvd/O1vf6NPnz6sXLmS7777jmPHjnlXr5ZsNhs//PADt912W6W+TGFhoXdVERH5A0xTp06d6n1QRKQqKy4u5tNPP2X79u1ceeWVjBkzhqioKBITE/Hx8SEyMhI/Pz/vZpddxdFaR48e5b333mPJkiV07tyZ+++/n86dO+Pj4+PdTEREpNYyGAyYTCbq1q1LSUkJc+bMwW63c+WVV2KxWKCajoYuKChg1qxZ7Nmzh+7duzN69GhPX8bX15fIyEisVqt3MxER+R0UeIlItZOZmcmHH36I2+1mypQpDB48mOjoaLZv3056erpnSoC30tJSsrKyOHHiBMnJyRw8eJCtW7dy7NgxnE4noaGhmEwm72YXTHlnPD4+nk8++YSff/6Z1q1bM3nyZLp06eJ5mi0iIiKVRUZG0qBBAzZu3Mi+ffsoLi6mefPmBAQEVLuwCyA9PZ0PPvgAX19fpkyZwsCBAz19mYyMDMLCwmjYsKF3M0pLS8nMzOTEiROkpKSwf/9+tm3bxvHjxy9JX0ZEpDpR4CUi1Yrdbic9PZ09e/YQHR1N//79sVgsFBcXk5+fT3x8PGFhYbRv3967KZmZmaxevZpPPvmE9evXM3/+fF599VV++OEHnE4nbdu2JSgo6KIGTydPnuTZZ59ly5Yt9O7dm//85z9nDOdERESkspCQEDp16sTq1auZP38+HTt2pFGjRtVudLTNZiM1NZU9e/bQoEED+vbti4+Pj6cvc/jwYSIjI2nbtq13UzIzM1mxYgUff/wxGzduZO7cuUybNo2FCxficDguSV9GRKS60JlQRKoVh8NBUVERZrOZoKAgz3D/4OBg6taty6lTp8jIyMDlcnk3xWKxkJaWxvfff4/L5eKBBx5gxowZDBs2jJSUFNavX09ubq53swtm7dq1PPnkk5w4cYLRo0dz7733Ehoa6l1NREREzsBisdChQwduv/12unTpwrRp01iyZIl3tSqvvC/j4+Nzxr5MTk4OmZmZ3s3g9M8gKSmJH374AZPJxCOPPMK7777LwIEDL0lfRkSkOlHgJSLVSmlpKenp6TidTnx9fT1PMC0WC35+fthsNkpKSs4YeBmNRgwGAy6XiyuuuIKbb76Ze+65h4kTJ1KnTh2OHDlCUVGRd7M/raioiGXLlvHRRx8RHx/PkCFDmDRpkmdklzbLFREROX833ngjd911FwUFBcydO5fNmzd7yqrDNbWkpMTzcM7X19czJbO8L1NWVvabfRlO/z3btGnDTTfdxH333cf48eMval9GRKQ6UuAlItWKzWYjJyeHsrIyqNCxdblcOJ1OjEbjWYfx22w2QkJC6NOnT6UtzevWrUvjxo2xWq0XfB2QkpISNm/ezNNPP82RI0e48847uf/++4mOjvbUudDvKSIiUpP5+voyaNAgHnjgAZKTk3nzzTc5deoUVJNrallZmacvU/HzVuzLnG0dLpvNRlhYGFdddRUtW7aE032hqKioi9aXERGprs58VygiUkVZLJZKOxeVd+rKO4cul+uMT0QBnE4nFouF6OjoX00lvFCdw4pPlt1uN7NmzeKvf/0rderU4f777+e6664jICCgUhsRERH5fUJCQrjxxhsZMmQIaWlpvPjiixw/ftxTXpVHelmtViIiIrBarZU+Z8W+jNPprNSmXPkI9+joaEJCQjzHDQbDBevLiIjUFAq8RKRasVqtREZGYjQaKS0t9YRbNpuN4uJifH198ff3P+OTUbfbjdFoxGq1Vlrg9rdCst+rvLOZkpLCSy+9xKxZswgLC2P8+PGMGzfO0zmtyh1xERGRqqz8GhoUFMQtt9zCwIEDWbt2LXPmzCErKwtOX4+r6rW2vC9jMBgoLS31fM7yvozVaiUgIOCMI9bdbjcmk6lSX8btdl/QvoyISE3x67OoiEgVVr7Aq91uJzc317NORW5uLikpKURERBATE3PGp5zlnV+n03lRO4WJiYksWLCA1157DZfLxUsvvcS4ceM8o9K4gCPKREREapuK19DY2Fhuv/12OnbsyKpVq5g1axalpaW/qleVWCwWgoKCsNls5OXlUVxcDBX6MnXr1q209EFFl6ovIyJSEyjwEpFqxWw2ExgYSF5eHsnJyeTn5wOQl5fH/v37iYyMpGHDht7N4CKOqqr4uomJibz++us899xzjBgxgpdeeonOnTtjNpsrtREREZELo0GDBjz++ONER0czf/585s+fT0FBgXe1KsNsNhMQEEBubi5JSUmez1rel/Ydqr8AAEtqSURBVImOjqZBgwbezeAi9mVERGoiBV4iUu2EhoYyatQoQkNDeeGFF3j44Yd555138PX1pW/fvnTp0gW73c6GDRtYs2YNiYmJcPqpaGlpKQUFBdjtds/r2e12iouLKS4u/kNPS8ufIO/YsYNXXnmFTZs20b9/f+666y769++PxWIBdVJFREQuuPJra4MGDZg4cSINGjRgxowZLFmy5KzrYFUF4eHhjB49Gn9/f5555plKfZl+/frRsWNHbDYbP//8M2vXrv1VX6awsPCC9mVERGoiBV4iUu1YrVZuvPFGevTowaZNm3j77bfZs2cP3bt3p2fPnvj6+lJYWMjWrVtZtWoV+/btw+Fw4OfnR1hYGA0aNCAwMNDzegEBAdStW5e6detWWtvr99i5cyezZ89m1apVtG/fnpdffpnevXtXqlNVp1aIiIhUVxWvrUOGDGH8+PFkZmby3XffsWzZsiobegUEBDB+/Hi6du3KunXrKvVlevTogcViIS8vj82bN5+xL1O/fv1Km+BciL6MiEhNY3BryIGIVFN5eXmkp6dTUlKCv78/devWJTg4GIPBgM1m4+jRoxw8eBA/Pz8GDRqExWIhPz+f4uJigoKCPB3F4uJiSkpKAAgODj6vjqLb7fZ0sjds2MB7773H3r17mTBhAjfddBMxMTFnXGxWRERELp7s7GyWLVvG448/TkxMDB999BEtWrTwrlZl5ObmkpGRcca+TGlpqacvExAQ4OnL5OXlUVJSQnBwMP7+/vAH+zIiIjWdAi8RqZHKysrYu3cv2dnZRERE0K5du191/iqGVudz3Jvb7Wbp0qV8/vnnZGVlMWzYMMaNG3fWdTdERETk4isoKODZZ59l2bJltGrVikcffZROnTp5V6vySkpK2LdvHzk5ORetLyMiUpNp+IGI1EhOp5OCggKCgoKIjY3FZDJ5VzlrR/Bsxytyu92sWrWKDz/8kJSUFEaPHs1f//pXhV0iIiKXWVBQEFOmTOG6665jxYoVfPfdd5w4ccK7WpXndDrJz88nJCTkovRlRERqOo3wEpEaye12U1ZWhsFgwMfH54JPL/zyyy/5+OOPsVqt3HPPPYwcOdK7ioiIiFxG+/fv58svv2TRokWMGDGC//73v95VqrSL3ZcREanpFHiJiPwOWVlZfP755yxfvpzAwEAmTJjA0KFDsVqt3lVFRETkMjt48CAvvvgiycnJjB07lr/85S/4+vpW+Sl/Vf3ziYhUB3pMICJynhITE5k9ezZfffUV/v7+3HnnnYwePRqr1aotwEVERKqQ8mf6rVq14t5776Vhw4Z88cUXrFy5slqESVX984mIVAca4SUich5ycnJ47rnnWLhwIcOHD2fChAl0797du5qIiIhUQUuXLuW9994DYNKkSYwaNcq7ioiI1DAKvKRGcblcWt9ALrj9+/czY8YMEhMT6dGjBxMnTiQ2Nta7Wo2g75CIiNREZWVlrFixgtdee42YmBgefPBBunXrBpo+KCJSYynwkhqnpKSEhIQEUlNTKS4uPuOONiLnw8fHh+zsbFatWsUHH3xAs2bNuP/++2nfvj0mk4nCwsJq30F2Op0EBgYSExND48aN8fX19a4iIiJSrVV8mPPWW2/x448/Ur9+fR544AE6d+7sXV1ERGoIBV5S4xw6dIgpU6awYsUKCgoKqn0gIZfXmU6RNeV3qvzvFhoaysiRI3nhhRdo0KCBdzUREZEa5eWXX2bWrFmMGTOGW265hdatW3tXERGRGkCBl9Q4P//8MyNHjmTEiBGMHTuWvLw87yoi581gMGA2m/H19cXlcmGz2XA4HN7VqiWDwUBQUBCffPIJW7duZcWKFer0i4hIjRcfH89nn33GnDlzuPrqq3nyyScJCwvzriYiItWcAi+pcVasWMHgwYP59NNPufXWW72LRcTLK6+8wqOPPsrOnTvp0KGDd7GIiEiNEx8fz2OPPUZCQgIjRozgvvvuIzo62ruaiIhUY1qZWGoco9GI0WgkPz/fu0hEzqCwsBCr1VpjpmqKiIicS6NGjXjhhReIiYnhzTffZPXq1RQUFHhXExGRakyBl4iIiIiI1Cpms5mmTZsyefJkBg8ezMsvv8z8+fO9q4mISDWmwEtERKAGLcYvIiJyvkaMGMGdd96J1Wpl/vz5LF261FOmlV9ERKo3BV4iIgLq2IuISC1kMBjo06cPDz74ILm5ubz//vukpKR4ykREpPpS4CUiIiIiIrVWYGAg1157Lddccw35+fm88MILHD161FOuB0IiItWTAi8REREREamVysMsf39/JkyYwJAhQ9i6dSuzZ88mNTUVTo/0UuglIlL9KPASEREREZFaqXzaotvtpl69etxyyy307NmT9evXM3PmTPLy8irVExGR6kOBl4iIiIiI1GrlgVa9evV48skniYuLY/HixXz99dfk5OR4VxcRkWpAgZeIiPx/7d13fFRVHvfxz0wmvZAEkgAhBkIIJRB66CBNRHBVBFEsiIrgoujaVtd9FHctC6u7iiiKuAoiShXpRWpCCVUSamghoSUBQtpkMpny/PGQeWBEgdVVMvm+X6+8yNzzO3cuM5lJ7nfOOVdERKTaq5y2GB4ezoMPPkh8fDz/+c9/+O6777BarT+qExGRG5sCLxERERERqfYunbbYtWtXHnzwQQDmz5/Pt99+S0VFxY/qRETkxqXAS8RD6NNGERERkV9P+/bteeONNzh+/Djvvvsue/bswWazuZeJiMgNSoGXiIcwGAyUl5ezbNkynnrqKQYOHMiQIUO47bbbmDx5MuXl5e5dfndbt25l+vTpZGZmuj41FREREbkRhISE0K1bNx5++GG8vLx4+eWX2bp1q3uZiIjcoBR4iXgIu93O9u3bWbJkCd9//z2pqamkpKSwatUqvvvuO1auXEl+fr57t99VRkYG8+bNIycnRyPURERE5Ibj4+PDqFGjuOOOO9i1axfz588nMzPTvUxERG5ACrxEPMTKlSuZNWsWNpuNjz/+mFOnTpGRkcGBAwdo3bo1//jHP9iwYQOlpaXuXX83gYGBhIWFERAQgMlkcm+W35jWJBEREfmxwMBA7r77bsaOHcvKlSuZMmWKe4mIiNyAvMaNGzfOfaNIVZaVlcX06dPp378/ycnJ7s0eyW63s3jxYrKzs+natSu33347vr6+BAYGEh4ezoULF0hPT8fpdOLj40NZWRmrVq3CaDQSGRkJgM1m4+DBg6xevZqgoCAuXLjAokWLKC4uZtu2bXzwwQdMmjSJM2fOUKdOHfbs2cOHH37I+++/z969ewkLC6NOnToAbNiwgc2bN1NWVsa8efP45z//ycyZM3E6nTRs2BCn08myZcv4/PPPSUlJ4eDBg3h5edGgQQN8fHw4fPgwU6dO5d133+X999/n0KFDJCYmEhwcDMCZM2f4/vvv2bVrF9nZ2bz11ltMnTqVnJwcYmJiOHjwIP/617/44IMPOHDgADVr1iQyMtIV6Njtdr7++mvefPNNpk2bRmpqKr6+vsTFxV3yqFYf69atY+PGjYwcOZKoqCj3ZhERkWqvZs2aREdHk52dzb59+zh79ixt2rTBZDLhdDr1oZGIyA1IgZd4nOoaeB04cIDs7GwqKirw8/MjOjoao/H/DeIMDw8nPDycgIAAQkNDKSgo4OuvvyYkJISWLVsCkJ+fT1paGmlpaTRt2pTCwkK++OILcnNzOXHiBAcPHiQ9PZ0TJ06Qn5/P6dOn2bNnDz/88ANZWVmEh4fTrFkzvL29Wbp0KYsXLyY3N5dDhw5x4MABDh8+jNlsJiIigsjISDIyMti4cSPHjx/H19eXli1b0qhRIwoLC1myZAkLFiwgKyuLw4cPc+HCBXx8fKhduzY1atQgOzubzz77jK1bt2IymdixYwd79+4lNzeXiooKsrKy2LlzJxkZGZw4cQIfHx+aNm1KQEAAFy5cYMOGDSxbtoydO3dy9uxZjh8/jsPhoG7duoSEhODt7e32CHu2ysDrscceU+AlIiLipjLQCg8Pp169ehw9epR169YRFRVFfHw8Xl5e7l1EROQGoCmNIh7A29ub9u3bY7fbeeutt3j33XdJS0tztdeuXZuhQ4cycuRI+vbtS506dfD396eoqIgLFy4AcOLECQoLC2nVqhV16tTBz8+PGjVqcPToURo3bsz8+fPZsmULjRs35t///jc2m41JkyaRkpJC//79OX36NLt27cJms1GrVi3Ky8vZuXMn99xzD2lpaSxbtgx/f38WLlxIYWEhQ4YMYeTIkdx+++2MHz+exx9/HF9fXxYuXMiWLVvo0aMH69at4+jRozz00EN88cUXLFmyhNLSUkwmE2azGbPZTOPGjVm+fDkrV66kffv2zJw5k/Pnz/Pxxx+7jm3nzp0cP34cgAMHDjB58mTi4uJYtmwZ6enpvPrqqxQVFfH555+TlZXletxERERELh291bp1a4YNG0b9+vX57LPPWLBgwWW1IiJy41DgJeIhEhIS+NOf/sTEiRPx8vLi6aefpmPHjrRo0YLRo0ezZcsW1x9s4eHhREVF4eXlhdlsBiA7O5uzZ88SHx9PWFgYFRUVGAwG6tWrR1xcHAEBAdStW5eEhATatm1Lhw4dqFevHlFRUURFReHj4+O6EmRFRQU1atSgQ4cOJCQk4OPjQ/PmzUlKSsLb25uDBw9it9sJDg7Gz8+PkJAQAMrLy8nJyaFu3br07NmTqKgoIiIiaNWqFdHR0eTl5XHkyBEAfH19iYyMJD4+Hn9/fyIjI6lfvz4tWrSgRYsWxMTEEBsbS82aNV0jtvLy8jhx4gQWi4XExERiYmLw8fFhyJAhJCcnc/bsWUpKSi4+otWPpmOIiIhcXdeuXRk9ejQ2m43Zs2ezcuVK18V3dBEeEZEbhwIvEQ/h7+9PmzZteOqppxgyZAixsbHY7XaMRiOZmZksWrSIH374AS4GXi1btsRgMHDo0CGKi4vJz8/HarVSv359vL29sVqtGAwGGjVqRExMDIBrSmLr1q2Jj493bfP19cXf3981hdJqtRIeHk6XLl2oVasWXAxTbrrpJmrUqEF+fj4lJSXYbDYqKiqwWCw4HA6Ki4s5c+YMNWrUoGHDhjgcDgCio6Np0aIFXl5e5OXlwcVLhderV4969eoBUFpaSmhoKE2bNqV+/fpw8Y9Ok8lEYGAgXl5eWCwWzp8/z+nTp1myZAkzZ87kiy++4PPPP2fHjh2cPn2agoIC/bEqIiIiV+R0OvHy8qJ79+4MGzYMi8XClClT2LRpE+jDIxGRG4oCLxEPYbfbsdvtAAwdOpS5c+eybds2du/ezYsvvkheXh5r1qzh0KFDBAUF0bJlSyoqKti+fTvZ2dnYbDZCQkIIDQ0FcIVNwcHBBAUFubZZrVbMZjNlZWVw8Q8/h8OBw+Fw/ZFX+cdgZdBUqaysDJvNhre3N0aj8bJgyel0YrFYuHDhAoWFhZSXl7uOoTK0ujRUq1yU38/PDy4eW0VFBWVlZVgsFte2yq/KPg6HgyNHjjBlyhQeeOABHnnkEUaOHMmMGTOwWq2Ul5djtVpdx1WdKOgTERH5eZcGWg8++CD9+/fnyJEjzJ49m23btl1WKyIivy8FXiIeoLi4mK+//pp58+a5NwHQqFEjWrRowfnz5zlz5gwA9erVw2g0cuzYMfbs2QNATEwMvr6+cEn48d98UmkwGKioqKCwsBCbzQYXA7ni4mKKi4upqKj4UbhiMBjw8/MjLCyM0NBQfH19XeGWzWajpKSEsrIyV6hnMBhcX9fKbDbj7+9Pz549GTduHAsXLuSbb75h/vz5LF26lClTptC1a1dMJpN7VxERkd+d++9O+f2NGjWKl19+md27dzNr1izy8/PdS+QGUvkhqIhUDwanfnOKh1m7di19+vRh4sSJjBkzxr3ZI5WWljJhwgTy8vJ4+OGH6dChw2Xtu3btYs6cOTidTgYMGEDXrl0B+Prrr1m0aBFeXl60bduWW265hWbNmgGQkpLCjBkz6NKlC3369KFu3bpcuHCBL7/8ku3bt/Pss8/SsmVLzp07x4wZMygqKqJTp05069aNWbNmsWrVKpo1a8bw4cOpW7cu5eXlvPrqq+Tl5XH//feTnJzsuprjk08+SceOHTl79izvv/8+FouFW2+9ld69ewOwZs0a3nnnHZKTk7nrrrvw8/Nj8uTJhIaG8vzzzxMUFMSRI0dYvXo1x48f5+abb6Zv377Y7XY++OAD9uzZw5gxY6hbty5paWnMmTOHRx99lJtvvtn1GJ06dYqTJ0+61jCrTsaNG8f48eNJS0sjKSnJvVlERG4gdrudvXv3snfvXvLz8zEajdf14Y/8eoxGI/7+/hw7doy3336boKAgBg8eTLNmzQgICKCiosK9i/zGbDYbgYGBxMbG0qpVKyIiItxLRMSDKfASj1MdAy+AhQsXsmHDBoKDgxk8eDCJiYkUFxdjMBiYPn063333Hbfddhu33347cXFxAKSmpvLll1+SmprKY489xujRo/Hz88NgMLgCr86dO9O3b9+fDby+/PJLiouL6dixI927d2fevHnMnz+f0NBQhg8fTtu2bdm/fz8ffPABYWFhPPfcc9SpU4fZs2ezePFiHnjgAfr27UtZWRmzZs0iJSWFevXqMXr0aABmzZrFN998w8iRIxk2bBinTp3iww8/JCwsjBdeeOGqgVdGRgZjxoyhTZs2bN26lbfffpt27dpxzz33ULt2bXbs2MHs2bPJzs7mpZdecgWC1YUCLxGRqqOsrIw//elPzJgxg9LS0use7Sy/Pi8vL7y9vXE6ndhsNhwOh0bj3SAcDge+vr40bNiQ9957j759+7qXiIgHU+AlHqe6Bl5Wq5UtW7Ywb948NmzYwJkzZ/D19aWoqIikpCTuuece+vXrR8OGDV19Tp48ycqVK1m4cCH33Xcf99xzj6tt9erVfPrpp9x8880MGDCAmJgYCgoKXAuzvvrqq7Rt25b8/Hw+/fRTCgsL6d69O71792bevHmsWrWKyMhINm3axK5duwgKCmLYsGEMHz7ctQD9d999x0cffcS5c+cYNmwYDz30EA6HgwULFvDVV1+Rk5NDTk4OiYmJjBo1ittvv53o6Gj27dvHhAkTqFWrFuPGjSM4OJjMzEyWLl3K0aNH6devHwMGDMBmszF+/Hh27tzJCy+8QHJyMmVlZWzevJlvvvmGDRs2UFFRgcPhoFu3btx///106NCB8PBw1+NQHSjwEhGpOkpKSujcuTNhYWG88847WCwW1/IB8vswGo0/CrzkxhAeHs7q1av5y1/+wqRJk3jsscfcS0TEgynwEo9TXQMvAIvFwurVq1m6dCnHjx/H398fs9nsupJQ5dUWKx05coS1a9eSnZ3NgAEDLpsKeeTIEbZv306DBg1o3LgxNWrUoKysjG3btpGdnU3Pnj2Jjo6mtLSUbdu2UV5eToMGDYiLi2PatGns3LmTDh068MMPP7Bv3z7CwsIYOXIkvXr1ct3H4cOHSUlJYf/+/bRp04aBAwcSFBTEsWPHWLhwIdu2bSM3N5cuXbrwxBNPEBUVBUBeXh4bNmwgMDCQXr164evry9mzZ8nMzOT8+fM0atSIxo0b43A42LBhA6dOnaJbt25ER0djNBqx2+2udbtKS0sJCQmhf//+3HnnnZctsl9dKPASEak6iouLSUhIoHfv3syYMcO9WUTc7N69m1atWvHee+/x9NNPuzeLiAdT4CUep7oGXk6n85qnNDidTqxWK/PmzSM9PZ1WrVq5AqHr8VP3OWnSJDIzMxk6dCidO3e+Ys1P9f1vXGlfV9omV6bAS0Sk6iguLiYpKYn27dsze/Zs92YRcVNdzw1ERFdpFPEY1xPu5OTkMH78eGbNmoXD4aBDhw7XHXbxM/dZXl5OSUkJFosFs9ns3gw/0/e/caV9XWmbiIiIiIiIVA8KvESqocDAQJo3b86dd97JwIEDuemmm9xLfpHu3bszZMgQ4uPjMZlM7s0iIiIiIiIi/1MKvESqGafTSc2aNRk0aBAjRoyge/fuv/q6Ve3bt6d///7Exsbi6+vr3iwiIiIiIiLyP6XAS6Sa0VQ/ERERERER8XQKvERERERERERExKMo8BIREREREREREY+iwEtEREDTXUVERERExIMYnE6n032jSFW2du1a+vTpw8SJExkzZox7s4i4GTduHOPHj2fr1q20aNHCvVmqMKfT6Qoy8/PzSUtLIy0tjZycHAoKCqioqMBo1GdfVZnD4cBkMhEUFERMTAzt2rUjOTmZ2NhY91LxEMXFxSQlJdG+fXtmz57t3iwibnRuIFJ9KfASj6NfaiLXpzLwSktLIykpyb1ZqriysjLS09PZuHEje/fuJScnh/Pnz2M2m7Hb7RrZV8U5nU6MRiN+fn6EhYURExNDfHw8Xbt2pV27dgQHB7t3kSpOgZfI9dG5gUj1pcBLPI5+qYlcHwVenm358uVMmTKFffv20aFDB4YMGUKzZs2oXbs2vr6+2O129y5ShXh5eWG1Wjl//jwHDx5k4cKFrFq1ijp16jBy5EiGDh3q3kWqOAVeItdH5wYi1ZcCL/E4+qUmcn0UeHmWymmMdrud77//npkzZ3L27FkGDRpEmzZtiI2NJTw83L2beIDi4mKysrI4ePAgs2bNwmAwMHToUG699VYCAwPdy6WKUuD18xwOB7m5ucydO5fjx4/TsmVL+vTpQ506dS6rKyoqYt26dWzZsoWgoCAGDx5MfHz8NU3zLi0t5ejRo+zYsYOGDRvSrVs395JrVlZWxqFDh1izZg1xcXHccsst5ObmkpqaSmlpKYMHD9Z79i+kcwOR6uvq7+giIiJSZVROUczMzOSTTz7h3LlzDBs2jEcffZTWrVvrxMmDBQcH06JFCwYPHsxjjz2G0+lkypQp/PDDD+6lIh7L4XBw/vx5Vq5cybRp01i0aBHHjx93LyM3N5fvv/+eadOmsXDhQk6dOnXNI14tFgtZWVmsWrWKPXv2uDdf0U+NMTAajRw/fpwFCxawceNG7HY7TqcTh8OBzWb7yX4iInJ1CrxEREQ8TOXogMzMTG655Rbuv/9+9xLxcP369WPo0KHk5OSQmpp6xRN+EU9lMplo0KABDRo0wNvbm3PnzlFaWupqt1gs5Ofn43Q6qVevHvHx8fj5+V1zuGQ0GvH19SU0NJSAgAD35iv6qfUSLRYL3t7ehIeHExAQgLe3N/Xr1+fBBx/kj3/8IzVr1nTvIiIi10iBl3gch8OBw+EgNDTUvUlEriA4OFifInuYffv2sW3bNjp16kTr1q1d2/UcVy+NGzemd+/e7N+/n61bt7o3i3ikyvc5X19f6tatS1xcHOfPn+f06dOumrNnz3LixAmioqKIjY0lICAAg8GAt7c3XLyq7Z/+9CcaNGhAq1ataNSoEWPHjuXEiRNwMVCrdGmQtW7dOh588EHat29PXFwct99+OzNmzCA/P99VA7Bx40YeeOABmjdvzujRozly5AhWqxU/Pz/sdjsnT55kwYIFzJgxg4KCArg4lfXzzz/nD3/4Aw0aNKBt27aa0ioichVaw0s8zqZNm/jDH/5Ar169uP322ykqKnIvEZGLf6QHBQXx9ddfs2fPHlauXEnTpk3dy6QK+uijj5g2bRp/+tOf6NevH2FhYe4lUg0UFxezadMm3nzzTTp16sT48ePdS6QK0hpeP6+iooKjR4/y2WefUVBQQOfOnTlz5gwtW7bktttuAyAtLY3169cTExPDDz/8QGFhIY888gitWrUiJyeHhQsXsmLFCk6fPk3NmjU5fPgwcXFxPProowwcOBA/Pz9SU1NZsGABnTt3ZtCgQezevZslS5aQlpaGw+HgwoULGI1GV7++fftis9nYvn07CxYsYNOmTVitVuLi4oiOjmbnzp3cdtttjBo1iqNHj/LNN99w4cIFXnvtNWrUqMG6detYsGABWVlZnDt3juLiYtq1a8c999xDnz59rnmkWXWkNbxEqi8FXuJxdu3axQMPPMC+ffvg4rBzEbkyh8MBQIcOHfjqq69o2LChe4lUQePGjWPq1KnMnz+f5ORk92apRo4dO8bAgQNp2bIlM2fOdG+WKkiB18+rDLymTJlCRUUFt9xyCytXrqRJkyaMHj0ao9HIwoUL2bhxIwMGDGDbtm3s37+fUaNGkZCQQGpqKpMnT2bIkCEMHz4cgL179/Ltt9+SnZ3N2LFjiY+PJyUlhe+++46uXbvSs2dPPvjgA2w2GwMGDHAtYr9s2TLee+89BgwYwMMPP4zNZuNvf/sbx44d45FHHuGOO+7gxIkTTJ48mc2bN3PbbbfxxBNPkJ2dzYIFCygqKuLFF19k27ZtLFmyhNDQUIYPH05cXBx79uzh5ZdfxmQyMWHCBBo0aHDZyDP5/xR4iVRfCrzE46SkpDBgwABGjBjBo48+yrlz59xLROTiCK/Q0FD+9a9/sWzZMtatW0diYqJ7mVRBL774IlOmTCEtLY3GjRu7N0s1cuHCBdq0aUPz5s1ZuHChe7NUQQq8fl5l4DV58mT8/f0ZOnQoU6dOJSIigieeeAI/Pz+WLFlCRkYGDzzwAKmpqWzevJnRo0fTvHlz7HY7Z8+eJS4u7rJ9fv3116SmpvLkk0+SkJBASkoKCxYsoEOHDgwbNoxTp04REhJy2ZIaBw8e5PXXX6dHjx7cfffdmM1m/v3vf+N0OnnhhReIjo7GarWydu1aZsyYQevWrXn88cfJzs5m4cKFFBQUMHbsWObMmcOWLVt47LHH6NOnj2v///znPzlx4gQPP/wwTZo0wd/f39Um/58CL5HqS4GXeJzVq1fTp08fvvzySx544AH3ZhFx88477/Dyyy+zfft2WrZs6d4sVdBzzz3HJ598wu7duzVqr5ozm800bdqUxMREli5d6t4sVZACr59XGXh9+OGHhIeH8/jjjzNlyhRMJhNDhgzBYrGQmprKuXPnGDFiBGvWrGHt2rWMHj2ajh07AnDq1CnWrFnD/v37XYveFxQUUKNGDZ566inq169/WeD10EMPAbB582ZWrlyJ0+nE6XRy5swZDh8+zLBhw7j99ts5deoUH3/8MWFhYbz22mv4+fnhcDjYv38/kyZNIiEhgZEjR14WeP3xj39kzpw5zJ07l2bNmhEVFUVQUBA2m42VK1cSGhrK6NGj6datm9av/QkKvESqL831Eo9jNBoxGo0UFha6N4nIFZSUlGAymX7yClJS9VS+D1ZOWZXqy263u34eRKoTp9OJwWDA39+fhIQEatWqxYkTJ9izZw/FxcVERkbi6+vrqq/8HZiTk8Mnn3zC3/72N9566y3Gjx/PpEmTSElJwWg0/mjaoMlkwmq1snv3bv79738zbtw43n77bd5++21mzpzJqVOnXAvpWywWysrKKCsrw2q1wsWlBcrLy7Hb7Zftt5LBYKBGjRqUlZUxd+5c3nnnHd544w3Gjx/P5s2bsVgsrv+riIhcTn/9iIiIiIiIx6kM/Zs1a0ZAQABbt25lx44dmEwmEhMT8fPzw2azYTAYMBqN5OXlsX37djIyMnjsscfYunUr69evZ+nSpYwcORK73U55eblr/5UhU25uLtOmTSMiIoKvvvqKNWvWsH37dj766CMSExNdgXNwcDDBwcEEBAS4rghpNBrx9fXFy8vLtd9KTqcTh8NBaWkpjRs3ZurUqWzYsMH1tW/fPr766it69epFcHCwe3cRkWpPgZeIiIiIiHicysArJiaGsrIyVq1axbZt2/Dy8qJJkyauwIuLwVNJSQmnT58mPz+fDh060L59e5KTk4mNjcVqtWIwGFxfXBJ4lZSUsHv3bkJCQhg2bBhdunQhKSmJ0NBQiouLMZvN+Pv7ExkZSY0aNSgpKSE7OxsAm83Gzp07OXPmDHa73bV/p9OJ0WjEz8+P0NBQwsPDCQ0NpVOnTrRv35527dpx4cIFtm/fjtls1oheEZErUOAlIiIiIiIeo3JkVGWAFBwcjN1u5+TJk5SWlhIcHExERAQmkwm73Y7dbsfhcODv70/NmjUJCQkhPT2d7OxsDh8+zIoVK9i3bx82m821b6fTid1ux+l04u/vT1xcHMXFxaxYsYJDhw6xadMmNm3aRG5uLmazGaPRSFhYGAkJCTidTpYtW0Z6ejqbN29m165dXLhwwRWgXXofvr6+JCUlER0dzYoVK1i6dCnZ2dmsXLmScePGMWXKFLKzs13BnYiI/H8KvERERERExCNUhkVms5mysjKcTic+Pj7ExMSQkJBAkyZNiI6OhosjtCwWC2azGavVSlRUlGth+LfeeotmzZoxbNgwKioqaNeuHbm5uRQWFlJRUYHNZsNsNmOz2YiMjGTgwIHs37+fW2+9lSZNmjBlyhQiIiJo2LAhXl5e5Ofn4+XlxcCBA2nUqBFTpkyhTZs2vPLKK9SqVYvIyEj8/f1dAZzFYqG0tBSLxUKbNm0YOHAgVquVp59+mtjYWAYOHEhISAhjx44lKSkJPz8/94dCRKTa8xo3btw4940iVVlWVhbTp0+nf//+JCcnuzeLiJt169axceNGRo4cSVRUlHuzVEGrVq1ix44djBo1ipo1a7o3SzVitVqZPHkykZGRDBs2zL1ZqqDK5zQ6OpohQ4a4N1d7BoMBk8lEREQEzZs3p0GDBphMJoKCgoiLi6Njx440a9aM4OBgDAYDfn5+NGrUiKZNmxISEkJQUBBRUVHUq1ePJk2a0KlTJ3r16kWLFi2IjY111fn7+xMdHU2zZs2oU6cOtWrVIjw8nDp16pCcnEzv3r3p2LEjiYmJJCYmEhUVhb+/PwEBAa4pio0aNaJHjx707t2bZs2a0bx5c6KiovDx8aFWrVokJCTQoEEDfHx8CA8PJyQkhMjISBISEujevTuDBw+mS5cuCruuQucGItWXwVl52RARD6FLD4tcn3HjxjF+/HjS0tJISkpyb5Yq6IUXXuCTTz5hx44dNGrUyL1ZqpHi4mKSkpJITExk8eLF7s1SBVU+p+3bt2f27NnuzXIFV7qK4ZW23aiq0rHeiHRuIFJ9aUqjiIjAJYvviufQcyoicuX3wittu1FVpWMVEbmRKPASERERERERERGPosBLRETg4pQJ8Sx6TkVERESkulLgJSIiIiIiIiIiHkWBl4iIiPxPORwOUlNT+fTTT5k5cybnz593L7mhWK1Wjhw5wrRp05g6dSqFhYXuJSIiIiJyg1PgJfILacqQiMjPKygoIDU1lfnz57N69Wpyc3Mva7+W99Gr1Vyt/Xo5nU4cDgd2u/1X37eIiIiI/O8p8BL5hXTlHBGRn1ZeXk52djYlJSUEBQURGhrKuXPnMJvNrppreR+9Ws3V2q+Hj48P8fHxjBgxglGjRhEaGupeIiIiIiI3OAVeUi1VVFRw5MgRPvvsM959911ef/11unTpQv369Rk6dCg7duz40Sf6CxYsIDk5mdjYWG677TY++eQT17ScwsJCvvzyS2bOnMmiRYsYM2YMrVu35vbbbyclJYUdO3bw97//nXbt2jFw4EBmzpxJWVnZZfsXEfFE58+f5/jx40RFRdGmTRvq1q3Lzp07OXTo0GV1ZrOZRYsWMWzYMOrXr0/Lli15+eWXSU9Pd9Xk5eUxdepU+vfvT7169ejatSv/+te/OH78+GX72r9/P0899RRt2rShY8eOPPfccxw4cOCyGi7ub9y4cbRt25bk5GT+/Oc/s2/fPgCys7OZO3cuX3/9NUVFRQCcO3eOjz76iP79+xMbG0tycjILFixw7c9sNrNs2TJefPFFnnnmGR5++GFeeeUVjh496qoRERERkd+GAi+plpxOJ3l5eSxatIhly5aRm5tLWFgYFouFrVu38v3337tOoCwWC0uXLuXbb7+lpKSE8PBwzGYzq1evZu3atZSVlWG329m9ezdLlixh8+bNOJ1OatSowfHjx3n//feZO3cuFy5cIDg4mKysLNavX8++ffsoLy93PzQREY+Sm5vL4cOHiYmJoXfv3rRo0YKjR49y+PDhy+oOHDjA+vXrOX/+PLVr1yYkJIQ9e/awefNmioqKcDgcpKens2nTJmw2G9HR0Xh7e5OWlsbOnTtdH1Ls3r2b+fPnk5mZiZ+fHz4+PuzatYvly5dz7Ngx1/1lZ2ezZMkSTp06RWhoKEFBQezdu5eNGzdy+PBhTp8+zfbt29m8eTMVFRWYzWZSUlLYtm0bDoeDmjVrUlJSwrfffsuKFSswm81YrVZ27tzJ/Pnzyc7Oxtvbm+DgYLy8vC75n4qIiIjIb0GBl1RLRqMRLy8viouLCQ4O5t5772Xx4sWsWLGCe+65hz179rhGA5w+fZpp06aRm5vLV199xa5du/jwww+pVasWy5cvZ926dZhMJsLDwykpKcHLy4u//e1vrFu3jj//+c8sXryYH374gYcffpi1a9fy/PPPA5Cens7Zs2fdjkzk92EwGH7VKWEilfLz88nNzaVWrVq0atWKZs2a4eXlRUFBAVarFS6+z+7du5fCwkJefPFFtmzZQkpKCnfddRelpaXk5uayf/9+9u3bR2BgIJMnTyYtLY2FCxfSpk0bCgoKyM3NxWw2891337Fu3Truvfde1q1bx9KlSxkwYABbtmzh22+/xWKxAJCWlsayZcu4++67Wb16NatXr+auu+6ioKCAjIwMnE4nYWFhhIaG4u3tzZo1a1i9ejXx8fF88cUX7Ny5k5kzZ5Kbm8sXX3zBmTNnXKFbaGgo9957LxMnTuSll14iNjb2ssfkt+Y+YlmqNr1Xi4iIXBsFXlItOZ1ODAYDAQEBREdHc9NNNwEQHR1NYmIi3t7eOBwOnE4nJSUlRERE0Lx5cxo2bAhAvXr16NatGwUFBezbtw+z2UxFRQWRkZEkJCQQGBgIQFRUFJ06daJ79+40btwYgJCQEEJCQlzHIfJ7czgcGI1GIiIi3JukigoJCcHhcLhv/k05nU7KysooKysjNDSUJk2a4OPjQ7169UhISMBoNJKXl+eqLS8vp7y8nKCgINc+hg0bxn333UedOnUAKCkpwWazERYWBkBwcDAjR45k4MCBBAcHU1pais1mo3bt2rRt2xYfHx+CgoLo0qULJpOJY8eOkZ+fz+nTpykuLiYoKIjIyEi4GCIMGDCA++67j3bt2uHr64vNZsPhcGA2m9m/fz+FhYXcfPPNruNp1aoVXbt2pW7duhQXF2O1WvHz86NGjRoEBwfj4+Pj+r/8nhwOBwEBAe6bpYoKDAzEYDD87MhB/X0hIiICBqd+I4qHWbt2LX369GHixImMGTPGvRkuXnI+PT2df//73zRv3pynn36agIAACgoK2LhxI4sXL+auu+7i5ptvZsOGDaxYsYLo6GieeuopTCYTNpuN/fv3M2HCBNfCxlOmTAFg4MCBtGnTBm9vb1JSUpg+fTr9+vVjyJAhAHz77bfs2rWL+Ph4evfuTXR0tNvRify2xo8fz0svvcTTTz9NQkICJSUl7iUYDAbXCVTl6IKfuv1z3Gvdb18P977ut6/HL+nr7nr2dbXaSx/3q6ncV1BQEJ9//jnHjx9n06ZNrqD+93Dy5EmmTZvGokWL6Nq1K3FxcZw7d47169fTsGFDhg0bRpcuXQDYuHEj33//PRUVFQQGBuLj40OvXr1o164dAEVFRaxdu5bU1FQCAgLw8vKiVq1a9OvXz/V/PHz4MB9//DFFRUW8/vrrrmCqoKCA119/HavVytixY7lw4QKpqalkZ2fzxBNP0LRp00uO+v9JT09nwYIFlJeXM3r0aKZPn87SpUtp27YtUVFRBAcHu6a8R0RE8Mgjj5CYmMiSJUtYu3YtzzzzDB07dsRo/H0/WywpKaFjx44UFhbywgsvYLPZsNls7mX/1c/atda7+7n3k+txaV+73e4akZeXl0d5eTleXl4YDAaMRiOGi6NYL/3+Stuu1l55m4ujxd23X+n7n9p2tdtX2hYSEkJeXh6DBw+mRYsWfPrpp1gsFux2OwaDAYfDQe3atQkPD3d7tESqr2s5NxARz6TASzzOtfxSs1qtZGRk8NFHH9GyZUvGjBmDl5cX+fn5pKSksGLFCgYPHkznzp1ZtmwZa9eupX79+jz55JP4+/tjs9k4ePAgkyZNIi4ujnvvvZePP/4Yf39/Bg0aREJCAgaDgfXr1/Of//yHW265hYceegiAefPmsWvXLhISEhR4yQ1h4sSJPP300wB4e3u7N0sVVFFRQYMGDVi9ejUNGjRwb/5N2O12Nm/ezKRJk5g1axbGi1PJnU4nNpuNjh078sgjj3DPPfdQo0YNysrKSElJYfz48axZswaDwcDw4cN54oknaNeuHUajkYKCAhYsWMCECRM4cOAA4eHhjB49mkcffZT69euzb98+PvroI4qKinjjjTeoX78+XLywyPjx46moqGDkyJGcOHGC1NRU8vPzGT16NImJiZcde3l5OQcOHGDhwoVYLBaeeOIJFi5cyMSJE8nKyqKiosIVplitVvr06cPYsWNp0aIF33//PampqTz33HO0aNHisv3+HkpKSujbty9btmzx6Nd3RUUFcXFxNGjQgPT0dAoKCvDz88NwcSSU0Wh0fV0ahFXevrTd/evS+mutvZa6yu+vtd5wcWR6SUkJn3zyCTExMYwYMeKyALOiooJ+/fq5gmIRgXXr1tG7d++fPTcQEc+kwEs8zvUGXklJSYwZMwaTyXRZ4HXXXXfRu3dvNm/ezJIlS4iKimLs2LGYTCasVit79uxhwoQJJCQk8Nhjj/HJJ5/g5+fHoEGDaNy4sQIvqTLeeOMNxo0bxxdffEFycjIFBQXuJVJFGAwGwsLC+Otf/8qqVavYunUr8fHx7mW/iQsXLjB+/HhOnTpFz549iYuLIzg4mPLychwOBytXriQvL48//vGPNG/eHC6O1Dl69ChnzpzB4XCwevVqvLy8uOOOO0hKSoKLFxI5cuQIRUVFFBYWsnr1aho2bEivXr0wGo1MmzaNs2fP8uqrr7pGeOXm5vK3v/0Nm83Gs88+i8ViISUlhUOHDjF69OirjvAaNWoU33zzDbt372bIkCFERUVhMpkwGo0EBQURHh6On58f5eXlzJo1i23btvHss8+6jvn3VFxcTNu2bQkNDeU///kPVquViooK97Iqz+Fw4Ofnh6+vL6Wlpa6LwlQuT+B0OnE4HK7bl37vfrvye/fbV/re/d8rfe9+2/37K237qb7e3t4UFRUxffp04uLieOihh7BYLK6ReyUlJTz88MO0adPG/SESqbZ2795N69atee+99xg7dqx7s4h4MAVe4nGuJ/D68MMPSUpK4sknn/xR4HXnnXfSv39/9u3bx4QJEzCZTLzzzjuEhoZy4cIFZsyYwfr16+nZsydDhgxh4sSJeHt7M2jQIJo0aaLAS6qMV199lX/9619kZmZSt25d92apgl5//XX++c9/smvXLho1auTe/D/ncDg4fPgwf/7zn6lbty4TJkxwrW1YacaMGSxZsoSHHnqImJgYKioqcDgctG3b1lUzefJkDh48yL333oufnx9Wq5WQkBCaNGniqvnLX/6Cn58fgwcPJiIigg8++IA9e/bwwgsv0KlTJwCWL1/O559/Tr169XjxxRdxOBzMnTuXtWvX8te//tUVDuzbt4+TJ09iMpkIDAxkzZo1lJSU8PTTT/Ptt9+Snp7O0KFD6datm+v+N27cSElJCa1bt8ZgMDBnzhzS0tJ49tlnadmypavu91JcXExiYiIdOnRgzpw57s1yiSsFTlf63v22ezDlXufe5t7359rc2/39/Tl79ixvvvkm+/fvJyYmxtVms9mwWq20bduWli1bui7QIFKd+fv7c/DgQZYuXcrHH3/M/fff714iIh5MgZd4nGsJvMrLy8nIyGDSpEm0bNnStTZXXl4eKSkpLF++nDvuuIOBAwdy+vRp3nzzTY4cOcL9999P69atyczMZP78+cTExHD33XfTqFEjxo8fj8lkYsiQIa7Aa926dUydOpVbb72V4cOHAzB37lx27txJ48aN6d27N/Xq1XM/PJHf1Lhx4xg/fjxpaWk3xIgU+eVeeOEFPvnkE3bs2PG7BF7nz59n06ZNTJs2jaSkJP7yl7/g5bbA9nfffcfy5ctp2LAhderUoaSkhIMHD9K9e3c6dOhAQUEBy5Ytw9/fn9tuu42srCw2b95MYWEhAwYMICEhgaysLJYvX058fDz9+/cnKCiIqVOnsnr1alq3bk2/fv2w2+3MnTuXoqIievbsyT333IPdbmfOnDnMnz+fW265hR49elBRUcGCBQs4d+4cjRo1olWrVqSmplJUVMSf//xn9u/fz9KlSzGbzdx6663Ex8ezd+9e3n33XWrWrMnLL79M7dq1WbBgAZs2beL555+/YQKvpKQkEhMTWbx4sXuzVEFOp5PBgwezcOFCatWq5dpuuLjOl8ViwWq1YtDVHEVcgXBgYCCffvopd955p3uJiHgwBV7ica418Prhhx949913adOmDc899xze3t7k5uaydu1aFi1axF133cXgwYNxXBypMGXKFCZOnEhFRQU33XQTPXv25PHHH6dz586uT1t9fHwYNmwYiYmJGAwGvv/+ez766CMGDhzIyJEjAfj666/ZunUrzZo1o1+/fq4rRIr8XhR4eZ7fO/A6cOAAM2fO5MSJE/Tt25f77rvPvYT09HTmzJnDxo0beeihh2jZsiUff/wxa9as4fDhw/j7+zN06FAef/xxkpOT8fLyYtmyZUyZMoWtW7dy6tQp6tSpw/Dhw3nwwQdp1qwZAPn5+SxbtoyPP/6Y3bt34+PjQ2JiIk8++SR33HEH/v7+AOTl5bFq1Sreeust9u3bR61atWjdujWPP/44PXv25NixY8ybNw+LxcIrr7xCrVq12Lx5M1OnTmXNmjVkZWXh6+vLoEGDGD16NB07dqS0tJTPPvuMzZs388orr9wQ08oUeHme0tJS2rZtS1xcHNOnT8dsNl+2jlfl6DCu82IEP6cyPLuWfV2t9nqO6Wr7uppL7+uX7Mu9r/vtq/m543C//XPca91vXw/3vu63r4d73+t5jt257+vnXK3WYDBQq1YtFi9ezCOPPMIHH3zAqFGj3MtExIMp8BKPcy2Bl91uJz8/n127dhEREUGbNm0wGo2YzWZOnDjBsWPHiIuLu+xEcceOHcybN4+CggJuuukmkpOT6dSpEwEBAZjNZrZv346XlxeNGzcmPDwcg8FATk4O6enp1K9f37VGTWZmJrm5uYSFhREbG0twcPAlRyby21Pg5Xl+78ArPz+fPXv2YDAYiIuLu2KwX1xcTGZmJnv37qVdu3bExsayZcsWduzYQVZWFv7+/vTq1Ytu3boREhICF0Oq1NRUMjIyOHXqFLVr16Zfv360bt3aFWQBnD59muXLl7N//35MJhNNmzalT58+rjW9Kp05c4bZs2ezZ88eatWqRfPmzenZsyd16tTh7NmzHDx4ELvdTrt27QgICKC0tJSNGzeyfft2cnJyqFGjBrfccgtdunTB19fXNV3+zJkztG/fnsjIyMvu7/egwMvzFBcX07RpU3r27MmXX37p3iwibnbt2kXbtm15//33eeqpp9ybRcSDKfASj3Mtgde1cjqdrk+Pfsq11PycX9pf5JdS4OV5fs/A61re066lxt3V+lyt/VLXU1vpv+lzI1Dg5Xkqn9P27dsze/Zs92YRcfNrnhuISNVidN8gIv/ftZzcXEvNz/ml/UVEbiTX8p52LTXurtbnau2Xup7aSv9NHxERERH5/SjwEhERERERERERj6LAS0REREREREREPIoCLxERERERERER8SgKvERERERERERExKMo8BIREREREREREY+iwEtERERERERERDyKAi8REREREREREfEoCrxERAQAg8HgvkmqOD2nIiIiIlJdKfASEREAnE6n+yap4vScioiIiEh1pcBLREREREREREQ8igIvEREBTX/zSHpORURERKS6UuAlHksneiLXR9PfRDyPwWDQa7uacjgcWCwWSkpKKC0tpaCggPz8fM6dO0dZWdmPfi4qKiooKCggLy+Pc+fOUVxcjM1mc7WXl5dTWlpKeXk5JSUlnDt3jrNnz1JWVkZFRQVms5nz589z7tw5SkpKsNvtl+1fRETkt6bASzyOw+HA4XAQFBTk3iQiVxAQEEB5efmPTn6k6nI6nTidTgX/gtFoxOl04nA43JvEg9ntdvLy8pg1axZ///vfeeedd/jDH/5AbGwsHTt2ZPbs2Vit1sv67Ny5k8GDB1OnTh06derEX/7yF/bt2+dqX7x4MZMmTWLVqlW89tprdO7cmbZt2zJ9+nQyMjKYMmUKPXr0IDk5mb///e9kZWVdtn8REZHfmsGpMxzxMJs3b+aOO+4gMTGR7t27Yzab3UtE5CJ/f39WrFhBbm4uy5cvp0mTJu4lUgW99NJLTJkyhY0bN9K0aVP3ZqlGzp8/T/v27WnRogULFixwb5YqqLi4mKSkJNq3b8/s2bPdmwGw2WycPHmSCRMmsHXrVrp27QrA3r17yczMpG/fvowYMYLOnTsDsGbNGmbPns2RI0fw8vIiPDycwsJCevToweDBg4mNjWXq1KksW7aMhg0bEhgYSH5+PpmZmdhsNho0aEBcXBynTp3iyJEj+Pr6Mnz4cPr06UNYWJjb0Yn8ttauXUufPn2YOHEiY8aMcW8WEQ+mwEs8zrFjxxg/fjwrVqzg5MmT+Pn5uZeIyEXl5eXExMRwxx138MILL1C7dm33EqmC/vGPf/DZZ58xZcoUbr75Zo30qqacTicZGRkMHz6ctm3bMnXqVPcSqYKuJfCy2+2cOXOGV199lQMHDvDMM88wZMgQbDabKwzv2LEjo0ePxmw2M2HCBJYuXcprr73GnXfeic1m45133iE9PZ127doxcuRIlixZwty5cwkLC+OZZ54hMTGR/fv3M2jQIKxWK5988gl9+vQhIyODjz76iPr163PrrbfSsmVL98MT+U0p8BKpvhR4icexWq3k5+dTWFhIRUXFFU/0Krf9Nz/+7n3db18P977ut6/m0rVZ3Pu63/457rXut6+He1/329fjl/R1dz37ulrtpY/71VxtX1fzc8/x9XDvW7lfp9OJj48PoaGhREREYDKZ3HpKVfT5558zffp07r//fvr37090dLR7iVQD+fn5rF27lqlTp9KlSxdee+019xKpgq418Dp9+jT/+Mc/OHPmDC+99BLt2rXDarWSkpLCggULaNy4MaNGjSI3N5evv/6agwcPMnbsWJKSkrDZbGzbto3p06djs9l49dVXWb16NSkpKSQlJTFo0CBiYmLIzMzkrbfeIiQkhL/+9a9ERkaye/duZs2aRVRUFD179iQpKcn98ER+Uwq8RKovBV7iURwOB0ajlqYT+W85te6TR9i6dSvffPMNR44c4YknnuDWW28FPb/VwqXP8Y4dO3j77bepVasWd911F/369XMvlyroWgIvm83G6dOnmThxIiUlJbzyyivUq1cPi8VCRkYG33zzDXFxcTz22GOkp6ezbNkySktLGTVqFHFxcTgcDvLz85k0aRI5OTmuwCsjI4O+ffvSvXt3atSowaFDh/j444+JiIjg2WefxcfHhx9++IHvvvuO8PBwevToocBLfncKvESqLyUD4lEUdon8MgpDPEOzZs3o2rUrx44dY9OmTa7FqfX8er5Ln+MtW7awd+9e2rZtS4cOHS6rk+rBx8eHgIAAfH194eLIL6vVetkHhBaLBYvFgs1mu+yqjJX9/f39MRqNOBwOvLy8CAkJwdvbGy5+0Gi1WrFYLK73GafTqSs0iojIDUHpgIiIiIcJCgoiOTmZrl27smnTJv75z3/qKn3VzKeffsrChQtp3749nTp1IjQ01L1EqgHnxSt0Xun173A4MBgMREZGEh4ejsFgcIVgDocDs9lMQUEBRUVFrlouhmaaICIiIlWBAi8REREPUnkiGh0dzZNPPkmbNm1YvXo1Tz/9NLNmzSInJ8e9i3iIvLw8Fi1axMsvv8ysWbNo2LAhTz31lK6+KldUOf01PDycoqIiduzYwZkzZwAwmUxs3LiRvLw8YmJiCAkJwWQyKegSEZEqRWt4iYiIeJhL13FKT0/nP//5D5s2bSImJoZu3bpRr149QkND8fb2vuLID6k6jEYjNpuNkpISTp48ydatW8nIyCApKYlHH32Url27gtZv8yjXuobXqVOn+OCDDygrK+Ovf/0rtWvXprS0lJ07dzJ79mzi4uJ46qmn4OKFLubMmUPr1q3p0KEDTqeTxYsXExoaysCBA+nevTuff/45P/zwA4MGDaJjx44EBQVx4MAB3nvvPWrWrMnLL79MUFAQO3bsYN68eURERNCrVy9dpVF+d1rDS6T6UuAlIiLi4c6fP8/27dtZs2YNKSkpHDt2jHPnzmG1WrX2YRXncDjw9vYmJCSE+vXr06lTJ3r06EHnzp2pW7eue7l4gOsNvMxmM//n//yfywKvWbNm0aBBA5555hm8vLy4cOECixcv5tVXX+XYsWMEBQXRvXt3xowZw2233YbT6WTSpEns27ePQYMG0alTJ4KCgti/fz/vvfcetWrV4qWXXiI4OJgdO3Ywd+5cIiMjFXjJDUGBl0j1pcBLRETEQ106qqekpIRjx46RlZXF+fPnMZvN2O12jfqp4pxOJ15eXvj6+hIWFkZsbCz169cnPDzcvfRX81OjxX5qu/y6riXwcjqdlJWVkZmZid1uJzExET8/P2w2GwUFBWRnZxMYGEjjxo1dz1leXh7r1q3j+PHjhIaG0rBhQ1q1auX6WcrMzKSoqIh69epRq1YtTCYTRUVFHDx4EF9fX5o1a4bJZOL8+fOcOHECX19foqKitH6c/O4UeIlUXwq8RESkyrPb7Rw6dIisrCzsdjvR0dHExcUREhLiXlrtKISovv4Xz/2l+8zPz6esrIyAgADCwsLw8vJyL5f/gWsJvK7kp34efmp7pau1X+pKtVfaJvJbUuAlUn1pHoOIiFRpDoeDEydOMGnSJO666y5uv/12Xn/9dXbu3OleWi3pRLP6+l8895X7tFqtLFy4kOnTp5OWlobFYnEvlRvMT/08/NT2Sldrv9SVaq+0TURE5LegwEtERKq0PXv28OGHHxIYGMg//vEPJk+eTO3atVm7di27du3SibjIr6ykpIQvvviCt99+m9WrV2M0GhVqiIiIyA1HgZeIiFRpWVlZbNmyhcaNG/P0008zatQounbtypkzZ1i/fj1nz55174LD4aCoqIjDhw+zbds2Nm/ezJw5c5g2bRrLly8nJyfHvYtItVdRUcGRI0f47rvv2Lp1K1arlaCgIEwmk3vpZcrKysjJyWHXrl1s3bqVpUuX8sUXXzB37lz27t2LzWZz7yIiIiLyiynwEhGRKqu0tBSbzUa9evWoXbu2a3vDhg2JiooiMzOTgoKCy/pw8Qpm2dnZzJw5k9dff50PP/yQ559/nocffphnnnmGJUuWUFJS4t5NpForLy9n7ty5rF+/noYNG/L4449z8803Y7FY+LklYc+fP8/KlSt58803ee+993jjjTcYMWIEI0aMYOrUqZw6dQq73e7eTUREROQXUeAlIiJVltlspry8nICAAAIDA13bIyMj8fPz4/Tp0xQXF1/Wh4trynh7e7Nt2za2bNlCcnIyn332GRMnTiQ+Pp6MjAzS0tLcu4lUa35+fgwePJjnn3+eu+++m5o1a1JeXu5e9iO+vr7k5OSwZMkSQkNDefXVV5k9ezZ33nknp0+fZv369RQWFrp3ExEREflFFHiJiEiVVVBQwLlz5zCZTJdNq/Lz88PLy4uysjIqKiou61PJaPx/vwJr1qxJ586d6dOnD4888gjdunXDbrdrWqOIG5PJRMOGDUlISCAhIQEvL69rCrwMBgNGoxF/f3+aN2/OrbfeypAhQ7jzzjsJDw/n+PHjWmtPREREfnUKvEREpMoqLS2luLj4R9OpHA4HTqcTLy+vKy6m7XQ6qaiooFGjRnTu3JmoqCgALBYLcXFxREZG4uXl5d5NRC4qKyvD4XBc8fXlrry8nJo1a9K1a1fi4+Ph4mswMjKSm266CR8fn2vaj4iIiMj1UOAlIiJVVo0aNQgPD//RyXLlVePsdvuPwrBKDoeDoKAgIiIi8PX1hYsn4T9VLyL/HYfDga+vLxEREQQFBcElrzW93kREROR/RYGXiIhUWTVq1CA0NBSr1YrVanVtr1zMPjg42BVmXYm3tze+vr6u0VxOp9M1Osw9RBOR/47T6cRoNOLn53fZ1OPK15qIiIjI/4ICLxERqbICAwPx9fWluLj4skWvT5w4QWlpKbGxsYSGhl7W51IOh+NnR4GJyC9nMBhwOp3Y7XYcDod7s4iIiMj/hAIvERGpsvz8/PD29iYvL48zZ864th8+fJj8/HwaN25MjRo1LuvDxREnIvLb0OtNREREfg8KvEREpEpr0qQJd955JxkZGYwYMYKRI0eyZs0aGjduTO/evalTpw4nT55k2bJlbNmyhQsXLmAymbDb7ZSWllJaWuoadeJwOLBYLJSUlFBWVuZ+VyJykdPpxGw2U1paitVqdYVaJSUlrF27ljVr1pCVlQUXR3hZLBaKi4ux2WyufVitVkpLSzGbzRr5JSIiIr86BV4iIlKlNWzYkBEjRlCzZk1WrVrFt99+S1BQEL179yYuLg4uTnFMS0tjy5YtnDp1Ci8vLwIDA4mNjaV+/fp4e3vDxTW9IiMjadCggevKjSLyY0ajkbp16xIbG0vNmjVd6+BZLBbS09NJTU3lwIED2O12AgICqF27No0aNSI4ONi1j9DQUG666SZiYmLw8fG5ZO9yNdd6hUwRAZPJpItkiFRTBqde+SIiUsU5HA6Ki4spKSnB6XQSEBBAUFCQ6yS6oKCAQ4cOkZWVRdOmTWnRogV2ux2z2QwX1wIzGo04HA7Ky8ux2WyYTCb8/f3d7klEuDjCq6ysDLvd7rr4g8FgoLy8nKysLA4cOEBAQAA9e/bEZDJhNpupqKjA39/f9bq89GITAQEBGI36HPZaFBcX06RJE3r06MHMmTPdm0XEzbZt20hOTub9999n7Nix7s0i4sEUeImIiMc7efIkBw4cwGAwEB8fz0033eReoiszilyjn3utmM1mdu/eTVFREXXq1CExMdE1+qvST/X/qe1yudLSUgYOHMj+/fvp1auXLrwh8jN8fHzIyclhx44dfPrpp9x3333uJSLiwRR4iYiIxzt+/DhHjhzhpptuom7dugQEBLiXiMivoLS0lJ07dxIQEEBcXByhoaEKsX5l5eXlfPHFF3zzzTdkZmZiMpk0Ok7kJ1gsFiIiIujcuTN//OMfSUpKci8REQ+mwEtERDye3W7Hbrfj5eWF0WjUCbjI/4jT6aSiogKDweB6vcmvq3I6qcVi0WL/IlfhdDoxGo14e3sTEBCAyWRyLxERD6bAS0RERESkCtC0T5FfRq8hkepFgZeIiIiIiIiIiHgUjTMXERERERERERGPosBLREREREREREQ8igIvERERERERERHxKAq8RERERERERETEoyjwEhERERERERERj6LAS0REREREREREPIoCLxERERERERER8SgKvERERERERERExKMo8BIREREREREREY+iwEtERERERERERDyKAi8REREREREREfEoCrxERERERERERMSjKPASERERERERERGPosBLREREREREREQ8igIvERERERERERHxKAq8RERERERERETEoyjwEhERERERERERj6LAS0REREREREREPMr/BZ4Mff6HGLAUAAAAAElFTkSuQmCC&quot;&gt;" style="rounded=0;whiteSpace=wrap;html=1;dashed=1;strokeColor=default;strokeWidth=1;fontSize=15;fontColor=#66B2FF;fillColor=default;" parent="1" vertex="1">
                    <mxGeometry x="50" y="1550" width="1550" height="590" as="geometry"/>
                </mxCell>
                <mxCell id="126" value="&lt;font color=&quot;#000000&quot;&gt;consultation&lt;/font&gt;" style="swimlane;fontStyle=0;childLayout=stackLayout;horizontal=1;startSize=30;horizontalStack=0;resizeParent=1;resizeParentMax=0;resizeLast=0;collapsible=1;marginBottom=0;whiteSpace=wrap;html=1;strokeColor=#d6b656;strokeWidth=1;fontSize=15;fillColor=#fff2cc;" parent="1" vertex="1">
                    <mxGeometry x="310" y="2395" width="240" height="150" as="geometry"/>
                </mxCell>
                <mxCell id="127" value="&lt;font color=&quot;#000000&quot;&gt;id_consultation&amp;nbsp; PK INT&lt;/font&gt;" style="text;strokeColor=none;fillColor=none;align=left;verticalAlign=middle;spacingLeft=4;spacingRight=4;overflow=hidden;points=[[0,0.5],[1,0.5]];portConstraint=eastwest;rotatable=0;whiteSpace=wrap;html=1;dashed=1;strokeWidth=1;fontSize=15;fontColor=#66B2FF;" parent="126" vertex="1">
                    <mxGeometry y="30" width="240" height="30" as="geometry"/>
                </mxCell>
                <mxCell id="169" value="&lt;font color=&quot;#000000&quot;&gt;date DATE&lt;/font&gt;" style="text;strokeColor=none;fillColor=none;align=left;verticalAlign=middle;spacingLeft=4;spacingRight=4;overflow=hidden;points=[[0,0.5],[1,0.5]];portConstraint=eastwest;rotatable=0;whiteSpace=wrap;html=1;dashed=1;strokeWidth=1;fontSize=15;fontColor=#66B2FF;" parent="126" vertex="1">
                    <mxGeometry y="60" width="240" height="30" as="geometry"/>
                </mxCell>
                <mxCell id="128" value="&lt;font color=&quot;#000000&quot;&gt;prix DECIMAL(10,2) NOT NULL&lt;/font&gt;" style="text;strokeColor=none;fillColor=none;align=left;verticalAlign=middle;spacingLeft=4;spacingRight=4;overflow=hidden;points=[[0,0.5],[1,0.5]];portConstraint=eastwest;rotatable=0;whiteSpace=wrap;html=1;dashed=1;strokeWidth=1;fontSize=15;fontColor=#66B2FF;" parent="126" vertex="1">
                    <mxGeometry y="90" width="240" height="30" as="geometry"/>
                </mxCell>
                <mxCell id="129" value="&lt;font color=&quot;#007fff&quot;&gt;FK (id_medecin)&amp;nbsp;&lt;/font&gt;" style="text;strokeColor=default;fillColor=none;align=left;verticalAlign=middle;spacingLeft=4;spacingRight=4;overflow=hidden;points=[[0,0.5],[1,0.5]];portConstraint=eastwest;rotatable=0;whiteSpace=wrap;html=1;dashed=1;strokeWidth=1;fontSize=15;fontColor=#66B2FF;" parent="126" vertex="1">
                    <mxGeometry y="120" width="240" height="30" as="geometry"/>
                </mxCell>
                <mxCell id="137" value="&lt;font color=&quot;#000000&quot;&gt;symptom&lt;/font&gt;" style="swimlane;fontStyle=0;childLayout=stackLayout;horizontal=1;startSize=30;horizontalStack=0;resizeParent=1;resizeParentMax=0;resizeLast=0;collapsible=1;marginBottom=0;whiteSpace=wrap;html=1;strokeColor=#d6b656;strokeWidth=1;fontSize=15;fillColor=#fff2cc;" parent="1" vertex="1">
                    <mxGeometry x="1040" y="2600" width="180" height="90" as="geometry"/>
                </mxCell>
                <mxCell id="138" value="&lt;font color=&quot;#000000&quot;&gt;id_symptom PK&lt;/font&gt;" style="text;strokeColor=none;fillColor=none;align=left;verticalAlign=middle;spacingLeft=4;spacingRight=4;overflow=hidden;points=[[0,0.5],[1,0.5]];portConstraint=eastwest;rotatable=0;whiteSpace=wrap;html=1;dashed=1;strokeWidth=1;fontSize=15;fontColor=#66B2FF;" parent="137" vertex="1">
                    <mxGeometry y="30" width="180" height="30" as="geometry"/>
                </mxCell>
                <mxCell id="167" value="&lt;span style=&quot;color: rgb(0, 0, 0);&quot;&gt;nom VARCHAR(255)&lt;/span&gt;" style="text;strokeColor=none;fillColor=none;align=left;verticalAlign=middle;spacingLeft=4;spacingRight=4;overflow=hidden;points=[[0,0.5],[1,0.5]];portConstraint=eastwest;rotatable=0;whiteSpace=wrap;html=1;dashed=1;strokeWidth=1;fontSize=15;fontColor=#66B2FF;" parent="137" vertex="1">
                    <mxGeometry y="60" width="180" height="30" as="geometry"/>
                </mxCell>
                <mxCell id="159" value="" style="edgeStyle=none;html=1;fontSize=15;fontColor=#99CCFF;startArrow=oval;startFill=1;endArrow=classic;endFill=1;exitX=1;exitY=0.5;exitDx=0;exitDy=0;entryX=0;entryY=0.5;entryDx=0;entryDy=0;" parent="1" source="145" target="129" edge="1">
                    <mxGeometry relative="1" as="geometry">
                        <mxPoint x="220" y="2510" as="sourcePoint"/>
                        <Array as="points">
                            <mxPoint x="270" y="2555"/>
                            <mxPoint x="270" y="2530"/>
                        </Array>
                    </mxGeometry>
                </mxCell>
                <mxCell id="142" value="medecin" style="swimlane;fontStyle=0;childLayout=stackLayout;horizontal=1;startSize=30;horizontalStack=0;resizeParent=1;resizeParentMax=0;resizeLast=0;collapsible=1;marginBottom=0;whiteSpace=wrap;html=1;strokeColor=#d6b656;strokeWidth=1;fontSize=15;fillColor=#fff2cc;" parent="1" vertex="1">
                    <mxGeometry x="50" y="2510" width="160" height="90" as="geometry"/>
                </mxCell>
                <mxCell id="145" value="id_medecin PK INT" style="text;strokeColor=none;fillColor=none;align=left;verticalAlign=middle;spacingLeft=4;spacingRight=4;overflow=hidden;points=[[0,0.5],[1,0.5]];portConstraint=eastwest;rotatable=0;whiteSpace=wrap;html=1;dashed=1;strokeWidth=1;fontSize=15;fontColor=#000000;" parent="142" vertex="1">
                    <mxGeometry y="30" width="160" height="30" as="geometry"/>
                </mxCell>
                <mxCell id="148" value="nom VARCHAR(255)" style="text;strokeColor=none;fillColor=none;align=left;verticalAlign=middle;spacingLeft=4;spacingRight=4;overflow=hidden;points=[[0,0.5],[1,0.5]];portConstraint=eastwest;rotatable=0;whiteSpace=wrap;html=1;dashed=1;strokeWidth=1;fontSize=15;fontColor=#000000;" parent="142" vertex="1">
                    <mxGeometry y="60" width="160" height="30" as="geometry"/>
                </mxCell>
                <mxCell id="162" style="edgeStyle=none;html=1;entryX=1;entryY=0.5;entryDx=0;entryDy=0;fontSize=15;fontColor=#99CCFF;startArrow=oval;startFill=1;endArrow=classic;endFill=1;" parent="1" source="146" target="155" edge="1">
                    <mxGeometry relative="1" as="geometry">
                        <Array as="points">
                            <mxPoint x="970" y="2440"/>
                            <mxPoint x="970" y="2395"/>
                        </Array>
                    </mxGeometry>
                </mxCell>
                <mxCell id="146" value="malade" style="swimlane;fontStyle=0;childLayout=stackLayout;horizontal=1;startSize=30;horizontalStack=0;resizeParent=1;resizeParentMax=0;resizeLast=0;collapsible=1;marginBottom=0;whiteSpace=wrap;html=1;strokeColor=#d6b656;strokeWidth=1;fontSize=15;fillColor=#fff2cc;" parent="1" vertex="1">
                    <mxGeometry x="1040" y="2395" width="180" height="90" as="geometry"/>
                </mxCell>
                <mxCell id="147" value="id_malade PK" style="text;strokeColor=none;fillColor=none;align=left;verticalAlign=middle;spacingLeft=4;spacingRight=4;overflow=hidden;points=[[0,0.5],[1,0.5]];portConstraint=eastwest;rotatable=0;whiteSpace=wrap;html=1;dashed=1;strokeWidth=1;fontSize=15;fontColor=#000000;" parent="146" vertex="1">
                    <mxGeometry y="30" width="180" height="30" as="geometry"/>
                </mxCell>
                <mxCell id="151" value="nom VARCHAR(255)" style="text;strokeColor=none;fillColor=none;align=left;verticalAlign=middle;spacingLeft=4;spacingRight=4;overflow=hidden;points=[[0,0.5],[1,0.5]];portConstraint=eastwest;rotatable=0;whiteSpace=wrap;html=1;dashed=1;strokeWidth=1;fontSize=15;fontColor=#000000;" parent="146" vertex="1">
                    <mxGeometry y="60" width="180" height="30" as="geometry"/>
                </mxCell>
                <mxCell id="154" value="concerne" style="swimlane;fontStyle=0;childLayout=stackLayout;horizontal=1;startSize=30;horizontalStack=0;resizeParent=1;resizeParentMax=0;resizeLast=0;collapsible=1;marginBottom=0;whiteSpace=wrap;html=1;strokeColor=default;strokeWidth=1;fontSize=15;fontColor=#000000;fillColor=default;" parent="1" vertex="1">
                    <mxGeometry x="735" y="2320" width="150" height="90" as="geometry"/>
                </mxCell>
                <mxCell id="157" value="&lt;font color=&quot;#007fff&quot;&gt;FK (id_consultation)&lt;/font&gt;" style="text;strokeColor=none;fillColor=none;align=left;verticalAlign=middle;spacingLeft=4;spacingRight=4;overflow=hidden;points=[[0,0.5],[1,0.5]];portConstraint=eastwest;rotatable=0;whiteSpace=wrap;html=1;dashed=1;strokeWidth=1;fontSize=15;fontColor=#000000;" parent="154" vertex="1">
                    <mxGeometry y="30" width="150" height="30" as="geometry"/>
                </mxCell>
                <mxCell id="155" value="&lt;font color=&quot;#007fff&quot;&gt;FK (id_malade)&lt;/font&gt;" style="text;strokeColor=none;fillColor=none;align=left;verticalAlign=middle;spacingLeft=4;spacingRight=4;overflow=hidden;points=[[0,0.5],[1,0.5]];portConstraint=eastwest;rotatable=0;whiteSpace=wrap;html=1;dashed=1;strokeWidth=1;fontSize=15;fontColor=#000000;" parent="154" vertex="1">
                    <mxGeometry y="60" width="150" height="30" as="geometry"/>
                </mxCell>
                <mxCell id="161" style="edgeStyle=none;html=1;entryX=0;entryY=0.5;entryDx=0;entryDy=0;fontSize=15;fontColor=#99CCFF;startArrow=oval;startFill=1;endArrow=classic;endFill=1;" parent="1" source="127" target="157" edge="1">
                    <mxGeometry relative="1" as="geometry">
                        <Array as="points">
                            <mxPoint x="590" y="2440"/>
                            <mxPoint x="590" y="2365"/>
                        </Array>
                    </mxGeometry>
                </mxCell>
                <mxCell id="164" value="&lt;font color=&quot;#000000&quot;&gt;detecter&lt;/font&gt;" style="swimlane;fontStyle=0;childLayout=stackLayout;horizontal=1;startSize=30;horizontalStack=0;resizeParent=1;resizeParentMax=0;resizeLast=0;collapsible=1;marginBottom=0;whiteSpace=wrap;html=1;strokeColor=default;strokeWidth=1;fontSize=15;fontColor=#66B2FF;fillColor=default;" parent="1" vertex="1">
                    <mxGeometry x="700" y="2540" width="180" height="90" as="geometry"/>
                </mxCell>
                <mxCell id="165" value="&lt;font color=&quot;#007fff&quot;&gt;FK(id_consultation)&lt;/font&gt;" style="text;strokeColor=none;fillColor=none;align=left;verticalAlign=middle;spacingLeft=4;spacingRight=4;overflow=hidden;points=[[0,0.5],[1,0.5]];portConstraint=eastwest;rotatable=0;whiteSpace=wrap;html=1;dashed=1;strokeWidth=1;fontSize=15;fontColor=#66B2FF;" parent="164" vertex="1">
                    <mxGeometry y="30" width="180" height="30" as="geometry"/>
                </mxCell>
                <mxCell id="166" value="&lt;font color=&quot;#3399ff&quot;&gt;FK(id_symptom&lt;/font&gt;&lt;font color=&quot;#99ccff&quot;&gt;)&lt;/font&gt;" style="text;strokeColor=default;fillColor=none;align=left;verticalAlign=middle;spacingLeft=4;spacingRight=4;overflow=hidden;points=[[0,0.5],[1,0.5]];portConstraint=eastwest;rotatable=0;whiteSpace=wrap;html=1;dashed=1;strokeWidth=1;fontSize=15;fontColor=#66B2FF;" parent="164" vertex="1">
                    <mxGeometry y="60" width="180" height="30" as="geometry"/>
                </mxCell>
                <mxCell id="168" style="edgeStyle=none;html=1;entryX=1;entryY=0.5;entryDx=0;entryDy=0;fontSize=15;fontColor=#99CCFF;startArrow=oval;startFill=1;endArrow=classic;endFill=1;" parent="1" target="166" edge="1">
                    <mxGeometry relative="1" as="geometry">
                        <mxPoint x="1040" y="2645" as="sourcePoint"/>
                        <mxPoint x="920" y="2570" as="targetPoint"/>
                        <Array as="points">
                            <mxPoint x="980" y="2645"/>
                            <mxPoint x="980" y="2615"/>
                        </Array>
                    </mxGeometry>
                </mxCell>
                <mxCell id="170" style="edgeStyle=none;html=1;entryX=0;entryY=0.5;entryDx=0;entryDy=0;fontSize=15;fontColor=#99CCFF;startArrow=oval;startFill=1;endArrow=classic;endFill=1;exitX=1;exitY=0.5;exitDx=0;exitDy=0;" parent="1" source="127" edge="1">
                    <mxGeometry relative="1" as="geometry">
                        <mxPoint x="450" y="2630" as="sourcePoint"/>
                        <mxPoint x="705" y="2585" as="targetPoint"/>
                        <Array as="points">
                            <mxPoint x="580" y="2585"/>
                        </Array>
                    </mxGeometry>
                </mxCell>
                <mxCell id="172" value="maladie" style="swimlane;fontStyle=0;childLayout=stackLayout;horizontal=1;startSize=30;horizontalStack=0;resizeParent=1;resizeParentMax=0;resizeLast=0;collapsible=1;marginBottom=0;whiteSpace=wrap;html=1;strokeColor=#d6b656;strokeWidth=1;fontSize=15;fillColor=#fff2cc;" parent="1" vertex="1">
                    <mxGeometry x="1040" y="2810" width="180" height="90" as="geometry"/>
                </mxCell>
                <mxCell id="173" value="id_maladie PK" style="text;strokeColor=none;fillColor=none;align=left;verticalAlign=middle;spacingLeft=4;spacingRight=4;overflow=hidden;points=[[0,0.5],[1,0.5]];portConstraint=eastwest;rotatable=0;whiteSpace=wrap;html=1;dashed=1;strokeWidth=1;fontSize=15;fontColor=#000000;" parent="172" vertex="1">
                    <mxGeometry y="30" width="180" height="30" as="geometry"/>
                </mxCell>
                <mxCell id="174" value="nom VARCHAR(255)" style="text;strokeColor=none;fillColor=none;align=left;verticalAlign=middle;spacingLeft=4;spacingRight=4;overflow=hidden;points=[[0,0.5],[1,0.5]];portConstraint=eastwest;rotatable=0;whiteSpace=wrap;html=1;dashed=1;strokeWidth=1;fontSize=15;fontColor=#000000;" parent="172" vertex="1">
                    <mxGeometry y="60" width="180" height="30" as="geometry"/>
                </mxCell>
                <mxCell id="175" value="&lt;font color=&quot;#000000&quot;&gt;diagnostiquer&lt;/font&gt;" style="swimlane;fontStyle=0;childLayout=stackLayout;horizontal=1;startSize=30;horizontalStack=0;resizeParent=1;resizeParentMax=0;resizeLast=0;collapsible=1;marginBottom=0;whiteSpace=wrap;html=1;strokeColor=default;strokeWidth=1;fontSize=15;fontColor=#66B2FF;fillColor=default;" parent="1" vertex="1">
                    <mxGeometry x="700" y="2730" width="180" height="90" as="geometry"/>
                </mxCell>
                <mxCell id="176" value="&lt;font color=&quot;#007fff&quot;&gt;FK(id_consultation)&lt;/font&gt;" style="text;strokeColor=none;fillColor=none;align=left;verticalAlign=middle;spacingLeft=4;spacingRight=4;overflow=hidden;points=[[0,0.5],[1,0.5]];portConstraint=eastwest;rotatable=0;whiteSpace=wrap;html=1;dashed=1;strokeWidth=1;fontSize=15;fontColor=#66B2FF;" parent="175" vertex="1">
                    <mxGeometry y="30" width="180" height="30" as="geometry"/>
                </mxCell>
                <mxCell id="177" value="&lt;font color=&quot;#3399ff&quot;&gt;FK(id_maladie&lt;/font&gt;&lt;font color=&quot;#99ccff&quot;&gt;)&lt;/font&gt;" style="text;strokeColor=default;fillColor=none;align=left;verticalAlign=middle;spacingLeft=4;spacingRight=4;overflow=hidden;points=[[0,0.5],[1,0.5]];portConstraint=eastwest;rotatable=0;whiteSpace=wrap;html=1;dashed=1;strokeWidth=1;fontSize=15;fontColor=#66B2FF;" parent="175" vertex="1">
                    <mxGeometry y="60" width="180" height="30" as="geometry"/>
                </mxCell>
                <mxCell id="178" style="edgeStyle=none;html=1;entryX=1;entryY=0.5;entryDx=0;entryDy=0;fontSize=15;fontColor=#99CCFF;startArrow=oval;startFill=1;endArrow=classic;endFill=1;" parent="1" target="177" edge="1">
                    <mxGeometry relative="1" as="geometry">
                        <mxPoint x="1040" y="2860" as="sourcePoint"/>
                        <mxPoint x="880" y="2830" as="targetPoint"/>
                        <Array as="points">
                            <mxPoint x="980" y="2860"/>
                            <mxPoint x="980" y="2805"/>
                        </Array>
                    </mxGeometry>
                </mxCell>
                <mxCell id="179" style="edgeStyle=none;html=1;entryX=0;entryY=0.5;entryDx=0;entryDy=0;fontSize=15;fontColor=#99CCFF;startArrow=oval;startFill=1;endArrow=classic;endFill=1;exitX=1;exitY=0.5;exitDx=0;exitDy=0;" parent="1" source="127" target="176" edge="1">
                    <mxGeometry relative="1" as="geometry">
                        <mxPoint x="480" y="2695" as="sourcePoint"/>
                        <mxPoint x="640" y="2750" as="targetPoint"/>
                        <Array as="points">
                            <mxPoint x="580" y="2775"/>
                        </Array>
                    </mxGeometry>
                </mxCell>
                <mxCell id="180" value="&lt;font color=&quot;#000000&quot;&gt;associer&lt;/font&gt;" style="swimlane;fontStyle=0;childLayout=stackLayout;horizontal=1;startSize=30;horizontalStack=0;resizeParent=1;resizeParentMax=0;resizeLast=0;collapsible=1;marginBottom=0;whiteSpace=wrap;html=1;strokeColor=default;strokeWidth=1;fontSize=15;fontColor=#66B2FF;fillColor=default;" parent="1" vertex="1">
                    <mxGeometry x="1340" y="2705" width="180" height="90" as="geometry"/>
                </mxCell>
                <mxCell id="181" value="&lt;font color=&quot;#007fff&quot;&gt;FK(id symptom)&lt;/font&gt;" style="text;strokeColor=none;fillColor=none;align=left;verticalAlign=middle;spacingLeft=4;spacingRight=4;overflow=hidden;points=[[0,0.5],[1,0.5]];portConstraint=eastwest;rotatable=0;whiteSpace=wrap;html=1;dashed=1;strokeWidth=1;fontSize=15;fontColor=#66B2FF;" parent="180" vertex="1">
                    <mxGeometry y="30" width="180" height="30" as="geometry"/>
                </mxCell>
                <mxCell id="182" value="&lt;font color=&quot;#3399ff&quot;&gt;FK(id maladie&lt;/font&gt;&lt;font color=&quot;#99ccff&quot;&gt;)&lt;/font&gt;" style="text;strokeColor=default;fillColor=none;align=left;verticalAlign=middle;spacingLeft=4;spacingRight=4;overflow=hidden;points=[[0,0.5],[1,0.5]];portConstraint=eastwest;rotatable=0;whiteSpace=wrap;html=1;dashed=1;strokeWidth=1;fontSize=15;fontColor=#66B2FF;" parent="180" vertex="1">
                    <mxGeometry y="60" width="180" height="30" as="geometry"/>
                </mxCell>
                <mxCell id="183" style="edgeStyle=none;html=1;entryX=0;entryY=0.5;entryDx=0;entryDy=0;fontSize=15;fontColor=#99CCFF;startArrow=oval;startFill=1;endArrow=classic;endFill=1;exitX=1;exitY=0.5;exitDx=0;exitDy=0;" parent="1" source="173" target="182" edge="1">
                    <mxGeometry relative="1" as="geometry">
                        <mxPoint x="1195" y="2870" as="sourcePoint"/>
                        <mxPoint x="1355" y="2925" as="targetPoint"/>
                        <Array as="points">
                            <mxPoint x="1290" y="2855"/>
                            <mxPoint x="1290" y="2780"/>
                        </Array>
                    </mxGeometry>
                </mxCell>
                <mxCell id="184" style="edgeStyle=none;html=1;entryX=0;entryY=0.5;entryDx=0;entryDy=0;fontSize=15;fontColor=#99CCFF;startArrow=oval;startFill=1;endArrow=classic;endFill=1;" parent="1" target="181" edge="1">
                    <mxGeometry relative="1" as="geometry">
                        <mxPoint x="1220" y="2640" as="sourcePoint"/>
                        <mxPoint x="1365" y="2550" as="targetPoint"/>
                        <Array as="points">
                            <mxPoint x="1290" y="2640"/>
                            <mxPoint x="1290" y="2750"/>
                        </Array>
                    </mxGeometry>
                </mxCell>
                <mxCell id="96" value="" style="group;movable=1;resizable=1;rotatable=1;deletable=1;editable=1;connectable=1;" parent="1" vertex="1" connectable="0">
                    <mxGeometry x="470" y="920" width="130" height="150" as="geometry"/>
                </mxCell>
                <mxCell id="70" value="&lt;b&gt;séjour&lt;/b&gt;" style="swimlane;fontStyle=0;childLayout=stackLayout;horizontal=1;startSize=30;horizontalStack=0;resizeParent=1;resizeParentMax=0;resizeLast=0;collapsible=1;marginBottom=0;whiteSpace=wrap;html=1;fillColor=#fff2cc;strokeColor=#d6b656;" parent="96" vertex="1">
                    <mxGeometry width="130" height="120" as="geometry"/>
                </mxCell>
                <mxCell id="71" value="id PK (n° séjour)" style="text;strokeColor=default;fillColor=none;align=left;verticalAlign=middle;spacingLeft=4;spacingRight=4;overflow=hidden;points=[[0,0.5],[1,0.5]];portConstraint=eastwest;rotatable=0;whiteSpace=wrap;html=1;" parent="70" vertex="1">
                    <mxGeometry y="30" width="130" height="30" as="geometry"/>
                </mxCell>
                <mxCell id="91" value="" style="group" parent="70" vertex="1" connectable="0">
                    <mxGeometry y="60" width="130" height="60" as="geometry"/>
                </mxCell>
                <mxCell id="72" value="date_arrivee DATE" style="text;strokeColor=none;fillColor=none;align=left;verticalAlign=middle;spacingLeft=4;spacingRight=4;overflow=hidden;points=[[0,0.5],[1,0.5]];portConstraint=eastwest;rotatable=0;whiteSpace=wrap;html=1;" parent="91" vertex="1">
                    <mxGeometry width="130" height="30" as="geometry"/>
                </mxCell>
                <mxCell id="73" value="date_depart DATE" style="text;strokeColor=none;fillColor=none;align=left;verticalAlign=middle;spacingLeft=4;spacingRight=4;overflow=hidden;points=[[0,0.5],[1,0.5]];portConstraint=eastwest;rotatable=0;whiteSpace=wrap;html=1;" parent="91" vertex="1">
                    <mxGeometry y="30" width="130" height="30" as="geometry"/>
                </mxCell>
                <mxCell id="74" value="&lt;font color=&quot;#0066cc&quot;&gt;FK---(id patient) INT&lt;/font&gt;" style="text;strokeColor=#000000;fillColor=none;align=left;verticalAlign=middle;spacingLeft=4;spacingRight=4;overflow=hidden;points=[[0,0.5],[1,0.5]];portConstraint=eastwest;rotatable=0;whiteSpace=wrap;html=1;dashed=1;" parent="96" vertex="1">
                    <mxGeometry y="120" width="130" height="30" as="geometry"/>
                </mxCell>
                <mxCell id="97" value="&lt;font color=&quot;#0066cc&quot;&gt;FK---(id chambre) INT&lt;/font&gt;" style="text;strokeColor=default;fillColor=default;align=left;verticalAlign=middle;spacingLeft=4;spacingRight=4;overflow=hidden;points=[[0,0.5],[1,0.5]];portConstraint=eastwest;rotatable=0;whiteSpace=wrap;html=1;strokeWidth=1;dashed=1;" parent="1" vertex="1">
                    <mxGeometry x="470" y="1070" width="130" height="30" as="geometry"/>
                </mxCell>
            </root>
        </mxGraphModel>
    </diagram>
</mxfile>